G04 Layer_Color=128*
%FSLAX44Y44*%
%MOMM*%
G71*
G01*
G75*
%ADD25R,0.8000X0.9000*%
%ADD26R,0.9000X0.8000*%
%ADD34R,0.9500X0.8500*%
%ADD35R,0.8500X0.9500*%
%ADD42R,0.8000X0.8000*%
%ADD49C,0.5000*%
%ADD88R,1.9000X1.1000*%
G04:AMPARAMS|DCode=90|XSize=0.3mm|YSize=0.45mm|CornerRadius=0.0495mm|HoleSize=0mm|Usage=FLASHONLY|Rotation=270.000|XOffset=0mm|YOffset=0mm|HoleType=Round|Shape=RoundedRectangle|*
%AMROUNDEDRECTD90*
21,1,0.3000,0.3510,0,0,270.0*
21,1,0.2010,0.4500,0,0,270.0*
1,1,0.0990,-0.1755,-0.1005*
1,1,0.0990,-0.1755,0.1005*
1,1,0.0990,0.1755,0.1005*
1,1,0.0990,0.1755,-0.1005*
%
%ADD90ROUNDEDRECTD90*%
%ADD91R,0.6604X0.3048*%
%ADD92R,0.8382X2.3876*%
%ADD93R,0.7000X0.2500*%
%ADD94R,1.2000X0.8000*%
%ADD95R,1.2000X0.6000*%
%ADD96R,1.3000X1.4500*%
G04:AMPARAMS|DCode=109|XSize=1mm|YSize=0.7mm|CornerRadius=0.049mm|HoleSize=0mm|Usage=FLASHONLY|Rotation=0.000|XOffset=0mm|YOffset=0mm|HoleType=Round|Shape=RoundedRectangle|*
%AMROUNDEDRECTD109*
21,1,1.0000,0.6020,0,0,0.0*
21,1,0.9020,0.7000,0,0,0.0*
1,1,0.0980,0.4510,-0.3010*
1,1,0.0980,-0.4510,-0.3010*
1,1,0.0980,-0.4510,0.3010*
1,1,0.0980,0.4510,0.3010*
%
%ADD109ROUNDEDRECTD109*%
D25*
X164250Y426000D02*
D03*
X177750D02*
D03*
X106840Y565110D02*
D03*
X120340D02*
D03*
X171750Y527500D02*
D03*
X158250D02*
D03*
X135750Y602500D02*
D03*
X149250D02*
D03*
X189000Y464500D02*
D03*
X202500D02*
D03*
Y451500D02*
D03*
X189000D02*
D03*
X135750Y480000D02*
D03*
X149250D02*
D03*
X164250Y439000D02*
D03*
X177750D02*
D03*
X171750Y502500D02*
D03*
X158250D02*
D03*
D26*
X103590Y577360D02*
D03*
Y590860D02*
D03*
X117590D02*
D03*
Y577360D02*
D03*
X80250Y496250D02*
D03*
Y482750D02*
D03*
D34*
X135840Y467110D02*
D03*
Y453610D02*
D03*
X310000Y605250D02*
D03*
Y618750D02*
D03*
Y593750D02*
D03*
Y580250D02*
D03*
X452500Y120750D02*
D03*
Y134250D02*
D03*
X465000Y120750D02*
D03*
Y134250D02*
D03*
X295000Y115750D02*
D03*
Y129250D02*
D03*
D35*
X130250Y501250D02*
D03*
X143750D02*
D03*
X130250Y514250D02*
D03*
X143750D02*
D03*
X106840Y552110D02*
D03*
X120340D02*
D03*
X189000Y477500D02*
D03*
X202500D02*
D03*
X370950Y125500D02*
D03*
X357450D02*
D03*
X370950Y105500D02*
D03*
X357450D02*
D03*
X370950Y145500D02*
D03*
X357450D02*
D03*
X370950Y165500D02*
D03*
X357450D02*
D03*
X370950Y185500D02*
D03*
X357450D02*
D03*
D42*
X135000Y590000D02*
D03*
X150000D02*
D03*
X172500Y515000D02*
D03*
X157500D02*
D03*
D49*
X0Y800000D02*
X680000D01*
Y0D02*
Y800000D01*
X0Y0D02*
X680000D01*
X0D02*
Y800000D01*
D88*
X290500Y586000D02*
D03*
Y611000D02*
D03*
D90*
X151000Y416000D02*
D03*
Y422500D02*
D03*
Y429000D02*
D03*
X131500D02*
D03*
Y422500D02*
D03*
Y416000D02*
D03*
D91*
X136340Y553344D02*
D03*
Y558170D02*
D03*
Y563250D02*
D03*
Y568330D02*
D03*
Y573156D02*
D03*
X156660D02*
D03*
Y568330D02*
D03*
Y563250D02*
D03*
Y558170D02*
D03*
Y553344D02*
D03*
D92*
X146500Y563250D02*
D03*
D93*
X155150Y455500D02*
D03*
Y460500D02*
D03*
Y465500D02*
D03*
X169350Y455500D02*
D03*
Y460500D02*
D03*
Y465500D02*
D03*
D94*
X115000Y414500D02*
D03*
Y429500D02*
D03*
D95*
X81000Y445500D02*
D03*
Y455000D02*
D03*
Y464500D02*
D03*
X104000D02*
D03*
Y455000D02*
D03*
Y445500D02*
D03*
D96*
X80000Y535000D02*
D03*
X96000D02*
D03*
X145500Y530000D02*
D03*
X129500D02*
D03*
D109*
X141250Y427000D02*
D03*
Y418000D02*
D03*
M02*
