G04 Layer_Color=65535*
%FSLAX44Y44*%
%MOMM*%
G71*
G01*
G75*
%ADD46C,0.2000*%
%ADD47C,0.3000*%
%ADD48C,0.1000*%
%ADD49C,0.5000*%
%ADD51C,0.1500*%
%ADD53C,0.2500*%
%ADD97C,0.0000*%
%ADD98C,0.3800*%
%ADD99C,0.1270*%
%ADD100C,0.1600*%
%ADD101C,0.2540*%
%ADD102C,0.4000*%
%ADD103R,2.0000X1.0000*%
%ADD104R,0.5500X3.4000*%
G36*
X264680Y414320D02*
X254520D01*
X259600Y419400D01*
X264680Y414320D01*
D02*
G37*
D46*
X51660Y476860D02*
G03*
X51660Y476860I-1000J0D01*
G01*
X193500Y533500D02*
X197250D01*
X193500D02*
Y537250D01*
Y602750D02*
Y606500D01*
X197250D01*
X262750D02*
X266500D01*
Y602750D02*
Y606500D01*
X262750Y533500D02*
X266500D01*
Y537250D01*
X-33017Y580367D02*
X850D01*
X-37250Y584600D02*
X-33017Y580367D01*
X-37250Y584600D02*
X-33017Y588833D01*
X850D01*
X-33017Y605767D02*
X850D01*
X-37250Y610000D02*
X-33017Y605767D01*
X-37250Y610000D02*
X-33017Y614233D01*
X850D01*
X13549Y571900D02*
Y622700D01*
X850D02*
X13549D01*
X850Y571900D02*
X13549D01*
X850D02*
Y622700D01*
X-32767Y523367D02*
X1099D01*
X-37001Y527600D02*
X-32767Y523367D01*
X-37001Y527600D02*
X-32767Y531833D01*
X1099D01*
X-32767Y548767D02*
X1099D01*
X-37001Y553000D02*
X-32767Y548767D01*
X-37001Y553000D02*
X-32767Y557233D01*
X1099D01*
X13800Y514900D02*
Y565700D01*
X1099D02*
X13800D01*
X1099Y514900D02*
X13800D01*
X1099D02*
Y565700D01*
X280300Y7300D02*
Y32700D01*
X432700Y7300D02*
Y32700D01*
X280300Y7300D02*
X432700D01*
X280300Y32700D02*
X432700D01*
X660Y501860D02*
X54660D01*
X660Y411860D02*
X54660D01*
Y501860D01*
X214000Y172000D02*
Y206000D01*
X72000D02*
X214000D01*
X72000Y172000D02*
X214000D01*
X85000Y426000D02*
Y474000D01*
X115000Y426000D02*
Y474000D01*
X85000Y426000D02*
X88250D01*
X85000Y474000D02*
X88250D01*
X111750Y426000D02*
X115000D01*
X111750Y474000D02*
X115000D01*
X90000Y503500D02*
Y551500D01*
X120000Y503500D02*
Y551500D01*
X90000Y503500D02*
X93250D01*
X90000Y551500D02*
X93250D01*
X116750Y503500D02*
X120000D01*
X116750Y551500D02*
X120000D01*
X347500Y437750D02*
Y467750D01*
X322500Y437750D02*
Y467750D01*
X347500D01*
X322500Y437750D02*
X347500D01*
X270500Y56500D02*
Y86500D01*
X245500Y56500D02*
Y86500D01*
X270500D01*
X245500Y56500D02*
X270500D01*
X528250Y373000D02*
X558250D01*
X528250Y348000D02*
X558250D01*
X528250D02*
Y373000D01*
X558250Y348000D02*
Y373000D01*
X528250Y340500D02*
X558250D01*
X528250Y315500D02*
X558250D01*
X528250D02*
Y340500D01*
X558250Y315500D02*
Y340500D01*
X528250Y308000D02*
X558250D01*
X528250Y283000D02*
X558250D01*
X528250D02*
Y308000D01*
X558250Y283000D02*
Y308000D01*
X528250Y275500D02*
X558250D01*
X528250Y250500D02*
X558250D01*
X528250D02*
Y275500D01*
X558250Y250500D02*
Y275500D01*
X341665Y775831D02*
X339998Y777497D01*
X336666D01*
X335000Y775831D01*
Y769166D01*
X336666Y767500D01*
X339998D01*
X341665Y769166D01*
Y772498D01*
X338332D01*
X344997Y767500D02*
Y777497D01*
X349995D01*
X351661Y775831D01*
Y772498D01*
X349995Y770832D01*
X344997D01*
X361658Y775831D02*
X359992Y777497D01*
X356660D01*
X354994Y775831D01*
Y774165D01*
X356660Y772498D01*
X359992D01*
X361658Y770832D01*
Y769166D01*
X359992Y767500D01*
X356660D01*
X354994Y769166D01*
X564165Y655831D02*
X562498Y657497D01*
X559166D01*
X557500Y655831D01*
Y649166D01*
X559166Y647500D01*
X562498D01*
X564165Y649166D01*
Y652498D01*
X560832D01*
X567497Y647500D02*
Y657497D01*
X572495D01*
X574161Y655831D01*
Y652498D01*
X572495Y650832D01*
X567497D01*
X584158Y655831D02*
X582492Y657497D01*
X579160D01*
X577494Y655831D01*
Y654165D01*
X579160Y652498D01*
X582492D01*
X584158Y650832D01*
Y649166D01*
X582492Y647500D01*
X579160D01*
X577494Y649166D01*
X599153Y654165D02*
X602486D01*
X604152Y652498D01*
Y647500D01*
X599153D01*
X597487Y649166D01*
X599153Y650832D01*
X604152D01*
X607484Y647500D02*
Y654165D01*
X612482D01*
X614148Y652498D01*
Y647500D01*
X619147Y655831D02*
Y654165D01*
X617481D01*
X620813D01*
X619147D01*
Y649166D01*
X620813Y647500D01*
X630810D02*
X627477D01*
X625811Y649166D01*
Y652498D01*
X627477Y654165D01*
X630810D01*
X632476Y652498D01*
Y650832D01*
X625811D01*
X635808Y647500D02*
Y654165D01*
X640807D01*
X642473Y652498D01*
Y647500D01*
X645805D02*
Y654165D01*
X650803D01*
X652469Y652498D01*
Y647500D01*
X657468Y654165D02*
X660800D01*
X662466Y652498D01*
Y647500D01*
X657468D01*
X655802Y649166D01*
X657468Y650832D01*
X662466D01*
X49165Y742500D02*
X42500D01*
X49165Y749165D01*
Y750831D01*
X47498Y752497D01*
X44166D01*
X42500Y750831D01*
X52497Y742500D02*
Y744166D01*
X54163D01*
Y742500D01*
X52497D01*
X65826D02*
Y752497D01*
X60827Y747498D01*
X67492D01*
X77489Y752497D02*
X70824D01*
Y747498D01*
X74156Y749165D01*
X75823D01*
X77489Y747498D01*
Y744166D01*
X75823Y742500D01*
X72490D01*
X70824Y744166D01*
X97482Y750831D02*
X95816Y752497D01*
X92484D01*
X90818Y750831D01*
Y744166D01*
X92484Y742500D01*
X95816D01*
X97482Y744166D01*
Y747498D01*
X94150D01*
X100815Y752497D02*
Y742500D01*
Y747498D01*
X107479D01*
Y752497D01*
Y742500D01*
X110811Y749165D02*
X117476D01*
X110811Y742500D01*
X117476D01*
X132471Y749165D02*
X135803D01*
X137469Y747498D01*
Y742500D01*
X132471D01*
X130805Y744166D01*
X132471Y745832D01*
X137469D01*
X140802Y742500D02*
Y749165D01*
X145800D01*
X147466Y747498D01*
Y742500D01*
X152465Y750831D02*
Y749165D01*
X150798D01*
X154131D01*
X152465D01*
Y744166D01*
X154131Y742500D01*
X164128D02*
X160795D01*
X159129Y744166D01*
Y747498D01*
X160795Y749165D01*
X164128D01*
X165794Y747498D01*
Y745832D01*
X159129D01*
X169126Y742500D02*
Y749165D01*
X174124D01*
X175790Y747498D01*
Y742500D01*
X179123D02*
Y749165D01*
X184121D01*
X185787Y747498D01*
Y742500D01*
X190786Y749165D02*
X194118D01*
X195784Y747498D01*
Y742500D01*
X190786D01*
X189119Y744166D01*
X190786Y745832D01*
X195784D01*
X60000Y156997D02*
Y147000D01*
X66665D01*
X71663D02*
X74995D01*
X76661Y148666D01*
Y151998D01*
X74995Y153665D01*
X71663D01*
X69997Y151998D01*
Y148666D01*
X71663Y147000D01*
X79994D02*
Y156997D01*
X84992D01*
X86658Y155331D01*
Y151998D01*
X84992Y150332D01*
X79994D01*
X83326D02*
X86658Y147000D01*
X91657Y153665D02*
X94989D01*
X96655Y151998D01*
Y147000D01*
X91657D01*
X89990Y148666D01*
X91657Y150332D01*
X96655D01*
X109984Y155331D02*
X111650Y156997D01*
X114982D01*
X116648Y155331D01*
Y153665D01*
X114982Y151998D01*
X116648Y150332D01*
Y148666D01*
X114982Y147000D01*
X111650D01*
X109984Y148666D01*
Y150332D01*
X111650Y151998D01*
X109984Y153665D01*
Y155331D01*
X111650Y151998D02*
X114982D01*
X126645Y156997D02*
X123313Y155331D01*
X119981Y151998D01*
Y148666D01*
X121647Y147000D01*
X124979D01*
X126645Y148666D01*
Y150332D01*
X124979Y151998D01*
X119981D01*
X129978Y155331D02*
X131644Y156997D01*
X134976D01*
X136642Y155331D01*
Y153665D01*
X134976Y151998D01*
X136642Y150332D01*
Y148666D01*
X134976Y147000D01*
X131644D01*
X129978Y148666D01*
Y150332D01*
X131644Y151998D01*
X129978Y153665D01*
Y155331D01*
X131644Y151998D02*
X134976D01*
X139974Y147000D02*
Y156997D01*
X143307Y153665D01*
X146639Y156997D01*
Y147000D01*
X149971Y156997D02*
Y147000D01*
Y151998D01*
X156636D01*
Y156997D01*
Y147000D01*
X159968Y153665D02*
X166632D01*
X159968Y147000D01*
X166632D01*
X15000Y310000D02*
Y316665D01*
X18332Y319997D01*
X21665Y316665D01*
Y310000D01*
Y314998D01*
X15000D01*
X24997Y310000D02*
Y316665D01*
X29995D01*
X31661Y314998D01*
Y310000D01*
X41658Y319997D02*
Y310000D01*
X36660D01*
X34994Y311666D01*
Y314998D01*
X36660Y316665D01*
X41658D01*
X44990D02*
Y310000D01*
Y313332D01*
X46656Y314998D01*
X48323Y316665D01*
X49989D01*
X56653D02*
X59985D01*
X61652Y314998D01*
Y310000D01*
X56653D01*
X54987Y311666D01*
X56653Y313332D01*
X61652D01*
X71648Y319997D02*
Y310000D01*
X66650D01*
X64984Y311666D01*
Y314998D01*
X66650Y316665D01*
X71648D01*
X79979Y310000D02*
X76647D01*
X74981Y311666D01*
Y314998D01*
X76647Y316665D01*
X79979D01*
X81645Y314998D01*
Y313332D01*
X74981D01*
X94974Y319997D02*
Y310000D01*
X99973D01*
X101639Y311666D01*
Y318331D01*
X99973Y319997D01*
X94974D01*
X106637Y316665D02*
X109969D01*
X111636Y314998D01*
Y310000D01*
X106637D01*
X104971Y311666D01*
X106637Y313332D01*
X111636D01*
X114968Y316665D02*
X118300Y310000D01*
X121632Y316665D01*
X124965Y310000D02*
X128297D01*
X126631D01*
Y316665D01*
X124965D01*
X139960Y319997D02*
Y310000D01*
X134961D01*
X133295Y311666D01*
Y314998D01*
X134961Y316665D01*
X139960D01*
X15000Y337497D02*
Y327500D01*
Y332498D01*
X21665D01*
Y337497D01*
Y327500D01*
X31661Y337497D02*
X24997D01*
Y327500D01*
X31661D01*
X24997Y332498D02*
X28329D01*
X41658Y335831D02*
X39992Y337497D01*
X36660D01*
X34994Y335831D01*
Y334165D01*
X36660Y332498D01*
X39992D01*
X41658Y330832D01*
Y329166D01*
X39992Y327500D01*
X36660D01*
X34994Y329166D01*
X44990Y332498D02*
X51655D01*
X61652Y335831D02*
X59985Y337497D01*
X56653D01*
X54987Y335831D01*
Y334165D01*
X56653Y332498D01*
X59985D01*
X61652Y330832D01*
Y329166D01*
X59985Y327500D01*
X56653D01*
X54987Y329166D01*
X69982Y337497D02*
X66650D01*
X64984Y335831D01*
Y329166D01*
X66650Y327500D01*
X69982D01*
X71648Y329166D01*
Y335831D01*
X69982Y337497D01*
X84978Y327500D02*
Y337497D01*
X88310Y334165D01*
X91642Y337497D01*
Y327500D01*
X96640Y334165D02*
X99973D01*
X101639Y332498D01*
Y327500D01*
X96640D01*
X94974Y329166D01*
X96640Y330832D01*
X101639D01*
X104971Y327500D02*
X109969D01*
X111636Y329166D01*
X109969Y330832D01*
X106637D01*
X104971Y332498D01*
X106637Y334165D01*
X111636D01*
X116634Y335831D02*
Y334165D01*
X114968D01*
X118300D01*
X116634D01*
Y329166D01*
X118300Y327500D01*
X128297D02*
X124965D01*
X123298Y329166D01*
Y332498D01*
X124965Y334165D01*
X128297D01*
X129963Y332498D01*
Y330832D01*
X123298D01*
X133295Y334165D02*
Y327500D01*
Y330832D01*
X134961Y332498D01*
X136628Y334165D01*
X138294D01*
X159953Y327500D02*
X153289Y334165D01*
X173282Y337497D02*
Y327500D01*
Y332498D01*
X174949Y334165D01*
X178281D01*
X179947Y332498D01*
Y327500D01*
X188277D02*
X184945D01*
X183279Y329166D01*
Y332498D01*
X184945Y334165D01*
X188277D01*
X189944Y332498D01*
Y330832D01*
X183279D01*
X193276Y324168D02*
Y334165D01*
X198274D01*
X199940Y332498D01*
Y329166D01*
X198274Y327500D01*
X193276D01*
X203273D02*
X206605D01*
X204939D01*
Y334165D01*
X203273D01*
X213269D02*
X216602D01*
X218268Y332498D01*
Y327500D01*
X213269D01*
X211603Y329166D01*
X213269Y330832D01*
X218268D01*
X15000Y354997D02*
Y348332D01*
X18332Y345000D01*
X21665Y348332D01*
Y354997D01*
X24997Y345000D02*
X28329D01*
X26663D01*
Y354997D01*
X24997Y353331D01*
X33327Y345000D02*
Y346666D01*
X34994D01*
Y345000D01*
X33327D01*
X41658Y353331D02*
X43324Y354997D01*
X46656D01*
X48323Y353331D01*
Y346666D01*
X46656Y345000D01*
X43324D01*
X41658Y346666D01*
Y353331D01*
X21665Y370831D02*
X19998Y372497D01*
X16666D01*
X15000Y370831D01*
Y369165D01*
X16666Y367498D01*
X19998D01*
X21665Y365832D01*
Y364166D01*
X19998Y362500D01*
X16666D01*
X15000Y364166D01*
X24997Y362500D02*
Y369165D01*
X26663D01*
X28329Y367498D01*
Y362500D01*
Y367498D01*
X29995Y369165D01*
X31661Y367498D01*
Y362500D01*
X36660Y369165D02*
X39992D01*
X41658Y367498D01*
Y362500D01*
X36660D01*
X34994Y364166D01*
X36660Y365832D01*
X41658D01*
X44990Y369165D02*
Y362500D01*
Y365832D01*
X46656Y367498D01*
X48323Y369165D01*
X49989D01*
X56653Y370831D02*
Y369165D01*
X54987D01*
X58319D01*
X56653D01*
Y364166D01*
X58319Y362500D01*
X69982Y370831D02*
X68316Y372497D01*
X64984D01*
X63318Y370831D01*
Y364166D01*
X64984Y362500D01*
X68316D01*
X69982Y364166D01*
X74981Y369165D02*
X78313D01*
X79979Y367498D01*
Y362500D01*
X74981D01*
X73314Y364166D01*
X74981Y365832D01*
X79979D01*
X83311Y362500D02*
Y369165D01*
X88310D01*
X89976Y367498D01*
Y362500D01*
X94974Y370831D02*
Y369165D01*
X93308D01*
X96640D01*
X94974D01*
Y364166D01*
X96640Y362500D01*
X103305D02*
X106637D01*
X108303Y364166D01*
Y367498D01*
X106637Y369165D01*
X103305D01*
X101639Y367498D01*
Y364166D01*
X103305Y362500D01*
X111636D02*
Y369165D01*
X116634D01*
X118300Y367498D01*
Y362500D01*
X131629Y372497D02*
Y362500D01*
X136628D01*
X138294Y364166D01*
Y370831D01*
X136628Y372497D01*
X131629D01*
X146624Y362500D02*
X143292D01*
X141626Y364166D01*
Y367498D01*
X143292Y369165D01*
X146624D01*
X148290Y367498D01*
Y365832D01*
X141626D01*
X151623Y369165D02*
X154955Y362500D01*
X158287Y369165D01*
X161619Y372497D02*
Y362500D01*
X166618D01*
X168284Y364166D01*
Y365832D01*
X166618Y367498D01*
X161619D01*
X166618D01*
X168284Y369165D01*
Y370831D01*
X166618Y372497D01*
X161619D01*
X173282Y362500D02*
X176615D01*
X178281Y364166D01*
Y367498D01*
X176615Y369165D01*
X173282D01*
X171616Y367498D01*
Y364166D01*
X173282Y362500D01*
X181613Y369165D02*
X188277Y362500D01*
X184945Y365832D01*
X188277Y369165D01*
X181613Y362500D01*
D47*
X291350Y369500D02*
G03*
X291350Y369500I-100J0D01*
G01*
D48*
X287250Y366500D02*
X319250D01*
Y334500D02*
Y366500D01*
X287250Y334500D02*
X319250D01*
X287250D02*
Y366500D01*
X385950Y473160D02*
X424050D01*
Y452840D02*
Y473160D01*
X385950Y452840D02*
X424050D01*
X385950D02*
Y473160D01*
X127340Y440950D02*
Y479050D01*
X147660D01*
Y440950D02*
Y479050D01*
X127340Y440950D02*
X147660D01*
X385950Y502840D02*
X424050D01*
X385950D02*
Y523160D01*
X424050D01*
Y502840D02*
Y523160D01*
X91600Y594760D02*
X129700D01*
Y574440D02*
Y594760D01*
X91600Y574440D02*
X129700D01*
X91600D02*
Y594760D01*
X147660Y488450D02*
Y526550D01*
X127340Y488450D02*
X147660D01*
X127340D02*
Y526550D01*
X147660D01*
X437450Y543160D02*
X475550D01*
Y522840D02*
Y543160D01*
X437450Y522840D02*
X475550D01*
X437450D02*
Y543160D01*
Y447840D02*
X475550D01*
X437450D02*
Y468160D01*
X475550D01*
Y447840D02*
Y468160D01*
X365160Y353450D02*
Y391550D01*
X344840Y353450D02*
X365160D01*
X344840D02*
Y391550D01*
X365160D01*
X344840Y298450D02*
Y336550D01*
X365160D01*
Y298450D02*
Y336550D01*
X344840Y298450D02*
X365160D01*
X323090Y243950D02*
Y282050D01*
X343410D01*
Y243950D02*
Y282050D01*
X323090Y243950D02*
X343410D01*
X390160Y243450D02*
Y281550D01*
X369840Y243450D02*
X390160D01*
X369840D02*
Y281550D01*
X390160D01*
X437450Y547840D02*
X475550D01*
X437450D02*
Y568160D01*
X475550D01*
Y547840D02*
Y568160D01*
X437450Y497840D02*
X475550D01*
X437450D02*
Y518160D01*
X475550D01*
Y497840D02*
Y518160D01*
X437450Y472840D02*
X475550D01*
X437450D02*
Y493160D01*
X475550D01*
Y472840D02*
Y493160D01*
X339840Y660950D02*
Y699050D01*
X360160D01*
Y660950D02*
Y699050D01*
X339840Y660950D02*
X360160D01*
X437450Y572840D02*
X475550D01*
X437450D02*
Y593160D01*
X475550D01*
Y572840D02*
Y593160D01*
X635000Y156050D02*
Y161050D01*
X465000D02*
X635000D01*
Y-8950D02*
Y156050D01*
X465000Y-8950D02*
Y161050D01*
Y-8950D02*
X635000D01*
X519950Y605000D02*
X524950D01*
X519950Y435000D02*
Y605000D01*
X524950D02*
X689950D01*
X519950Y435000D02*
X689950D01*
Y605000D01*
X604840Y170950D02*
Y209050D01*
X625160D01*
Y170950D02*
Y209050D01*
X604840Y170950D02*
X625160D01*
X479840D02*
Y209050D01*
X500160D01*
Y170950D02*
Y209050D01*
X479840Y170950D02*
X500160D01*
X504840D02*
Y209050D01*
X525160D01*
Y170950D02*
Y209050D01*
X504840Y170950D02*
X525160D01*
X554840D02*
Y209050D01*
X575160D01*
Y170950D02*
Y209050D01*
X554840Y170950D02*
X575160D01*
X529840D02*
Y209050D01*
X550160D01*
Y170950D02*
Y209050D01*
X529840Y170950D02*
X550160D01*
X600160D02*
Y209050D01*
X579840Y170950D02*
X600160D01*
X579840D02*
Y209050D01*
X600160D01*
D49*
X628000Y148050D02*
G03*
X628000Y148050I-2000J0D01*
G01*
X534950Y596000D02*
G03*
X534950Y596000I-2000J0D01*
G01*
X0Y800000D02*
X680000D01*
Y0D02*
Y800000D01*
X0Y0D02*
X680000D01*
X0D02*
Y800000D01*
D51*
X159332Y510664D02*
X157999Y511997D01*
X155333D01*
X154000Y510664D01*
Y509332D01*
X155333Y507999D01*
X157999D01*
X159332Y506666D01*
Y505333D01*
X157999Y504000D01*
X155333D01*
X154000Y505333D01*
X165996Y511997D02*
X163330D01*
X161997Y510664D01*
Y505333D01*
X163330Y504000D01*
X165996D01*
X167329Y505333D01*
Y510664D01*
X165996Y511997D01*
X169995D02*
Y504000D01*
X175326D01*
X177992D02*
Y509332D01*
X180658Y511997D01*
X183324Y509332D01*
Y504000D01*
Y507999D01*
X177992D01*
X185990Y504000D02*
Y511997D01*
X189988D01*
X191321Y510664D01*
Y507999D01*
X189988Y506666D01*
X185990D01*
X188655D02*
X191321Y504000D01*
X270000Y617997D02*
X275332Y610000D01*
Y617997D02*
X270000Y610000D01*
X277997D02*
X280663D01*
X279330D01*
Y617997D01*
X277997Y616665D01*
X275000Y602997D02*
Y596333D01*
X276333Y595000D01*
X278999D01*
X280332Y596333D01*
Y602997D01*
X288329D02*
X282997D01*
Y598999D01*
X285663Y600332D01*
X286996D01*
X288329Y598999D01*
Y596333D01*
X286996Y595000D01*
X284330D01*
X282997Y596333D01*
X440000Y207997D02*
Y201333D01*
X441333Y200000D01*
X443999D01*
X445332Y201333D01*
Y207997D01*
X451996Y200000D02*
Y207997D01*
X447997Y203999D01*
X453329D01*
X347500Y760497D02*
Y753833D01*
X348833Y752500D01*
X351499D01*
X352832Y753833D01*
Y760497D01*
X355497Y759165D02*
X356830Y760497D01*
X359496D01*
X360829Y759165D01*
Y757832D01*
X359496Y756499D01*
X358163D01*
X359496D01*
X360829Y755166D01*
Y753833D01*
X359496Y752500D01*
X356830D01*
X355497Y753833D01*
X442500Y280497D02*
Y273833D01*
X443833Y272500D01*
X446499D01*
X447832Y273833D01*
Y280497D01*
X455829Y272500D02*
X450497D01*
X455829Y277832D01*
Y279165D01*
X454496Y280497D01*
X451830D01*
X450497Y279165D01*
X272500Y365497D02*
Y358833D01*
X273833Y357500D01*
X276499D01*
X277832Y358833D01*
Y365497D01*
X280497Y357500D02*
X283163D01*
X281830D01*
Y365497D01*
X280497Y364165D01*
X322500Y517500D02*
Y525497D01*
X326499D01*
X327832Y524165D01*
Y521499D01*
X326499Y520166D01*
X322500D01*
X325166D02*
X327832Y517500D01*
X335829D02*
X330497D01*
X335829Y522832D01*
Y524165D01*
X334496Y525497D01*
X331830D01*
X330497Y524165D01*
X338495Y525497D02*
X343826D01*
Y524165D01*
X338495Y518833D01*
Y517500D01*
X399553Y530809D02*
X391556D01*
Y534808D01*
X392888Y536141D01*
X395554D01*
X396887Y534808D01*
Y530809D01*
Y533475D02*
X399553Y536141D01*
Y544138D02*
Y538806D01*
X394221Y544138D01*
X392888D01*
X391556Y542805D01*
Y540139D01*
X392888Y538806D01*
X391556Y552135D02*
X392888Y549470D01*
X395554Y546804D01*
X398220D01*
X399553Y548137D01*
Y550803D01*
X398220Y552135D01*
X396887D01*
X395554Y550803D01*
Y546804D01*
X410000Y425000D02*
Y432997D01*
X413999D01*
X415332Y431665D01*
Y428999D01*
X413999Y427666D01*
X410000D01*
X412666D02*
X415332Y425000D01*
X423329D02*
X417997D01*
X423329Y430332D01*
Y431665D01*
X421996Y432997D01*
X419330D01*
X417997Y431665D01*
X431326Y432997D02*
X425995D01*
Y428999D01*
X428661Y430332D01*
X429994D01*
X431326Y428999D01*
Y426333D01*
X429994Y425000D01*
X427328D01*
X425995Y426333D01*
X295000Y375000D02*
X287003D01*
Y378999D01*
X288335Y380332D01*
X291001D01*
X292334Y378999D01*
Y375000D01*
Y377666D02*
X295000Y380332D01*
Y388329D02*
Y382997D01*
X289668Y388329D01*
X288335D01*
X287003Y386996D01*
Y384330D01*
X288335Y382997D01*
X295000Y394994D02*
X287003D01*
X291001Y390995D01*
Y396326D01*
X282500Y375000D02*
X274503D01*
Y378999D01*
X275835Y380332D01*
X278501D01*
X279834Y378999D01*
Y375000D01*
Y377666D02*
X282500Y380332D01*
Y388329D02*
Y382997D01*
X277168Y388329D01*
X275835D01*
X274503Y386996D01*
Y384330D01*
X275835Y382997D01*
Y390995D02*
X274503Y392328D01*
Y394994D01*
X275835Y396326D01*
X277168D01*
X278501Y394994D01*
Y393661D01*
Y394994D01*
X279834Y396326D01*
X281167D01*
X282500Y394994D01*
Y392328D01*
X281167Y390995D01*
X285000Y45000D02*
X277003D01*
Y48999D01*
X278335Y50332D01*
X281001D01*
X282334Y48999D01*
Y45000D01*
Y47666D02*
X285000Y50332D01*
Y58329D02*
Y52997D01*
X279668Y58329D01*
X278335D01*
X277003Y56996D01*
Y54330D01*
X278335Y52997D01*
X285000Y66326D02*
Y60995D01*
X279668Y66326D01*
X278335D01*
X277003Y64994D01*
Y62328D01*
X278335Y60995D01*
X413000Y80000D02*
Y87997D01*
X416999D01*
X418332Y86664D01*
Y83999D01*
X416999Y82666D01*
X413000D01*
X415666D02*
X418332Y80000D01*
X426329D02*
X420997D01*
X426329Y85332D01*
Y86664D01*
X424996Y87997D01*
X422330D01*
X420997Y86664D01*
X428995Y80000D02*
X431661D01*
X430328D01*
Y87997D01*
X428995Y86664D01*
X334000Y78000D02*
Y85997D01*
X337999D01*
X339332Y84664D01*
Y81999D01*
X337999Y80666D01*
X334000D01*
X336666D02*
X339332Y78000D01*
X347329D02*
X341997D01*
X347329Y83332D01*
Y84664D01*
X345996Y85997D01*
X343330D01*
X341997Y84664D01*
X349995D02*
X351328Y85997D01*
X353994D01*
X355326Y84664D01*
Y79333D01*
X353994Y78000D01*
X351328D01*
X349995Y79333D01*
Y84664D01*
X390000Y52500D02*
Y60497D01*
X393999D01*
X395332Y59165D01*
Y56499D01*
X393999Y55166D01*
X390000D01*
X392666D02*
X395332Y52500D01*
X397997D02*
X400663D01*
X399330D01*
Y60497D01*
X397997Y59165D01*
X404662Y53833D02*
X405995Y52500D01*
X408661D01*
X409994Y53833D01*
Y59165D01*
X408661Y60497D01*
X405995D01*
X404662Y59165D01*
Y57832D01*
X405995Y56499D01*
X409994D01*
X425000Y360000D02*
Y367997D01*
X428999D01*
X430332Y366665D01*
Y363999D01*
X428999Y362666D01*
X425000D01*
X427666D02*
X430332Y360000D01*
X432997D02*
X435663D01*
X434330D01*
Y367997D01*
X432997Y366665D01*
X439662D02*
X440995Y367997D01*
X443661D01*
X444994Y366665D01*
Y365332D01*
X443661Y363999D01*
X444994Y362666D01*
Y361333D01*
X443661Y360000D01*
X440995D01*
X439662Y361333D01*
Y362666D01*
X440995Y363999D01*
X439662Y365332D01*
Y366665D01*
X440995Y363999D02*
X443661D01*
X490000Y350000D02*
X482003D01*
Y353999D01*
X483335Y355332D01*
X486001D01*
X487334Y353999D01*
Y350000D01*
Y352666D02*
X490000Y355332D01*
Y357997D02*
Y360663D01*
Y359330D01*
X482003D01*
X483335Y357997D01*
X482003Y364662D02*
Y369994D01*
X483335D01*
X488667Y364662D01*
X490000D01*
Y317500D02*
X482003D01*
Y321499D01*
X483335Y322832D01*
X486001D01*
X487334Y321499D01*
Y317500D01*
Y320166D02*
X490000Y322832D01*
Y325497D02*
Y328163D01*
Y326830D01*
X482003D01*
X483335Y325497D01*
X482003Y337494D02*
X483335Y334828D01*
X486001Y332162D01*
X488667D01*
X490000Y333495D01*
Y336161D01*
X488667Y337494D01*
X487334D01*
X486001Y336161D01*
Y332162D01*
X490000Y285000D02*
X482003D01*
Y288999D01*
X483335Y290332D01*
X486001D01*
X487334Y288999D01*
Y285000D01*
Y287666D02*
X490000Y290332D01*
Y292997D02*
Y295663D01*
Y294330D01*
X482003D01*
X483335Y292997D01*
X482003Y304993D02*
Y299662D01*
X486001D01*
X484668Y302328D01*
Y303661D01*
X486001Y304993D01*
X488667D01*
X490000Y303661D01*
Y300995D01*
X488667Y299662D01*
X490000Y252500D02*
X482003D01*
Y256499D01*
X483335Y257832D01*
X486001D01*
X487334Y256499D01*
Y252500D01*
Y255166D02*
X490000Y257832D01*
Y260497D02*
Y263163D01*
Y261830D01*
X482003D01*
X483335Y260497D01*
X490000Y271161D02*
X482003D01*
X486001Y267162D01*
Y272494D01*
X420000Y237500D02*
X412003D01*
Y241499D01*
X413335Y242832D01*
X416001D01*
X417334Y241499D01*
Y237500D01*
Y240166D02*
X420000Y242832D01*
Y245497D02*
Y248163D01*
Y246830D01*
X412003D01*
X413335Y245497D01*
Y252162D02*
X412003Y253495D01*
Y256161D01*
X413335Y257494D01*
X414668D01*
X416001Y256161D01*
Y254828D01*
Y256161D01*
X417334Y257494D01*
X418667D01*
X420000Y256161D01*
Y253495D01*
X418667Y252162D01*
X392500Y290000D02*
Y297997D01*
X396499D01*
X397832Y296665D01*
Y293999D01*
X396499Y292666D01*
X392500D01*
X395166D02*
X397832Y290000D01*
X400497D02*
X403163D01*
X401830D01*
Y297997D01*
X400497Y296665D01*
X412494Y290000D02*
X407162D01*
X412494Y295332D01*
Y296665D01*
X411161Y297997D01*
X408495D01*
X407162Y296665D01*
X435000Y237500D02*
X427003D01*
Y241499D01*
X428335Y242832D01*
X431001D01*
X432334Y241499D01*
Y237500D01*
Y240166D02*
X435000Y242832D01*
Y245497D02*
Y248163D01*
Y246830D01*
X427003D01*
X428335Y245497D01*
X435000Y252162D02*
Y254828D01*
Y253495D01*
X427003D01*
X428335Y252162D01*
X597500Y245000D02*
Y252997D01*
X601499D01*
X602832Y251665D01*
Y248999D01*
X601499Y247666D01*
X597500D01*
X600166D02*
X602832Y245000D01*
X605497D02*
X608163D01*
X606830D01*
Y252997D01*
X605497Y251665D01*
X612162D02*
X613495Y252997D01*
X616161D01*
X617494Y251665D01*
Y246333D01*
X616161Y245000D01*
X613495D01*
X612162Y246333D01*
Y251665D01*
X580000Y272500D02*
Y280497D01*
X583999D01*
X585332Y279165D01*
Y276499D01*
X583999Y275166D01*
X580000D01*
X582666D02*
X585332Y272500D01*
X587997Y273833D02*
X589330Y272500D01*
X591996D01*
X593329Y273833D01*
Y279165D01*
X591996Y280497D01*
X589330D01*
X587997Y279165D01*
Y277832D01*
X589330Y276499D01*
X593329D01*
X580000Y287500D02*
Y295497D01*
X583999D01*
X585332Y294165D01*
Y291499D01*
X583999Y290166D01*
X580000D01*
X582666D02*
X585332Y287500D01*
X587997Y294165D02*
X589330Y295497D01*
X591996D01*
X593329Y294165D01*
Y292832D01*
X591996Y291499D01*
X593329Y290166D01*
Y288833D01*
X591996Y287500D01*
X589330D01*
X587997Y288833D01*
Y290166D01*
X589330Y291499D01*
X587997Y292832D01*
Y294165D01*
X589330Y291499D02*
X591996D01*
X580000Y302500D02*
Y310497D01*
X583999D01*
X585332Y309165D01*
Y306499D01*
X583999Y305166D01*
X580000D01*
X582666D02*
X585332Y302500D01*
X587997Y310497D02*
X593329D01*
Y309165D01*
X587997Y303833D01*
Y302500D01*
X580000Y317500D02*
Y325497D01*
X583999D01*
X585332Y324165D01*
Y321499D01*
X583999Y320166D01*
X580000D01*
X582666D02*
X585332Y317500D01*
X593329Y325497D02*
X590663Y324165D01*
X587997Y321499D01*
Y318833D01*
X589330Y317500D01*
X591996D01*
X593329Y318833D01*
Y320166D01*
X591996Y321499D01*
X587997D01*
X332500Y305000D02*
X324503D01*
Y308999D01*
X325835Y310332D01*
X328501D01*
X329834Y308999D01*
Y305000D01*
Y307666D02*
X332500Y310332D01*
X324503Y318329D02*
Y312997D01*
X328501D01*
X327168Y315663D01*
Y316996D01*
X328501Y318329D01*
X331167D01*
X332500Y316996D01*
Y314330D01*
X331167Y312997D01*
X580000Y332500D02*
Y340497D01*
X583999D01*
X585332Y339165D01*
Y336499D01*
X583999Y335166D01*
X580000D01*
X582666D02*
X585332Y332500D01*
X591996D02*
Y340497D01*
X587997Y336499D01*
X593329D01*
X580000Y347500D02*
Y355497D01*
X583999D01*
X585332Y354165D01*
Y351499D01*
X583999Y350166D01*
X580000D01*
X582666D02*
X585332Y347500D01*
X587997Y354165D02*
X589330Y355497D01*
X591996D01*
X593329Y354165D01*
Y352832D01*
X591996Y351499D01*
X590663D01*
X591996D01*
X593329Y350166D01*
Y348833D01*
X591996Y347500D01*
X589330D01*
X587997Y348833D01*
X297500Y307500D02*
Y315497D01*
X301499D01*
X302832Y314165D01*
Y311499D01*
X301499Y310166D01*
X297500D01*
X300166D02*
X302832Y307500D01*
X310829D02*
X305497D01*
X310829Y312832D01*
Y314165D01*
X309496Y315497D01*
X306830D01*
X305497Y314165D01*
X580000Y362500D02*
Y370497D01*
X583999D01*
X585332Y369165D01*
Y366499D01*
X583999Y365166D01*
X580000D01*
X582666D02*
X585332Y362500D01*
X587997D02*
X590663D01*
X589330D01*
Y370497D01*
X587997Y369165D01*
X20000Y625000D02*
Y632997D01*
X23999D01*
X25332Y631665D01*
Y628999D01*
X23999Y627666D01*
X20000D01*
X33329Y632997D02*
X30663Y631665D01*
X27997Y628999D01*
Y626333D01*
X29330Y625000D01*
X31996D01*
X33329Y626333D01*
Y627666D01*
X31996Y628999D01*
X27997D01*
X20000Y565000D02*
Y572997D01*
X23999D01*
X25332Y571665D01*
Y568999D01*
X23999Y567666D01*
X20000D01*
X33329Y572997D02*
X27997D01*
Y568999D01*
X30663Y570332D01*
X31996D01*
X33329Y568999D01*
Y566333D01*
X31996Y565000D01*
X29330D01*
X27997Y566333D01*
X640000Y147500D02*
Y155497D01*
X643999D01*
X645332Y154164D01*
Y151499D01*
X643999Y150166D01*
X640000D01*
X651996Y147500D02*
Y155497D01*
X647997Y151499D01*
X653329D01*
X520000Y610000D02*
Y617997D01*
X523999D01*
X525332Y616665D01*
Y613999D01*
X523999Y612666D01*
X520000D01*
X527997Y616665D02*
X529330Y617997D01*
X531996D01*
X533329Y616665D01*
Y615332D01*
X531996Y613999D01*
X530663D01*
X531996D01*
X533329Y612666D01*
Y611333D01*
X531996Y610000D01*
X529330D01*
X527997Y611333D01*
X235000Y465000D02*
Y472997D01*
X238999D01*
X240332Y471665D01*
Y468999D01*
X238999Y467666D01*
X235000D01*
X248329Y465000D02*
X242997D01*
X248329Y470332D01*
Y471665D01*
X246996Y472997D01*
X244330D01*
X242997Y471665D01*
X265000Y10000D02*
Y17997D01*
X268999D01*
X270332Y16665D01*
Y13999D01*
X268999Y12666D01*
X265000D01*
X272997Y10000D02*
X275663D01*
X274330D01*
Y17997D01*
X272997Y16665D01*
X630000Y700000D02*
Y707997D01*
X632666Y705332D01*
X635332Y707997D01*
Y700000D01*
X637997Y706665D02*
X639330Y707997D01*
X641996D01*
X643329Y706665D01*
Y705332D01*
X641996Y703999D01*
X640663D01*
X641996D01*
X643329Y702666D01*
Y701333D01*
X641996Y700000D01*
X639330D01*
X637997Y701333D01*
X50000Y682000D02*
Y689997D01*
X52666Y687332D01*
X55332Y689997D01*
Y682000D01*
X63329D02*
X57997D01*
X63329Y687332D01*
Y688664D01*
X61996Y689997D01*
X59330D01*
X57997Y688664D01*
X657500Y92500D02*
Y100497D01*
X660166Y97832D01*
X662832Y100497D01*
Y92500D01*
X665497D02*
X668163D01*
X666830D01*
Y100497D01*
X665497Y99164D01*
X157003Y625000D02*
X165000D01*
Y630332D01*
X157003Y638329D02*
X158336Y635663D01*
X161001Y632997D01*
X163667D01*
X165000Y634330D01*
Y636996D01*
X163667Y638329D01*
X162334D01*
X161001Y636996D01*
Y632997D01*
X184000Y619997D02*
Y612000D01*
X189332D01*
X197329Y619997D02*
X191997D01*
Y615999D01*
X194663Y617332D01*
X195996D01*
X197329Y615999D01*
Y613333D01*
X195996Y612000D01*
X193330D01*
X191997Y613333D01*
X199503Y660000D02*
X207500D01*
Y665332D01*
Y671996D02*
X199503D01*
X203501Y667997D01*
Y673329D01*
X260000Y167997D02*
Y160000D01*
X265332D01*
X267997Y166665D02*
X269330Y167997D01*
X271996D01*
X273329Y166665D01*
Y165332D01*
X271996Y163999D01*
X270663D01*
X271996D01*
X273329Y162666D01*
Y161333D01*
X271996Y160000D01*
X269330D01*
X267997Y161333D01*
X242500Y180497D02*
Y172500D01*
X247832D01*
X255829D02*
X250497D01*
X255829Y177832D01*
Y179165D01*
X254496Y180497D01*
X251830D01*
X250497Y179165D01*
X262500Y207997D02*
Y200000D01*
X267832D01*
X270497D02*
X273163D01*
X271830D01*
Y207997D01*
X270497Y206665D01*
X45332Y407997D02*
X42666D01*
X43999D01*
Y401333D01*
X42666Y400000D01*
X41333D01*
X40000Y401333D01*
X51996Y400000D02*
Y407997D01*
X47997Y403999D01*
X53329D01*
X125332Y690497D02*
X122666D01*
X123999D01*
Y683833D01*
X122666Y682500D01*
X121333D01*
X120000Y683833D01*
X127997Y689165D02*
X129330Y690497D01*
X131996D01*
X133329Y689165D01*
Y687832D01*
X131996Y686499D01*
X130663D01*
X131996D01*
X133329Y685166D01*
Y683833D01*
X131996Y682500D01*
X129330D01*
X127997Y683833D01*
X225332Y128997D02*
X222666D01*
X223999D01*
Y122333D01*
X222666Y121000D01*
X221333D01*
X220000Y122333D01*
X233329Y121000D02*
X227997D01*
X233329Y126332D01*
Y127664D01*
X231996Y128997D01*
X229330D01*
X227997Y127664D01*
X560332Y725997D02*
X557666D01*
X558999D01*
Y719333D01*
X557666Y718000D01*
X556333D01*
X555000Y719333D01*
X562997Y718000D02*
X565663D01*
X564330D01*
Y725997D01*
X562997Y724665D01*
X150332Y788997D02*
X145000D01*
Y781000D01*
X150332D01*
X145000Y784999D02*
X147666D01*
X158329Y781000D02*
X152997D01*
X158329Y786332D01*
Y787664D01*
X156996Y788997D01*
X154330D01*
X152997Y787664D01*
X138332Y190997D02*
X133000D01*
Y183000D01*
X138332D01*
X133000Y186999D02*
X135666D01*
X140997Y183000D02*
X143663D01*
X142330D01*
Y190997D01*
X140997Y189664D01*
X655000Y265497D02*
Y257500D01*
X658999D01*
X660332Y258833D01*
Y264165D01*
X658999Y265497D01*
X655000D01*
X668329Y264165D02*
X666996Y265497D01*
X664330D01*
X662997Y264165D01*
Y262832D01*
X664330Y261499D01*
X666996D01*
X668329Y260166D01*
Y258833D01*
X666996Y257500D01*
X664330D01*
X662997Y258833D01*
X670995Y264165D02*
X672328Y265497D01*
X674994D01*
X676327Y264165D01*
Y262832D01*
X674994Y261499D01*
X676327Y260166D01*
Y258833D01*
X674994Y257500D01*
X672328D01*
X670995Y258833D01*
Y260166D01*
X672328Y261499D01*
X670995Y262832D01*
Y264165D01*
X672328Y261499D02*
X674994D01*
X655000Y280497D02*
Y272500D01*
X658999D01*
X660332Y273833D01*
Y279165D01*
X658999Y280497D01*
X655000D01*
X668329Y279165D02*
X666996Y280497D01*
X664330D01*
X662997Y279165D01*
Y277832D01*
X664330Y276499D01*
X666996D01*
X668329Y275166D01*
Y273833D01*
X666996Y272500D01*
X664330D01*
X662997Y273833D01*
X670995Y280497D02*
X676327D01*
Y279165D01*
X670995Y273833D01*
Y272500D01*
X655000Y295497D02*
Y287500D01*
X658999D01*
X660332Y288833D01*
Y294165D01*
X658999Y295497D01*
X655000D01*
X668329Y294165D02*
X666996Y295497D01*
X664330D01*
X662997Y294165D01*
Y292832D01*
X664330Y291499D01*
X666996D01*
X668329Y290166D01*
Y288833D01*
X666996Y287500D01*
X664330D01*
X662997Y288833D01*
X676327Y295497D02*
X673661Y294165D01*
X670995Y291499D01*
Y288833D01*
X672328Y287500D01*
X674994D01*
X676327Y288833D01*
Y290166D01*
X674994Y291499D01*
X670995D01*
X655000Y310497D02*
Y302500D01*
X658999D01*
X660332Y303833D01*
Y309165D01*
X658999Y310497D01*
X655000D01*
X668329Y309165D02*
X666996Y310497D01*
X664330D01*
X662997Y309165D01*
Y307832D01*
X664330Y306499D01*
X666996D01*
X668329Y305166D01*
Y303833D01*
X666996Y302500D01*
X664330D01*
X662997Y303833D01*
X676327Y310497D02*
X670995D01*
Y306499D01*
X673661Y307832D01*
X674994D01*
X676327Y306499D01*
Y303833D01*
X674994Y302500D01*
X672328D01*
X670995Y303833D01*
X655000Y325497D02*
Y317500D01*
X658999D01*
X660332Y318833D01*
Y324165D01*
X658999Y325497D01*
X655000D01*
X668329Y324165D02*
X666996Y325497D01*
X664330D01*
X662997Y324165D01*
Y322832D01*
X664330Y321499D01*
X666996D01*
X668329Y320166D01*
Y318833D01*
X666996Y317500D01*
X664330D01*
X662997Y318833D01*
X674994Y317500D02*
Y325497D01*
X670995Y321499D01*
X676327D01*
X655000Y340497D02*
Y332500D01*
X658999D01*
X660332Y333833D01*
Y339165D01*
X658999Y340497D01*
X655000D01*
X668329Y339165D02*
X666996Y340497D01*
X664330D01*
X662997Y339165D01*
Y337832D01*
X664330Y336499D01*
X666996D01*
X668329Y335166D01*
Y333833D01*
X666996Y332500D01*
X664330D01*
X662997Y333833D01*
X670995Y339165D02*
X672328Y340497D01*
X674994D01*
X676327Y339165D01*
Y337832D01*
X674994Y336499D01*
X673661D01*
X674994D01*
X676327Y335166D01*
Y333833D01*
X674994Y332500D01*
X672328D01*
X670995Y333833D01*
X655000Y355497D02*
Y347500D01*
X658999D01*
X660332Y348833D01*
Y354165D01*
X658999Y355497D01*
X655000D01*
X668329Y354165D02*
X666996Y355497D01*
X664330D01*
X662997Y354165D01*
Y352832D01*
X664330Y351499D01*
X666996D01*
X668329Y350166D01*
Y348833D01*
X666996Y347500D01*
X664330D01*
X662997Y348833D01*
X676327Y347500D02*
X670995D01*
X676327Y352832D01*
Y354165D01*
X674994Y355497D01*
X672328D01*
X670995Y354165D01*
X655000Y370497D02*
Y362500D01*
X658999D01*
X660332Y363833D01*
Y369165D01*
X658999Y370497D01*
X655000D01*
X668329Y369165D02*
X666996Y370497D01*
X664330D01*
X662997Y369165D01*
Y367832D01*
X664330Y366499D01*
X666996D01*
X668329Y365166D01*
Y363833D01*
X666996Y362500D01*
X664330D01*
X662997Y363833D01*
X670995Y362500D02*
X673661D01*
X672328D01*
Y370497D01*
X670995Y369165D01*
X72500Y420497D02*
Y412500D01*
X76499D01*
X77832Y413833D01*
Y419165D01*
X76499Y420497D01*
X72500D01*
X80497Y419165D02*
X81830Y420497D01*
X84496D01*
X85829Y419165D01*
Y417832D01*
X84496Y416499D01*
X83163D01*
X84496D01*
X85829Y415166D01*
Y413833D01*
X84496Y412500D01*
X81830D01*
X80497Y413833D01*
X72500Y547997D02*
Y540000D01*
X76499D01*
X77832Y541333D01*
Y546665D01*
X76499Y547997D01*
X72500D01*
X85829Y540000D02*
X80497D01*
X85829Y545332D01*
Y546665D01*
X84496Y547997D01*
X81830D01*
X80497Y546665D01*
X177832Y669165D02*
X176499Y670497D01*
X173833D01*
X172500Y669165D01*
Y663833D01*
X173833Y662500D01*
X176499D01*
X177832Y663833D01*
X180497Y669165D02*
X181830Y670497D01*
X184496D01*
X185829Y669165D01*
Y667832D01*
X184496Y666499D01*
X183163D01*
X184496D01*
X185829Y665166D01*
Y663833D01*
X184496Y662500D01*
X181830D01*
X180497Y663833D01*
X188495Y669165D02*
X189828Y670497D01*
X192494D01*
X193827Y669165D01*
Y667832D01*
X192494Y666499D01*
X193827Y665166D01*
Y663833D01*
X192494Y662500D01*
X189828D01*
X188495Y663833D01*
Y665166D01*
X189828Y666499D01*
X188495Y667832D01*
Y669165D01*
X189828Y666499D02*
X192494D01*
X228335Y637832D02*
X227003Y636499D01*
Y633833D01*
X228335Y632500D01*
X233667D01*
X235000Y633833D01*
Y636499D01*
X233667Y637832D01*
X228335Y640497D02*
X227003Y641830D01*
Y644496D01*
X228335Y645829D01*
X229668D01*
X231001Y644496D01*
Y643163D01*
Y644496D01*
X232334Y645829D01*
X233667D01*
X235000Y644496D01*
Y641830D01*
X233667Y640497D01*
X227003Y648495D02*
Y653827D01*
X228335D01*
X233667Y648495D01*
X235000D01*
X180332Y684165D02*
X178999Y685497D01*
X176333D01*
X175000Y684165D01*
Y678833D01*
X176333Y677500D01*
X178999D01*
X180332Y678833D01*
X182997Y684165D02*
X184330Y685497D01*
X186996D01*
X188329Y684165D01*
Y682832D01*
X186996Y681499D01*
X185663D01*
X186996D01*
X188329Y680166D01*
Y678833D01*
X186996Y677500D01*
X184330D01*
X182997Y678833D01*
X196327Y685497D02*
X193661Y684165D01*
X190995Y681499D01*
Y678833D01*
X192328Y677500D01*
X194994D01*
X196327Y678833D01*
Y680166D01*
X194994Y681499D01*
X190995D01*
X209332Y618665D02*
X207999Y619997D01*
X205333D01*
X204000Y618665D01*
Y613333D01*
X205333Y612000D01*
X207999D01*
X209332Y613333D01*
X211997Y618665D02*
X213330Y619997D01*
X215996D01*
X217329Y618665D01*
Y617332D01*
X215996Y615999D01*
X214663D01*
X215996D01*
X217329Y614666D01*
Y613333D01*
X215996Y612000D01*
X213330D01*
X211997Y613333D01*
X225326Y619997D02*
X219995D01*
Y615999D01*
X222661Y617332D01*
X223994D01*
X225326Y615999D01*
Y613333D01*
X223994Y612000D01*
X221328D01*
X219995Y613333D01*
X327832Y511665D02*
X326499Y512997D01*
X323833D01*
X322500Y511665D01*
Y506333D01*
X323833Y505000D01*
X326499D01*
X327832Y506333D01*
X330497Y511665D02*
X331830Y512997D01*
X334496D01*
X335829Y511665D01*
Y510332D01*
X334496Y508999D01*
X333163D01*
X334496D01*
X335829Y507666D01*
Y506333D01*
X334496Y505000D01*
X331830D01*
X330497Y506333D01*
X343826Y505000D02*
X338495D01*
X343826Y510332D01*
Y511665D01*
X342494Y512997D01*
X339828D01*
X338495Y511665D01*
X285835Y637832D02*
X284503Y636499D01*
Y633833D01*
X285835Y632500D01*
X291167D01*
X292500Y633833D01*
Y636499D01*
X291167Y637832D01*
X285835Y640497D02*
X284503Y641830D01*
Y644496D01*
X285835Y645829D01*
X287168D01*
X288501Y644496D01*
Y643163D01*
Y644496D01*
X289834Y645829D01*
X291167D01*
X292500Y644496D01*
Y641830D01*
X291167Y640497D01*
X292500Y648495D02*
Y651161D01*
Y649828D01*
X284503D01*
X285835Y648495D01*
X262832Y671665D02*
X261499Y672997D01*
X258833D01*
X257500Y671665D01*
Y666333D01*
X258833Y665000D01*
X261499D01*
X262832Y666333D01*
X265497Y671665D02*
X266830Y672997D01*
X269496D01*
X270829Y671665D01*
Y670332D01*
X269496Y668999D01*
X268163D01*
X269496D01*
X270829Y667666D01*
Y666333D01*
X269496Y665000D01*
X266830D01*
X265497Y666333D01*
X273495Y671665D02*
X274828Y672997D01*
X277494D01*
X278826Y671665D01*
Y666333D01*
X277494Y665000D01*
X274828D01*
X273495Y666333D01*
Y671665D01*
X365332Y559165D02*
X363999Y560497D01*
X361333D01*
X360000Y559165D01*
Y553833D01*
X361333Y552500D01*
X363999D01*
X365332Y553833D01*
X373329Y552500D02*
X367997D01*
X373329Y557832D01*
Y559165D01*
X371996Y560497D01*
X369330D01*
X367997Y559165D01*
X375995Y553833D02*
X377328Y552500D01*
X379994D01*
X381326Y553833D01*
Y559165D01*
X379994Y560497D01*
X377328D01*
X375995Y559165D01*
Y557832D01*
X377328Y556499D01*
X381326D01*
X365332Y571665D02*
X363999Y572997D01*
X361333D01*
X360000Y571665D01*
Y566333D01*
X361333Y565000D01*
X363999D01*
X365332Y566333D01*
X373329Y565000D02*
X367997D01*
X373329Y570332D01*
Y571665D01*
X371996Y572997D01*
X369330D01*
X367997Y571665D01*
X375995D02*
X377328Y572997D01*
X379994D01*
X381326Y571665D01*
Y570332D01*
X379994Y568999D01*
X381326Y567666D01*
Y566333D01*
X379994Y565000D01*
X377328D01*
X375995Y566333D01*
Y567666D01*
X377328Y568999D01*
X375995Y570332D01*
Y571665D01*
X377328Y568999D02*
X379994D01*
X365332Y584165D02*
X363999Y585497D01*
X361333D01*
X360000Y584165D01*
Y578833D01*
X361333Y577500D01*
X363999D01*
X365332Y578833D01*
X373329Y577500D02*
X367997D01*
X373329Y582832D01*
Y584165D01*
X371996Y585497D01*
X369330D01*
X367997Y584165D01*
X375995Y585497D02*
X381326D01*
Y584165D01*
X375995Y578833D01*
Y577500D01*
X365332Y596665D02*
X363999Y597997D01*
X361333D01*
X360000Y596665D01*
Y591333D01*
X361333Y590000D01*
X363999D01*
X365332Y591333D01*
X373329Y590000D02*
X367997D01*
X373329Y595332D01*
Y596665D01*
X371996Y597997D01*
X369330D01*
X367997Y596665D01*
X381326Y597997D02*
X378661Y596665D01*
X375995Y593999D01*
Y591333D01*
X377328Y590000D01*
X379994D01*
X381326Y591333D01*
Y592666D01*
X379994Y593999D01*
X375995D01*
X365332Y609165D02*
X363999Y610497D01*
X361333D01*
X360000Y609165D01*
Y603833D01*
X361333Y602500D01*
X363999D01*
X365332Y603833D01*
X373329Y602500D02*
X367997D01*
X373329Y607832D01*
Y609165D01*
X371996Y610497D01*
X369330D01*
X367997Y609165D01*
X381326Y610497D02*
X375995D01*
Y606499D01*
X378661Y607832D01*
X379994D01*
X381326Y606499D01*
Y603833D01*
X379994Y602500D01*
X377328D01*
X375995Y603833D01*
X365332Y621665D02*
X363999Y622997D01*
X361333D01*
X360000Y621665D01*
Y616333D01*
X361333Y615000D01*
X363999D01*
X365332Y616333D01*
X373329Y615000D02*
X367997D01*
X373329Y620332D01*
Y621665D01*
X371996Y622997D01*
X369330D01*
X367997Y621665D01*
X379994Y615000D02*
Y622997D01*
X375995Y618999D01*
X381326D01*
X287832Y141664D02*
X286499Y142997D01*
X283833D01*
X282500Y141664D01*
Y136333D01*
X283833Y135000D01*
X286499D01*
X287832Y136333D01*
X295829Y135000D02*
X290497D01*
X295829Y140332D01*
Y141664D01*
X294496Y142997D01*
X291830D01*
X290497Y141664D01*
X298495D02*
X299828Y142997D01*
X302494D01*
X303826Y141664D01*
Y140332D01*
X302494Y138999D01*
X301161D01*
X302494D01*
X303826Y137666D01*
Y136333D01*
X302494Y135000D01*
X299828D01*
X298495Y136333D01*
X296665Y219668D02*
X297997Y221001D01*
Y223667D01*
X296665Y225000D01*
X291333D01*
X290000Y223667D01*
Y221001D01*
X291333Y219668D01*
X290000Y211671D02*
Y217003D01*
X295332Y211671D01*
X296665D01*
X297997Y213004D01*
Y215670D01*
X296665Y217003D01*
X290000Y203674D02*
Y209005D01*
X295332Y203674D01*
X296665D01*
X297997Y205006D01*
Y207672D01*
X296665Y209005D01*
X248335Y215332D02*
X247003Y213999D01*
Y211333D01*
X248335Y210000D01*
X253667D01*
X255000Y211333D01*
Y213999D01*
X253667Y215332D01*
X255000Y223329D02*
Y217997D01*
X249668Y223329D01*
X248335D01*
X247003Y221996D01*
Y219330D01*
X248335Y217997D01*
X255000Y225995D02*
Y228661D01*
Y227328D01*
X247003D01*
X248335Y225995D01*
X267832Y221665D02*
X266499Y222997D01*
X263833D01*
X262500Y221665D01*
Y216333D01*
X263833Y215000D01*
X266499D01*
X267832Y216333D01*
X275829Y215000D02*
X270497D01*
X275829Y220332D01*
Y221665D01*
X274496Y222997D01*
X271830D01*
X270497Y221665D01*
X278495D02*
X279828Y222997D01*
X282494D01*
X283827Y221665D01*
Y216333D01*
X282494Y215000D01*
X279828D01*
X278495Y216333D01*
Y221665D01*
X278335Y112832D02*
X277003Y111499D01*
Y108833D01*
X278335Y107500D01*
X283667D01*
X285000Y108833D01*
Y111499D01*
X283667Y112832D01*
X285000Y115497D02*
Y118163D01*
Y116830D01*
X277003D01*
X278335Y115497D01*
X285000Y127493D02*
Y122162D01*
X279668Y127493D01*
X278335D01*
X277003Y126161D01*
Y123495D01*
X278335Y122162D01*
X293335Y50332D02*
X292003Y48999D01*
Y46333D01*
X293335Y45000D01*
X298667D01*
X300000Y46333D01*
Y48999D01*
X298667Y50332D01*
X300000Y52997D02*
Y55663D01*
Y54330D01*
X292003D01*
X293335Y52997D01*
Y59662D02*
X292003Y60995D01*
Y63661D01*
X293335Y64994D01*
X298667D01*
X300000Y63661D01*
Y60995D01*
X298667Y59662D01*
X293335D01*
X385332Y354165D02*
X383999Y355497D01*
X381333D01*
X380000Y354165D01*
Y348833D01*
X381333Y347500D01*
X383999D01*
X385332Y348833D01*
X387997D02*
X389330Y347500D01*
X391996D01*
X393329Y348833D01*
Y354165D01*
X391996Y355497D01*
X389330D01*
X387997Y354165D01*
Y352832D01*
X389330Y351499D01*
X393329D01*
X385332Y369165D02*
X383999Y370497D01*
X381333D01*
X380000Y369165D01*
Y363833D01*
X381333Y362500D01*
X383999D01*
X385332Y363833D01*
X387997Y369165D02*
X389330Y370497D01*
X391996D01*
X393329Y369165D01*
Y367832D01*
X391996Y366499D01*
X393329Y365166D01*
Y363833D01*
X391996Y362500D01*
X389330D01*
X387997Y363833D01*
Y365166D01*
X389330Y366499D01*
X387997Y367832D01*
Y369165D01*
X389330Y366499D02*
X391996D01*
X470835Y355332D02*
X469503Y353999D01*
Y351333D01*
X470835Y350000D01*
X476167D01*
X477500Y351333D01*
Y353999D01*
X476167Y355332D01*
X469503Y357997D02*
Y363329D01*
X470835D01*
X476167Y357997D01*
X477500D01*
X470835Y322832D02*
X469503Y321499D01*
Y318833D01*
X470835Y317500D01*
X476167D01*
X477500Y318833D01*
Y321499D01*
X476167Y322832D01*
X469503Y330829D02*
X470835Y328163D01*
X473501Y325497D01*
X476167D01*
X477500Y326830D01*
Y329496D01*
X476167Y330829D01*
X474834D01*
X473501Y329496D01*
Y325497D01*
X470835Y290332D02*
X469503Y288999D01*
Y286333D01*
X470835Y285000D01*
X476167D01*
X477500Y286333D01*
Y288999D01*
X476167Y290332D01*
X469503Y298329D02*
Y292997D01*
X473501D01*
X472168Y295663D01*
Y296996D01*
X473501Y298329D01*
X476167D01*
X477500Y296996D01*
Y294330D01*
X476167Y292997D01*
X470835Y257832D02*
X469503Y256499D01*
Y253833D01*
X470835Y252500D01*
X476167D01*
X477500Y253833D01*
Y256499D01*
X476167Y257832D01*
X477500Y264496D02*
X469503D01*
X473501Y260497D01*
Y265829D01*
X390835Y327832D02*
X389503Y326499D01*
Y323833D01*
X390835Y322500D01*
X396167D01*
X397500Y323833D01*
Y326499D01*
X396167Y327832D01*
X390835Y330497D02*
X389503Y331830D01*
Y334496D01*
X390835Y335829D01*
X392168D01*
X393501Y334496D01*
Y333163D01*
Y334496D01*
X394834Y335829D01*
X396167D01*
X397500Y334496D01*
Y331830D01*
X396167Y330497D01*
X385332Y384165D02*
X383999Y385497D01*
X381333D01*
X380000Y384165D01*
Y378833D01*
X381333Y377500D01*
X383999D01*
X385332Y378833D01*
X393329Y377500D02*
X387997D01*
X393329Y382832D01*
Y384165D01*
X391996Y385497D01*
X389330D01*
X387997Y384165D01*
X387832Y399165D02*
X386499Y400497D01*
X383833D01*
X382500Y399165D01*
Y393833D01*
X383833Y392500D01*
X386499D01*
X387832Y393833D01*
X390497Y392500D02*
X393163D01*
X391830D01*
Y400497D01*
X390497Y399165D01*
X352500Y460497D02*
Y452500D01*
X356499D01*
X357832Y453833D01*
Y455166D01*
X356499Y456499D01*
X352500D01*
X356499D01*
X357832Y457832D01*
Y459165D01*
X356499Y460497D01*
X352500D01*
X365829D02*
X363163Y459165D01*
X360497Y456499D01*
Y453833D01*
X361830Y452500D01*
X364496D01*
X365829Y453833D01*
Y455166D01*
X364496Y456499D01*
X360497D01*
X250000Y102997D02*
Y95000D01*
X253999D01*
X255332Y96333D01*
Y97666D01*
X253999Y98999D01*
X250000D01*
X253999D01*
X255332Y100332D01*
Y101664D01*
X253999Y102997D01*
X250000D01*
X263329D02*
X257997D01*
Y98999D01*
X260663Y100332D01*
X261996D01*
X263329Y98999D01*
Y96333D01*
X261996Y95000D01*
X259330D01*
X257997Y96333D01*
X567003Y352500D02*
X575000D01*
Y356499D01*
X573667Y357832D01*
X572334D01*
X571001Y356499D01*
Y352500D01*
Y356499D01*
X569668Y357832D01*
X568335D01*
X567003Y356499D01*
Y352500D01*
X575000Y364496D02*
X567003D01*
X571001Y360497D01*
Y365829D01*
X567003Y320000D02*
X575000D01*
Y323999D01*
X573667Y325332D01*
X572334D01*
X571001Y323999D01*
Y320000D01*
Y323999D01*
X569668Y325332D01*
X568335D01*
X567003Y323999D01*
Y320000D01*
X568335Y327997D02*
X567003Y329330D01*
Y331996D01*
X568335Y333329D01*
X569668D01*
X571001Y331996D01*
Y330663D01*
Y331996D01*
X572334Y333329D01*
X573667D01*
X575000Y331996D01*
Y329330D01*
X573667Y327997D01*
X567003Y290000D02*
X575000D01*
Y293999D01*
X573667Y295332D01*
X572334D01*
X571001Y293999D01*
Y290000D01*
Y293999D01*
X569668Y295332D01*
X568335D01*
X567003Y293999D01*
Y290000D01*
X575000Y303329D02*
Y297997D01*
X569668Y303329D01*
X568335D01*
X567003Y301996D01*
Y299330D01*
X568335Y297997D01*
X567003Y257500D02*
X575000D01*
Y261499D01*
X573667Y262832D01*
X572334D01*
X571001Y261499D01*
Y257500D01*
Y261499D01*
X569668Y262832D01*
X568335D01*
X567003Y261499D01*
Y257500D01*
X575000Y265497D02*
Y268163D01*
Y266830D01*
X567003D01*
X568335Y265497D01*
X232832Y699165D02*
X231499Y700497D01*
X228833D01*
X227500Y699165D01*
Y693833D01*
X228833Y692500D01*
X231499D01*
X232832Y693833D01*
X239496Y692500D02*
Y700497D01*
X235497Y696499D01*
X240829D01*
X248827Y700497D02*
X246161Y699165D01*
X243495Y696499D01*
Y693833D01*
X244828Y692500D01*
X247494D01*
X248827Y693833D01*
Y695166D01*
X247494Y696499D01*
X243495D01*
X247500Y37500D02*
Y45497D01*
X251499D01*
X252832Y44165D01*
Y41499D01*
X251499Y40166D01*
X247500D01*
X250166D02*
X252832Y37500D01*
X260829Y44165D02*
X259496Y45497D01*
X256830D01*
X255497Y44165D01*
Y42832D01*
X256830Y41499D01*
X259496D01*
X260829Y40166D01*
Y38833D01*
X259496Y37500D01*
X256830D01*
X255497Y38833D01*
X263495Y45497D02*
X268827D01*
X266161D01*
Y37500D01*
X352500Y440000D02*
Y447997D01*
X356499D01*
X357832Y446665D01*
Y443999D01*
X356499Y442666D01*
X352500D01*
X355166D02*
X357832Y440000D01*
X365829Y446665D02*
X364496Y447997D01*
X361830D01*
X360497Y446665D01*
Y445332D01*
X361830Y443999D01*
X364496D01*
X365829Y442666D01*
Y441333D01*
X364496Y440000D01*
X361830D01*
X360497Y441333D01*
X368495Y447997D02*
X373826D01*
X371161D01*
Y440000D01*
X152500Y475497D02*
Y468833D01*
X153833Y467500D01*
X156499D01*
X157832Y468833D01*
Y475497D01*
X165829Y474165D02*
X164496Y475497D01*
X161830D01*
X160497Y474165D01*
Y472832D01*
X161830Y471499D01*
X164496D01*
X165829Y470166D01*
Y468833D01*
X164496Y467500D01*
X161830D01*
X160497Y468833D01*
X168495Y475497D02*
Y467500D01*
X172494D01*
X173826Y468833D01*
Y470166D01*
X172494Y471499D01*
X168495D01*
X172494D01*
X173826Y472832D01*
Y474165D01*
X172494Y475497D01*
X168495D01*
X176492Y466167D02*
X181824D01*
X189821Y475497D02*
X184490D01*
Y471499D01*
X187155Y472832D01*
X188488D01*
X189821Y471499D01*
Y468833D01*
X188488Y467500D01*
X185823D01*
X184490Y468833D01*
X192487Y475497D02*
Y470166D01*
X195153Y467500D01*
X197819Y470166D01*
Y475497D01*
X312832Y711665D02*
X311499Y712997D01*
X308833D01*
X307500Y711665D01*
Y706333D01*
X308833Y705000D01*
X311499D01*
X312832Y706333D01*
Y708999D01*
X310166D01*
X315497Y705000D02*
Y712997D01*
X319496D01*
X320829Y711665D01*
Y708999D01*
X319496Y707666D01*
X315497D01*
X328826Y711665D02*
X327494Y712997D01*
X324828D01*
X323495Y711665D01*
Y710332D01*
X324828Y708999D01*
X327494D01*
X328826Y707666D01*
Y706333D01*
X327494Y705000D01*
X324828D01*
X323495Y706333D01*
X331492Y703667D02*
X336824D01*
X339490Y705000D02*
Y710332D01*
X343488D01*
X344821Y708999D01*
Y705000D01*
X352819Y711665D02*
X351486Y712997D01*
X348820D01*
X347487Y711665D01*
Y706333D01*
X348820Y705000D01*
X351486D01*
X352819Y706333D01*
X360816Y711665D02*
X359483Y712997D01*
X356817D01*
X355485Y711665D01*
Y710332D01*
X356817Y708999D01*
X359483D01*
X360816Y707666D01*
Y706333D01*
X359483Y705000D01*
X356817D01*
X355485Y706333D01*
X485332Y464165D02*
X483999Y465497D01*
X481333D01*
X480000Y464165D01*
Y462832D01*
X481333Y461499D01*
X483999D01*
X485332Y460166D01*
Y458833D01*
X483999Y457500D01*
X481333D01*
X480000Y458833D01*
X487997Y465497D02*
Y457500D01*
X491996D01*
X493329Y458833D01*
Y464165D01*
X491996Y465497D01*
X487997D01*
X495995Y457500D02*
Y462832D01*
X498661Y465497D01*
X501326Y462832D01*
Y457500D01*
Y461499D01*
X495995D01*
X485332Y489165D02*
X483999Y490497D01*
X481333D01*
X480000Y489165D01*
Y487832D01*
X481333Y486499D01*
X483999D01*
X485332Y485166D01*
Y483833D01*
X483999Y482500D01*
X481333D01*
X480000Y483833D01*
X493329Y489165D02*
X491996Y490497D01*
X489330D01*
X487997Y489165D01*
Y483833D01*
X489330Y482500D01*
X491996D01*
X493329Y483833D01*
X495995Y490497D02*
Y482500D01*
Y485166D01*
X501326Y490497D01*
X497328Y486499D01*
X501326Y482500D01*
X480000Y507500D02*
Y515497D01*
X482666Y512832D01*
X485332Y515497D01*
Y507500D01*
X487997Y515497D02*
X490663D01*
X489330D01*
Y507500D01*
X487997D01*
X490663D01*
X499994Y514165D02*
X498661Y515497D01*
X495995D01*
X494662Y514165D01*
Y512832D01*
X495995Y511499D01*
X498661D01*
X499994Y510166D01*
Y508833D01*
X498661Y507500D01*
X495995D01*
X494662Y508833D01*
X506658Y515497D02*
X503992D01*
X502659Y514165D01*
Y508833D01*
X503992Y507500D01*
X506658D01*
X507991Y508833D01*
Y514165D01*
X506658Y515497D01*
X485332Y539165D02*
X483999Y540497D01*
X481333D01*
X480000Y539165D01*
Y537832D01*
X481333Y536499D01*
X483999D01*
X485332Y535166D01*
Y533833D01*
X483999Y532500D01*
X481333D01*
X480000Y533833D01*
X493329Y539165D02*
X491996Y540497D01*
X489330D01*
X487997Y539165D01*
Y533833D01*
X489330Y532500D01*
X491996D01*
X493329Y533833D01*
X495995Y540497D02*
Y532500D01*
X501326D01*
X480000Y557500D02*
Y565497D01*
X482666Y562832D01*
X485332Y565497D01*
Y557500D01*
X491996Y565497D02*
X489330D01*
X487997Y564165D01*
Y558833D01*
X489330Y557500D01*
X491996D01*
X493329Y558833D01*
Y564165D01*
X491996Y565497D01*
X501326Y564165D02*
X499994Y565497D01*
X497328D01*
X495995Y564165D01*
Y562832D01*
X497328Y561499D01*
X499994D01*
X501326Y560166D01*
Y558833D01*
X499994Y557500D01*
X497328D01*
X495995Y558833D01*
X503992Y565497D02*
X506658D01*
X505325D01*
Y557500D01*
X503992D01*
X506658D01*
X485332Y589664D02*
X483999Y590997D01*
X481333D01*
X480000Y589664D01*
Y588331D01*
X481333Y586999D01*
X483999D01*
X485332Y585666D01*
Y584333D01*
X483999Y583000D01*
X481333D01*
X480000Y584333D01*
X493329Y589664D02*
X491996Y590997D01*
X489330D01*
X487997Y589664D01*
Y588331D01*
X489330Y586999D01*
X491996D01*
X493329Y585666D01*
Y584333D01*
X491996Y583000D01*
X489330D01*
X487997Y584333D01*
X501326Y590997D02*
X495995D01*
Y583000D01*
X501326D01*
X495995Y586999D02*
X498661D01*
X503992Y590997D02*
Y583000D01*
X509324D01*
X365000Y485497D02*
Y480166D01*
X367666Y477500D01*
X370332Y480166D01*
Y485497D01*
X378329Y484165D02*
X376996Y485497D01*
X374330D01*
X372997Y484165D01*
Y478833D01*
X374330Y477500D01*
X376996D01*
X378329Y478833D01*
X386326Y484165D02*
X384994Y485497D01*
X382328D01*
X380995Y484165D01*
Y478833D01*
X382328Y477500D01*
X384994D01*
X386326Y478833D01*
X388992Y476167D02*
X394324D01*
X396990Y484165D02*
X398323Y485497D01*
X400988D01*
X402321Y484165D01*
Y482832D01*
X400988Y481499D01*
X399655D01*
X400988D01*
X402321Y480166D01*
Y478833D01*
X400988Y477500D01*
X398323D01*
X396990Y478833D01*
X404987Y477500D02*
Y478833D01*
X406320D01*
Y477500D01*
X404987D01*
X411652Y484165D02*
X412985Y485497D01*
X415650D01*
X416983Y484165D01*
Y482832D01*
X415650Y481499D01*
X414317D01*
X415650D01*
X416983Y480166D01*
Y478833D01*
X415650Y477500D01*
X412985D01*
X411652Y478833D01*
X365332Y514165D02*
X363999Y515497D01*
X361333D01*
X360000Y514165D01*
Y508833D01*
X361333Y507500D01*
X363999D01*
X365332Y508833D01*
Y511499D01*
X362666D01*
X367997Y507500D02*
Y515497D01*
X373329Y507500D01*
Y515497D01*
X375995D02*
Y507500D01*
X379994D01*
X381326Y508833D01*
Y514165D01*
X379994Y515497D01*
X375995D01*
X350332Y401665D02*
X348999Y402997D01*
X346333D01*
X345000Y401665D01*
Y400332D01*
X346333Y398999D01*
X348999D01*
X350332Y397666D01*
Y396333D01*
X348999Y395000D01*
X346333D01*
X345000Y396333D01*
X358329Y401665D02*
X356996Y402997D01*
X354330D01*
X352997Y401665D01*
Y396333D01*
X354330Y395000D01*
X356996D01*
X358329Y396333D01*
X360995Y402997D02*
Y395000D01*
X366326D01*
X350332Y346665D02*
X348999Y347997D01*
X346333D01*
X345000Y346665D01*
Y345332D01*
X346333Y343999D01*
X348999D01*
X350332Y342666D01*
Y341333D01*
X348999Y340000D01*
X346333D01*
X345000Y341333D01*
X352997Y347997D02*
Y340000D01*
X356996D01*
X358329Y341333D01*
Y346665D01*
X356996Y347997D01*
X352997D01*
X360995Y340000D02*
Y345332D01*
X363661Y347997D01*
X366326Y345332D01*
Y340000D01*
Y343999D01*
X360995D01*
X352500Y270497D02*
X357832D01*
X355166D01*
Y262500D01*
X360497Y270497D02*
X365829Y262500D01*
Y270497D02*
X360497Y262500D01*
X305000D02*
Y270497D01*
X308999D01*
X310332Y269165D01*
Y266499D01*
X308999Y265166D01*
X305000D01*
X307666D02*
X310332Y262500D01*
X312997Y270497D02*
X318329Y262500D01*
Y270497D02*
X312997Y262500D01*
X610835Y217832D02*
X609503Y216499D01*
Y213833D01*
X610835Y212500D01*
X612168D01*
X613501Y213833D01*
Y216499D01*
X614834Y217832D01*
X616167D01*
X617500Y216499D01*
Y213833D01*
X616167Y212500D01*
X610835Y225829D02*
X609503Y224496D01*
Y221830D01*
X610835Y220497D01*
X612168D01*
X613501Y221830D01*
Y224496D01*
X614834Y225829D01*
X616167D01*
X617500Y224496D01*
Y221830D01*
X616167Y220497D01*
X609503Y233827D02*
Y228495D01*
X617500D01*
Y233827D01*
X613501Y228495D02*
Y231161D01*
X609503Y236492D02*
X617500D01*
Y241824D01*
X592500Y212500D02*
X584503D01*
X587168Y215166D01*
X584503Y217832D01*
X592500D01*
X584503Y224496D02*
Y221830D01*
X585835Y220497D01*
X591167D01*
X592500Y221830D01*
Y224496D01*
X591167Y225829D01*
X585835D01*
X584503Y224496D01*
X585835Y233827D02*
X584503Y232494D01*
Y229828D01*
X585835Y228495D01*
X587168D01*
X588501Y229828D01*
Y232494D01*
X589834Y233827D01*
X591167D01*
X592500Y232494D01*
Y229828D01*
X591167Y228495D01*
X584503Y236492D02*
Y239158D01*
Y237825D01*
X592500D01*
Y236492D01*
Y239158D01*
X560835Y217832D02*
X559503Y216499D01*
Y213833D01*
X560835Y212500D01*
X562168D01*
X563501Y213833D01*
Y216499D01*
X564834Y217832D01*
X566167D01*
X567500Y216499D01*
Y213833D01*
X566167Y212500D01*
X560835Y225829D02*
X559503Y224496D01*
Y221830D01*
X560835Y220497D01*
X566167D01*
X567500Y221830D01*
Y224496D01*
X566167Y225829D01*
X559503Y228495D02*
X567500D01*
Y233827D01*
X542500Y212500D02*
X534503D01*
X537168Y215166D01*
X534503Y217832D01*
X542500D01*
X534503Y220497D02*
Y223163D01*
Y221830D01*
X542500D01*
Y220497D01*
Y223163D01*
X535835Y232494D02*
X534503Y231161D01*
Y228495D01*
X535835Y227162D01*
X537168D01*
X538501Y228495D01*
Y231161D01*
X539834Y232494D01*
X541167D01*
X542500Y231161D01*
Y228495D01*
X541167Y227162D01*
X534503Y239158D02*
Y236492D01*
X535835Y235159D01*
X541167D01*
X542500Y236492D01*
Y239158D01*
X541167Y240491D01*
X535835D01*
X534503Y239158D01*
X510835Y217832D02*
X509503Y216499D01*
Y213833D01*
X510835Y212500D01*
X512168D01*
X513501Y213833D01*
Y216499D01*
X514834Y217832D01*
X516167D01*
X517500Y216499D01*
Y213833D01*
X516167Y212500D01*
X510835Y225829D02*
X509503Y224496D01*
Y221830D01*
X510835Y220497D01*
X516167D01*
X517500Y221830D01*
Y224496D01*
X516167Y225829D01*
X509503Y228495D02*
X517500D01*
X514834D01*
X509503Y233827D01*
X513501Y229828D01*
X517500Y233827D01*
X485835Y217832D02*
X484503Y216499D01*
Y213833D01*
X485835Y212500D01*
X487168D01*
X488501Y213833D01*
Y216499D01*
X489834Y217832D01*
X491167D01*
X492500Y216499D01*
Y213833D01*
X491167Y212500D01*
X484503Y220497D02*
X492500D01*
Y224496D01*
X491167Y225829D01*
X485835D01*
X484503Y224496D01*
Y220497D01*
X492500Y228495D02*
X487168D01*
X484503Y231161D01*
X487168Y233827D01*
X492500D01*
X488501D01*
Y228495D01*
X47832Y556665D02*
X46499Y557997D01*
X43833D01*
X42500Y556665D01*
Y551333D01*
X43833Y550000D01*
X46499D01*
X47832Y551333D01*
Y553999D01*
X45166D01*
X50497Y550000D02*
Y557997D01*
X55829Y550000D01*
Y557997D01*
X58495D02*
Y550000D01*
X62494D01*
X63826Y551333D01*
Y556665D01*
X62494Y557997D01*
X58495D01*
X47832Y531665D02*
X46499Y532997D01*
X43833D01*
X42500Y531665D01*
Y530332D01*
X43833Y528999D01*
X46499D01*
X47832Y527666D01*
Y526333D01*
X46499Y525000D01*
X43833D01*
X42500Y526333D01*
X54496Y532997D02*
X51830D01*
X50497Y531665D01*
Y526333D01*
X51830Y525000D01*
X54496D01*
X55829Y526333D01*
Y531665D01*
X54496Y532997D01*
X58495D02*
Y525000D01*
X63826D01*
X66492D02*
Y530332D01*
X69158Y532997D01*
X71824Y530332D01*
Y525000D01*
Y528999D01*
X66492D01*
X74490Y525000D02*
Y532997D01*
X78488D01*
X79821Y531665D01*
Y528999D01*
X78488Y527666D01*
X74490D01*
X77155D02*
X79821Y525000D01*
X47832Y611665D02*
X46499Y612997D01*
X43833D01*
X42500Y611665D01*
Y606333D01*
X43833Y605000D01*
X46499D01*
X47832Y606333D01*
Y608999D01*
X45166D01*
X50497Y605000D02*
Y612997D01*
X55829Y605000D01*
Y612997D01*
X58495D02*
Y605000D01*
X62494D01*
X63826Y606333D01*
Y611665D01*
X62494Y612997D01*
X58495D01*
X42500Y587997D02*
Y580000D01*
X46499D01*
X47832Y581333D01*
Y582666D01*
X46499Y583999D01*
X42500D01*
X46499D01*
X47832Y585332D01*
Y586665D01*
X46499Y587997D01*
X42500D01*
X50497Y580000D02*
Y585332D01*
X53163Y587997D01*
X55829Y585332D01*
Y580000D01*
Y583999D01*
X50497D01*
X58495Y587997D02*
X63826D01*
X61161D01*
Y580000D01*
D53*
X273250Y623500D02*
G03*
X273250Y623500I-1250J0D01*
G01*
X196250Y527000D02*
G03*
X196250Y527000I-1250J0D01*
G01*
X455500Y345000D02*
G03*
X455500Y345000I-1250J0D01*
G01*
X88000Y480500D02*
G03*
X88000Y480500I-1250J0D01*
G01*
X93000Y558000D02*
G03*
X93000Y558000I-1250J0D01*
G01*
D97*
X441000Y109000D02*
G03*
X441000Y109000I-1500J0D01*
G01*
D98*
X371782Y643643D02*
G03*
X371782Y643643I-575J0D01*
G01*
D99*
X309500Y96000D02*
Y212000D01*
Y96000D02*
X434500D01*
Y212000D01*
X309500D02*
X434500D01*
D100*
X452994Y771023D02*
X468933D01*
X452550Y649040D02*
X469187D01*
X370000D02*
Y771087D01*
X529957Y649103D02*
Y771087D01*
D101*
X108500Y773500D02*
X233500D01*
X108500D02*
Y798500D01*
X233500D01*
Y773500D02*
Y798500D01*
D102*
X623250Y257000D02*
Y265000D01*
Y272000D02*
Y280000D01*
Y287000D02*
Y295000D01*
Y302000D02*
Y310000D01*
Y317000D02*
Y325000D01*
Y332000D02*
Y340000D01*
Y347000D02*
Y355000D01*
Y362000D02*
Y370000D01*
D103*
X193500Y785999D02*
D03*
D104*
X211249Y189000D02*
D03*
M02*
