G04 Layer_Color=8421504*
%FSLAX44Y44*%
%MOMM*%
G71*
G01*
G75*
%ADD11R,1.0000X1.2000*%
%ADD12R,0.4100X0.4100*%
%ADD13O,0.2800X0.8100*%
%ADD14O,0.8100X0.2800*%
%ADD15R,0.8000X0.5000*%
%ADD16R,0.5000X0.8000*%
%ADD17R,1.6000X1.6000*%
%ADD18R,1.0000X1.0000*%
%ADD20R,0.2500X0.4000*%
%ADD21R,0.6000X0.2500*%
%ADD22R,0.5000X0.5000*%
%ADD23R,3.4700X1.7800*%
%ADD24R,1.7800X3.4700*%
%ADD25R,0.8000X0.9000*%
%ADD26R,0.9000X0.8000*%
%ADD27R,0.8000X2.5000*%
%ADD28R,0.8000X2.1000*%
%ADD29R,2.5000X0.8000*%
%ADD30R,2.1000X0.8000*%
G04:AMPARAMS|DCode=31|XSize=3mm|YSize=0.76mm|CornerRadius=0.19mm|HoleSize=0mm|Usage=FLASHONLY|Rotation=90.000|XOffset=0mm|YOffset=0mm|HoleType=Round|Shape=RoundedRectangle|*
%AMROUNDEDRECTD31*
21,1,3.0000,0.3800,0,0,90.0*
21,1,2.6200,0.7600,0,0,90.0*
1,1,0.3800,0.1900,1.3100*
1,1,0.3800,0.1900,-1.3100*
1,1,0.3800,-0.1900,-1.3100*
1,1,0.3800,-0.1900,1.3100*
%
%ADD31ROUNDEDRECTD31*%
%ADD32R,0.7600X3.0000*%
%ADD34R,0.9500X0.8500*%
%ADD35R,0.8500X0.9500*%
%ADD36R,1.3500X0.4000*%
%ADD37R,1.5500X1.5000*%
%ADD38R,2.2000X1.0500*%
%ADD39R,1.0500X1.0000*%
%ADD40R,1.5000X1.8000*%
%ADD41R,1.0160X3.3020*%
%ADD42R,0.8000X0.8000*%
%ADD43R,1.7500X2.6500*%
%ADD44R,1.7000X0.8000*%
%ADD45R,0.8000X1.7000*%
%ADD49C,0.5000*%
%ADD105R,0.8000X1.2000*%
%ADD106R,0.6000X1.6000*%
G36*
X405000Y126000D02*
X400000Y121000D01*
X389000D01*
Y137000D01*
X405000D01*
Y126000D01*
D02*
G37*
D11*
X248500Y625000D02*
D03*
Y642000D02*
D03*
X261500Y625000D02*
D03*
Y642000D02*
D03*
D12*
X245000Y585000D02*
D03*
Y575000D02*
D03*
Y565000D02*
D03*
Y555000D02*
D03*
X235000Y585000D02*
D03*
Y575000D02*
D03*
Y565000D02*
D03*
Y555000D02*
D03*
X225000Y585000D02*
D03*
Y575000D02*
D03*
Y565000D02*
D03*
Y555000D02*
D03*
X215000Y585000D02*
D03*
Y575000D02*
D03*
Y565000D02*
D03*
Y555000D02*
D03*
D13*
X202500Y535250D02*
D03*
X207500D02*
D03*
X212500D02*
D03*
X217500D02*
D03*
X222500D02*
D03*
X227500D02*
D03*
X232500D02*
D03*
X237500D02*
D03*
X242500D02*
D03*
X247500D02*
D03*
X252500D02*
D03*
X257500D02*
D03*
Y604750D02*
D03*
X252500D02*
D03*
X247500D02*
D03*
X242500D02*
D03*
X237500D02*
D03*
X232500D02*
D03*
X227500D02*
D03*
X222500D02*
D03*
X217500D02*
D03*
X212500D02*
D03*
X207500D02*
D03*
X202500D02*
D03*
D14*
X264750Y542500D02*
D03*
Y547500D02*
D03*
Y552500D02*
D03*
Y557500D02*
D03*
Y562500D02*
D03*
Y567500D02*
D03*
Y572500D02*
D03*
Y577500D02*
D03*
Y582500D02*
D03*
Y587500D02*
D03*
Y592500D02*
D03*
Y597500D02*
D03*
X195250D02*
D03*
Y592500D02*
D03*
Y587500D02*
D03*
Y582500D02*
D03*
Y577500D02*
D03*
Y572500D02*
D03*
Y567500D02*
D03*
Y562500D02*
D03*
Y557500D02*
D03*
Y552500D02*
D03*
Y547500D02*
D03*
Y542500D02*
D03*
D15*
X428500Y110000D02*
D03*
Y118000D02*
D03*
Y126000D02*
D03*
Y134000D02*
D03*
Y142000D02*
D03*
Y150000D02*
D03*
Y158000D02*
D03*
Y166000D02*
D03*
Y174000D02*
D03*
Y182000D02*
D03*
Y190000D02*
D03*
Y198000D02*
D03*
X315500D02*
D03*
Y190000D02*
D03*
Y182000D02*
D03*
Y174000D02*
D03*
Y166000D02*
D03*
Y158000D02*
D03*
Y150000D02*
D03*
Y142000D02*
D03*
Y134000D02*
D03*
Y126000D02*
D03*
Y118000D02*
D03*
Y110000D02*
D03*
D16*
X416000Y206000D02*
D03*
X408000D02*
D03*
X400000D02*
D03*
X392000D02*
D03*
X384000D02*
D03*
X376000D02*
D03*
X368000D02*
D03*
X360000D02*
D03*
X352000D02*
D03*
X344000D02*
D03*
X336000D02*
D03*
X328000D02*
D03*
Y102000D02*
D03*
X336000D02*
D03*
X344000D02*
D03*
X352000D02*
D03*
X360000D02*
D03*
X368000D02*
D03*
X376000D02*
D03*
X384000D02*
D03*
X392000D02*
D03*
X400000D02*
D03*
X408000D02*
D03*
X416000D02*
D03*
D17*
X372000Y129000D02*
D03*
X347000D02*
D03*
X397000Y154000D02*
D03*
X372000D02*
D03*
X347000D02*
D03*
X397000Y179000D02*
D03*
X372000D02*
D03*
X347000D02*
D03*
D18*
X397000Y129000D02*
D03*
D20*
X444250Y334750D02*
D03*
X439250D02*
D03*
X434250D02*
D03*
X429250D02*
D03*
X444250Y290250D02*
D03*
X439250D02*
D03*
X434250D02*
D03*
X429250D02*
D03*
D21*
X452000Y290000D02*
D03*
Y295000D02*
D03*
Y300000D02*
D03*
Y305000D02*
D03*
Y310000D02*
D03*
Y315000D02*
D03*
Y320000D02*
D03*
Y325000D02*
D03*
Y330000D02*
D03*
Y335000D02*
D03*
X421500Y290000D02*
D03*
Y295000D02*
D03*
Y300000D02*
D03*
Y305000D02*
D03*
Y310000D02*
D03*
Y315000D02*
D03*
Y320000D02*
D03*
Y325000D02*
D03*
Y330000D02*
D03*
Y335000D02*
D03*
D22*
X315250Y362500D02*
D03*
X307250D02*
D03*
X299250D02*
D03*
X291250D02*
D03*
Y338500D02*
D03*
X299250D02*
D03*
X307250D02*
D03*
X315250D02*
D03*
D23*
X405000Y463000D02*
D03*
Y513000D02*
D03*
X110650Y584600D02*
D03*
X456500Y533000D02*
D03*
Y458000D02*
D03*
Y558000D02*
D03*
Y508000D02*
D03*
Y483000D02*
D03*
Y583000D02*
D03*
D24*
X137500Y460000D02*
D03*
X137500Y507500D02*
D03*
X355000Y372500D02*
D03*
Y317500D02*
D03*
X333250Y263000D02*
D03*
X380000Y262500D02*
D03*
X350000Y680000D02*
D03*
X615000Y190000D02*
D03*
X490000D02*
D03*
X515000D02*
D03*
X565000D02*
D03*
X540000D02*
D03*
X590000D02*
D03*
D25*
X341000Y496500D02*
D03*
X327500D02*
D03*
X426750Y535000D02*
D03*
X413250D02*
D03*
X426750Y442500D02*
D03*
X413250D02*
D03*
X390250Y85000D02*
D03*
X403750D02*
D03*
X377750D02*
D03*
X364250D02*
D03*
X443500Y350000D02*
D03*
X430000D02*
D03*
X395000Y307500D02*
D03*
X408500D02*
D03*
X600500Y261000D02*
D03*
X614000D02*
D03*
X600500Y276000D02*
D03*
X614000D02*
D03*
X600500Y291000D02*
D03*
X614000D02*
D03*
X600500Y306000D02*
D03*
X614000D02*
D03*
X600500Y321000D02*
D03*
X614000D02*
D03*
X600500Y336000D02*
D03*
X614000D02*
D03*
X600500Y351000D02*
D03*
X614000D02*
D03*
X315000Y325500D02*
D03*
X301500D02*
D03*
X600500Y366000D02*
D03*
X614000D02*
D03*
D26*
X315500Y379750D02*
D03*
Y393250D02*
D03*
X302500Y379750D02*
D03*
Y393250D02*
D03*
X282000Y77250D02*
D03*
Y90750D02*
D03*
X420000Y56750D02*
D03*
Y43250D02*
D03*
X513250Y367250D02*
D03*
Y353750D02*
D03*
Y321250D02*
D03*
Y334750D02*
D03*
Y302250D02*
D03*
Y288750D02*
D03*
Y256250D02*
D03*
Y269750D02*
D03*
X416500Y265750D02*
D03*
Y279250D02*
D03*
X431500D02*
D03*
Y265750D02*
D03*
X328250Y339750D02*
D03*
Y326250D02*
D03*
D27*
X613500Y110400D02*
D03*
X588100D02*
D03*
X562700D02*
D03*
X537300D02*
D03*
X511900D02*
D03*
X486500D02*
D03*
D28*
X613500Y141700D02*
D03*
X588100D02*
D03*
X562700D02*
D03*
X537300D02*
D03*
X511900D02*
D03*
X486500D02*
D03*
D29*
X570600Y583500D02*
D03*
Y558100D02*
D03*
Y532700D02*
D03*
Y507300D02*
D03*
Y481900D02*
D03*
Y456500D02*
D03*
D30*
X539300Y583500D02*
D03*
Y558100D02*
D03*
Y532700D02*
D03*
Y507300D02*
D03*
Y481900D02*
D03*
Y456500D02*
D03*
D31*
X259600Y438000D02*
D03*
D32*
X272300D02*
D03*
X285000D02*
D03*
X297700D02*
D03*
X310400D02*
D03*
X259600Y477000D02*
D03*
X272300D02*
D03*
X285000D02*
D03*
X297700D02*
D03*
X310400D02*
D03*
D34*
X174750Y641750D02*
D03*
Y628250D02*
D03*
X189500Y641750D02*
D03*
Y628250D02*
D03*
X217500Y669250D02*
D03*
Y655750D02*
D03*
X281000Y150250D02*
D03*
Y163750D02*
D03*
X275000Y648250D02*
D03*
Y634750D02*
D03*
X295000Y163750D02*
D03*
Y150250D02*
D03*
Y189750D02*
D03*
Y176250D02*
D03*
X241000Y203750D02*
D03*
Y190250D02*
D03*
X281000Y203750D02*
D03*
Y190250D02*
D03*
X296000Y115250D02*
D03*
Y128750D02*
D03*
Y77250D02*
D03*
Y90750D02*
D03*
X498250Y367250D02*
D03*
Y353750D02*
D03*
Y321250D02*
D03*
Y334750D02*
D03*
Y302250D02*
D03*
Y288750D02*
D03*
Y256250D02*
D03*
Y269750D02*
D03*
X406750Y320750D02*
D03*
Y334250D02*
D03*
X217500Y709250D02*
D03*
Y695750D02*
D03*
D35*
X282750Y177000D02*
D03*
X269250D02*
D03*
X254250Y191000D02*
D03*
X267750D02*
D03*
X189000Y655250D02*
D03*
X175500D02*
D03*
X217500Y642250D02*
D03*
X204000D02*
D03*
Y682500D02*
D03*
X217500D02*
D03*
X204000Y627750D02*
D03*
X217500D02*
D03*
X341000Y483500D02*
D03*
X327500D02*
D03*
X261750Y656500D02*
D03*
X248250D02*
D03*
X349750Y555500D02*
D03*
X336250D02*
D03*
X349750Y568000D02*
D03*
X336250D02*
D03*
X349750Y580500D02*
D03*
X336250D02*
D03*
X349750Y593000D02*
D03*
X336250D02*
D03*
X349750Y605500D02*
D03*
X336250D02*
D03*
X349750Y618000D02*
D03*
X336250D02*
D03*
X402500Y350000D02*
D03*
X416000D02*
D03*
X402500Y365000D02*
D03*
X416000D02*
D03*
X402500Y380000D02*
D03*
X416000D02*
D03*
X402500Y395000D02*
D03*
X416000D02*
D03*
D36*
X41660Y469860D02*
D03*
Y463360D02*
D03*
Y456860D02*
D03*
Y450360D02*
D03*
Y443860D02*
D03*
D37*
X14660Y466860D02*
D03*
Y446860D02*
D03*
D38*
X140000Y640250D02*
D03*
Y669750D02*
D03*
X256000Y122250D02*
D03*
Y151750D02*
D03*
X576000Y703750D02*
D03*
Y674250D02*
D03*
D39*
X155000Y655000D02*
D03*
X271000Y137000D02*
D03*
X561000Y689000D02*
D03*
D40*
X126000Y786000D02*
D03*
X216000D02*
D03*
D41*
X223010Y189000D02*
D03*
X62990D02*
D03*
D42*
X632250Y261000D02*
D03*
X647250D02*
D03*
X632250Y276000D02*
D03*
X647250D02*
D03*
X632250Y291000D02*
D03*
X647250D02*
D03*
X632250Y306000D02*
D03*
X647250D02*
D03*
X632250Y321000D02*
D03*
X647250D02*
D03*
X632250Y336000D02*
D03*
X647250D02*
D03*
X632250Y351000D02*
D03*
X647250D02*
D03*
X632250Y366000D02*
D03*
X647250D02*
D03*
D43*
X100000Y428500D02*
D03*
Y471500D02*
D03*
X105000Y506000D02*
D03*
Y549000D02*
D03*
D44*
X335000Y435750D02*
D03*
Y469750D02*
D03*
X258000Y54500D02*
D03*
Y88500D02*
D03*
D45*
X560250Y360500D02*
D03*
X526250D02*
D03*
X560250Y328000D02*
D03*
X526250D02*
D03*
X560250Y295500D02*
D03*
X526250D02*
D03*
X560250Y263000D02*
D03*
X526250D02*
D03*
D49*
X0Y800000D02*
X680000D01*
Y0D02*
Y800000D01*
X0Y0D02*
X680000D01*
X0D02*
Y800000D01*
D105*
X380000Y647580D02*
D03*
X391000Y647580D02*
D03*
X402000D02*
D03*
X413000Y647580D02*
D03*
X424000Y647580D02*
D03*
X435000Y647580D02*
D03*
X446000Y647580D02*
D03*
X476000D02*
D03*
X487000Y647580D02*
D03*
X498000Y647580D02*
D03*
X509000Y647580D02*
D03*
X520000Y647580D02*
D03*
Y772330D02*
D03*
X509000Y772330D02*
D03*
X498000Y772330D02*
D03*
X487000Y772330D02*
D03*
X476000Y772330D02*
D03*
X446000Y772330D02*
D03*
X435000Y772330D02*
D03*
X424000Y772330D02*
D03*
X402000D02*
D03*
X391000D02*
D03*
X380000Y772330D02*
D03*
X413000Y772330D02*
D03*
D106*
X380000Y651580D02*
D03*
X391000D02*
D03*
X402000D02*
D03*
X413000D02*
D03*
X424000D02*
D03*
X435000D02*
D03*
X446000D02*
D03*
X476000D02*
D03*
X487000D02*
D03*
X498000D02*
D03*
X509000D02*
D03*
X520000D02*
D03*
Y768420D02*
D03*
X509000D02*
D03*
X498000D02*
D03*
X487000D02*
D03*
X476000D02*
D03*
X446000D02*
D03*
X435000D02*
D03*
X424000D02*
D03*
X413000D02*
D03*
X402000D02*
D03*
X391000D02*
D03*
X380000D02*
D03*
M02*
