G04 Layer_Physical_Order=1*
G04 Layer_Color=255*
%FSLAX44Y44*%
%MOMM*%
G71*
G01*
G75*
%ADD10C,0.5300*%
%ADD11R,1.0000X1.2000*%
%ADD12R,0.4100X0.4100*%
%ADD13O,0.2800X0.8100*%
%ADD14O,0.8100X0.2800*%
%ADD15R,0.8000X0.5000*%
%ADD16R,0.5000X0.8000*%
%ADD17R,1.6000X1.6000*%
%ADD18R,1.0000X1.0000*%
%ADD19R,0.8000X1.8000*%
%ADD20R,0.2500X0.4000*%
%ADD21R,0.6000X0.2500*%
%ADD22R,0.5000X0.5000*%
%ADD23R,3.4700X1.7800*%
%ADD24R,1.7800X3.4700*%
%ADD25R,0.8000X0.9000*%
%ADD26R,0.9000X0.8000*%
%ADD27R,0.8000X2.5000*%
%ADD28R,0.8000X2.1000*%
%ADD29R,2.5000X0.8000*%
%ADD30R,2.1000X0.8000*%
G04:AMPARAMS|DCode=31|XSize=3mm|YSize=0.76mm|CornerRadius=0.19mm|HoleSize=0mm|Usage=FLASHONLY|Rotation=90.000|XOffset=0mm|YOffset=0mm|HoleType=Round|Shape=RoundedRectangle|*
%AMROUNDEDRECTD31*
21,1,3.0000,0.3800,0,0,90.0*
21,1,2.6200,0.7600,0,0,90.0*
1,1,0.3800,0.1900,1.3100*
1,1,0.3800,0.1900,-1.3100*
1,1,0.3800,-0.1900,-1.3100*
1,1,0.3800,-0.1900,1.3100*
%
%ADD31ROUNDEDRECTD31*%
%ADD32R,0.7600X3.0000*%
%ADD33P,1.4142X4X90.0*%
%ADD34R,0.9500X0.8500*%
%ADD35R,0.8500X0.9500*%
%ADD36R,1.3500X0.4000*%
%ADD37R,1.5500X1.5000*%
%ADD38R,2.2000X1.0500*%
%ADD39R,1.0500X1.0000*%
%ADD40R,1.5000X1.8000*%
%ADD41R,1.0160X3.3020*%
%ADD42R,0.8000X0.8000*%
%ADD43R,1.7500X2.6500*%
%ADD44R,1.7000X0.8000*%
%ADD45R,0.8000X1.7000*%
%ADD46C,0.2000*%
%ADD47C,0.3000*%
%ADD48C,0.1000*%
%ADD49C,0.5000*%
%ADD50C,0.3810*%
%ADD51C,0.1500*%
%ADD52C,0.1320*%
%ADD53C,0.2500*%
%ADD54C,0.5475*%
%ADD55C,1.5000*%
%ADD56R,1.5000X1.5000*%
%ADD57R,1.5000X1.5000*%
G04:AMPARAMS|DCode=58|XSize=1.65mm|YSize=1.55mm|CornerRadius=0.3875mm|HoleSize=0mm|Usage=FLASHONLY|Rotation=90.000|XOffset=0mm|YOffset=0mm|HoleType=Round|Shape=RoundedRectangle|*
%AMROUNDEDRECTD58*
21,1,1.6500,0.7750,0,0,90.0*
21,1,0.8750,1.5500,0,0,90.0*
1,1,0.7750,0.3875,0.4375*
1,1,0.7750,0.3875,-0.4375*
1,1,0.7750,-0.3875,-0.4375*
1,1,0.7750,-0.3875,0.4375*
%
%ADD58ROUNDEDRECTD58*%
%ADD59O,1.2000X1.2500*%
%ADD60O,0.7000X0.2300*%
%ADD61C,0.6000*%
%ADD62C,0.8000*%
%ADD63C,0.5000*%
%ADD64C,1.0000*%
%ADD65C,1.2700*%
G36*
X677961Y2039D02*
X236624D01*
Y13979D01*
X237506Y14451D01*
X237659Y14348D01*
X239000Y14081D01*
Y20000D01*
Y25919D01*
X237659Y25652D01*
X237506Y25549D01*
X236624Y26021D01*
Y33979D01*
X237506Y34451D01*
X237659Y34348D01*
X239000Y34081D01*
Y40000D01*
Y45919D01*
X237659Y45652D01*
X237506Y45549D01*
X236624Y46021D01*
Y53979D01*
X237506Y54451D01*
X237659Y54348D01*
X239000Y54081D01*
Y60000D01*
Y65919D01*
X237659Y65652D01*
X237506Y65549D01*
X236624Y66021D01*
Y73979D01*
X237506Y74451D01*
X237659Y74348D01*
X239000Y74081D01*
Y80000D01*
Y85919D01*
X237659Y85652D01*
X237506Y85549D01*
X236624Y86021D01*
Y93979D01*
X237506Y94451D01*
X237659Y94348D01*
X239000Y94081D01*
Y100000D01*
Y105919D01*
X237659Y105652D01*
X237506Y105549D01*
X236624Y106021D01*
Y113979D01*
X237506Y114451D01*
X237659Y114348D01*
X239000Y114081D01*
Y120000D01*
Y125919D01*
X237659Y125652D01*
X237506Y125549D01*
X236624Y126021D01*
Y133979D01*
X237506Y134451D01*
X237659Y134348D01*
X239000Y134081D01*
Y140000D01*
X240000D01*
Y141000D01*
X245919D01*
X245652Y142341D01*
X244877Y143500D01*
X245412Y144500D01*
X255000D01*
Y151750D01*
Y159000D01*
X240000D01*
Y160000D01*
X239000D01*
Y165919D01*
X237659Y165652D01*
X237506Y165549D01*
X236624Y166021D01*
Y173979D01*
X237506Y174451D01*
X237659Y174348D01*
X239000Y174081D01*
Y180000D01*
X240000D01*
Y181000D01*
X245919D01*
X245652Y182341D01*
X244877Y183500D01*
X245412Y184500D01*
X247250D01*
Y186769D01*
X248500D01*
Y184750D01*
X254755D01*
X255289Y183750D01*
X254348Y182341D01*
X254081Y181000D01*
X260000D01*
Y180000D01*
X261000D01*
Y174081D01*
X262000Y174280D01*
X263000Y173677D01*
Y170250D01*
X268250D01*
Y177000D01*
X270250D01*
Y170250D01*
X273354D01*
X274250Y170000D01*
X274250Y169250D01*
Y164750D01*
X287750D01*
Y169750D01*
X287750Y170000D01*
X287790Y170050D01*
X288023Y170159D01*
X288750Y169395D01*
Y158000D01*
X301250D01*
Y169500D01*
X299321D01*
Y170500D01*
X301250D01*
Y182000D01*
X288750D01*
X288500Y182896D01*
Y183104D01*
X288563Y183328D01*
X289104Y184000D01*
X301250D01*
Y185679D01*
X309500D01*
Y183000D01*
X321500D01*
Y186500D01*
X321000D01*
Y193500D01*
X321500D01*
Y197000D01*
X309500D01*
Y194321D01*
X304100D01*
X303797Y195321D01*
X304326Y195674D01*
X305652Y197659D01*
X305919Y199000D01*
X294081D01*
X294348Y197659D01*
X295123Y196500D01*
X294588Y195500D01*
X288750D01*
Y194321D01*
X287250D01*
Y196000D01*
X274750D01*
Y194321D01*
X273500D01*
Y196286D01*
X273500Y196327D01*
X273500Y196328D01*
X273501Y196334D01*
X273556Y196942D01*
X274159Y197427D01*
X274531Y197500D01*
X275079Y197500D01*
X280000D01*
Y202750D01*
X274250D01*
Y198464D01*
X274250Y198423D01*
X274250Y198422D01*
X274249Y198416D01*
X274194Y197808D01*
X273591Y197323D01*
X273219Y197250D01*
X272672Y197250D01*
X262000D01*
Y186508D01*
X261227Y185874D01*
X260000Y186117D01*
Y197250D01*
X248647D01*
X248422Y197313D01*
X247750Y197854D01*
Y202750D01*
X241000D01*
Y204750D01*
X247750D01*
Y210000D01*
X246117D01*
X245652Y212341D01*
X244326Y214326D01*
X242341Y215652D01*
X241000Y215919D01*
Y210000D01*
X239000D01*
Y215919D01*
X237659Y215652D01*
X237506Y215549D01*
X236624Y216021D01*
Y223979D01*
X237506Y224451D01*
X237659Y224348D01*
X239000Y224081D01*
Y230000D01*
Y235919D01*
X237659Y235652D01*
X237506Y235549D01*
X236624Y236021D01*
Y243979D01*
X237506Y244451D01*
X237659Y244348D01*
X239000Y244081D01*
Y250000D01*
Y255919D01*
X237659Y255652D01*
X237506Y255549D01*
X236624Y256021D01*
Y263979D01*
X237506Y264451D01*
X237659Y264348D01*
X239000Y264081D01*
Y270000D01*
Y275919D01*
X237659Y275652D01*
X237506Y275549D01*
X236624Y276021D01*
Y283979D01*
X237506Y284451D01*
X237659Y284348D01*
X239000Y284081D01*
Y290000D01*
Y295919D01*
X237659Y295652D01*
X237506Y295549D01*
X236624Y296021D01*
Y303979D01*
X237506Y304451D01*
X237659Y304348D01*
X239000Y304081D01*
Y310000D01*
Y315919D01*
X237659Y315652D01*
X237506Y315549D01*
X236624Y316021D01*
Y323979D01*
X237506Y324451D01*
X237659Y324348D01*
X239000Y324081D01*
Y330000D01*
Y335919D01*
X237659Y335652D01*
X237506Y335549D01*
X236624Y336021D01*
Y343979D01*
X237506Y344451D01*
X237659Y344348D01*
X239000Y344081D01*
Y350000D01*
Y355919D01*
X237659Y355652D01*
X237506Y355549D01*
X236624Y356021D01*
Y363979D01*
X237506Y364451D01*
X237659Y364348D01*
X239000Y364081D01*
Y370000D01*
Y375919D01*
X237659Y375652D01*
X237506Y375549D01*
X236624Y376021D01*
Y383837D01*
X237624Y384372D01*
X237659Y384348D01*
X239000Y384081D01*
Y389000D01*
X234081D01*
X234348Y387659D01*
X234372Y387624D01*
X233837Y386624D01*
X226021D01*
X225549Y387505D01*
X225652Y387659D01*
X225919Y389000D01*
X214081D01*
X214348Y387659D01*
X214451Y387505D01*
X213979Y386624D01*
X206021D01*
X205549Y387505D01*
X205652Y387659D01*
X205919Y389000D01*
X194081D01*
X194348Y387659D01*
X194451Y387505D01*
X193979Y386624D01*
X186021D01*
X185549Y387505D01*
X185652Y387659D01*
X185919Y389000D01*
X174081D01*
X174348Y387659D01*
X174451Y387505D01*
X173979Y386624D01*
X166021D01*
X165549Y387505D01*
X165652Y387659D01*
X165919Y389000D01*
X154081D01*
X154348Y387659D01*
X154451Y387505D01*
X153979Y386624D01*
X146021D01*
X145549Y387505D01*
X145652Y387659D01*
X145919Y389000D01*
X134081D01*
X134348Y387659D01*
X134451Y387505D01*
X133979Y386624D01*
X126021D01*
X125549Y387505D01*
X125652Y387659D01*
X125919Y389000D01*
X114081D01*
X114348Y387659D01*
X114451Y387505D01*
X113979Y386624D01*
X106021D01*
X105549Y387505D01*
X105652Y387659D01*
X105919Y389000D01*
X94081D01*
X94348Y387659D01*
X94451Y387505D01*
X93979Y386624D01*
X86021D01*
X85549Y387505D01*
X85652Y387659D01*
X85919Y389000D01*
X74081D01*
X74348Y387659D01*
X74451Y387505D01*
X73979Y386624D01*
X66021D01*
X65549Y387505D01*
X65652Y387659D01*
X65919Y389000D01*
X54081D01*
X54348Y387659D01*
X54451Y387505D01*
X53979Y386624D01*
X46021D01*
X45549Y387505D01*
X45652Y387659D01*
X45919Y389000D01*
X34081D01*
X34348Y387659D01*
X34451Y387505D01*
X33979Y386624D01*
X26021D01*
X25549Y387505D01*
X25652Y387659D01*
X25919Y389000D01*
X14081D01*
X14348Y387659D01*
X14451Y387505D01*
X13979Y386624D01*
X2039D01*
Y713376D01*
X211250D01*
Y703500D01*
X223750D01*
Y713376D01*
X255000D01*
X255421Y713551D01*
X256674Y711674D01*
X258659Y710348D01*
X260000Y710081D01*
Y716000D01*
Y721919D01*
X258659Y721652D01*
X257624Y720960D01*
X256624Y721495D01*
Y730505D01*
X257624Y731040D01*
X258659Y730348D01*
X260000Y730081D01*
Y736000D01*
Y741919D01*
X258659Y741652D01*
X257624Y740960D01*
X256624Y741495D01*
Y750506D01*
X257624Y751040D01*
X258659Y750348D01*
X260000Y750081D01*
Y756000D01*
Y761919D01*
X258659Y761652D01*
X257624Y760960D01*
X256624Y761495D01*
Y770506D01*
X257624Y771040D01*
X258659Y770348D01*
X260000Y770081D01*
Y776000D01*
Y781919D01*
X258659Y781652D01*
X257624Y780960D01*
X256624Y781495D01*
Y784505D01*
X257624Y785040D01*
X258659Y784348D01*
X260000Y784081D01*
Y790000D01*
Y795919D01*
X258659Y795652D01*
X257624Y794960D01*
X256624Y795495D01*
Y797961D01*
X677961D01*
Y2039D01*
D02*
G37*
%LPC*%
G36*
X408750Y386750D02*
X403500D01*
Y381000D01*
X408750D01*
Y386750D01*
D02*
G37*
G36*
Y379000D02*
X403500D01*
Y373250D01*
X408750D01*
Y379000D01*
D02*
G37*
G36*
X401500Y386750D02*
X396250D01*
Y381000D01*
X401500D01*
Y386750D01*
D02*
G37*
G36*
X245919Y389000D02*
X241000D01*
Y384081D01*
X242341Y384348D01*
X244326Y385674D01*
X245652Y387659D01*
X245919Y389000D01*
D02*
G37*
G36*
X19000Y395919D02*
X17659Y395652D01*
X15674Y394326D01*
X14348Y392341D01*
X14081Y391000D01*
X19000D01*
Y395919D01*
D02*
G37*
G36*
X408750Y394000D02*
X403500D01*
Y388250D01*
X408750D01*
Y394000D01*
D02*
G37*
G36*
X401500D02*
X396250D01*
Y388250D01*
X401500D01*
Y394000D01*
D02*
G37*
G36*
X401500Y379000D02*
X396250D01*
Y373250D01*
X401500D01*
Y379000D01*
D02*
G37*
G36*
X559250Y371000D02*
X554250D01*
Y361500D01*
X559250D01*
Y371000D01*
D02*
G37*
G36*
X408750Y364000D02*
X403500D01*
Y358250D01*
X408750D01*
Y364000D01*
D02*
G37*
G36*
X401500D02*
X396250D01*
Y358250D01*
X401500D01*
Y364000D01*
D02*
G37*
G36*
X245919Y369000D02*
X241000D01*
Y364081D01*
X242341Y364348D01*
X244326Y365674D01*
X245652Y367659D01*
X245919Y369000D01*
D02*
G37*
G36*
X241000Y375919D02*
Y371000D01*
X245919D01*
X245652Y372341D01*
X244326Y374326D01*
X242341Y375652D01*
X241000Y375919D01*
D02*
G37*
G36*
X408750Y371750D02*
X403500D01*
Y366000D01*
X408750D01*
Y371750D01*
D02*
G37*
G36*
X401500D02*
X396250D01*
Y366000D01*
X401500D01*
Y371750D01*
D02*
G37*
G36*
X21000Y395919D02*
Y391000D01*
X25919D01*
X25652Y392341D01*
X24326Y394326D01*
X22341Y395652D01*
X21000Y395919D01*
D02*
G37*
G36*
X139000D02*
X137659Y395652D01*
X135674Y394326D01*
X134348Y392341D01*
X134081Y391000D01*
X139000D01*
Y395919D01*
D02*
G37*
G36*
X121000D02*
Y391000D01*
X125919D01*
X125652Y392341D01*
X124326Y394326D01*
X122341Y395652D01*
X121000Y395919D01*
D02*
G37*
G36*
X119000D02*
X117659Y395652D01*
X115674Y394326D01*
X114348Y392341D01*
X114081Y391000D01*
X119000D01*
Y395919D01*
D02*
G37*
G36*
X141000D02*
Y391000D01*
X145919D01*
X145652Y392341D01*
X144326Y394326D01*
X142341Y395652D01*
X141000Y395919D01*
D02*
G37*
G36*
X179000D02*
X177659Y395652D01*
X175674Y394326D01*
X174348Y392341D01*
X174081Y391000D01*
X179000D01*
Y395919D01*
D02*
G37*
G36*
X161000D02*
Y391000D01*
X165919D01*
X165652Y392341D01*
X164326Y394326D01*
X162341Y395652D01*
X161000Y395919D01*
D02*
G37*
G36*
X159000D02*
X157659Y395652D01*
X155674Y394326D01*
X154348Y392341D01*
X154081Y391000D01*
X159000D01*
Y395919D01*
D02*
G37*
G36*
X101000D02*
Y391000D01*
X105919D01*
X105652Y392341D01*
X104326Y394326D01*
X102341Y395652D01*
X101000Y395919D01*
D02*
G37*
G36*
X59000D02*
X57659Y395652D01*
X55674Y394326D01*
X54348Y392341D01*
X54081Y391000D01*
X59000D01*
Y395919D01*
D02*
G37*
G36*
X41000D02*
Y391000D01*
X45919D01*
X45652Y392341D01*
X44326Y394326D01*
X42341Y395652D01*
X41000Y395919D01*
D02*
G37*
G36*
X39000D02*
X37659Y395652D01*
X35674Y394326D01*
X34348Y392341D01*
X34081Y391000D01*
X39000D01*
Y395919D01*
D02*
G37*
G36*
X61000D02*
Y391000D01*
X65919D01*
X65652Y392341D01*
X64326Y394326D01*
X62341Y395652D01*
X61000Y395919D01*
D02*
G37*
G36*
X99000D02*
X97659Y395652D01*
X95674Y394326D01*
X94348Y392341D01*
X94081Y391000D01*
X99000D01*
Y395919D01*
D02*
G37*
G36*
X81000D02*
Y391000D01*
X85919D01*
X85652Y392341D01*
X84326Y394326D01*
X82341Y395652D01*
X81000Y395919D01*
D02*
G37*
G36*
X79000D02*
X77659Y395652D01*
X75674Y394326D01*
X74348Y392341D01*
X74081Y391000D01*
X79000D01*
Y395919D01*
D02*
G37*
G36*
X519250Y359250D02*
X507250D01*
Y348250D01*
X509888D01*
X510014Y347250D01*
X510006Y347244D01*
X509011Y345756D01*
X508662Y344000D01*
X509011Y342244D01*
X509675Y341250D01*
X509141Y340250D01*
X507250D01*
Y329250D01*
X519250D01*
Y340250D01*
X517359D01*
X516825Y341250D01*
X517489Y342244D01*
X517838Y344000D01*
X517489Y345756D01*
X516494Y347244D01*
X516486Y347250D01*
X516612Y348250D01*
X519250D01*
Y359250D01*
D02*
G37*
G36*
X559250Y338500D02*
X554250D01*
Y329000D01*
X559250D01*
Y338500D01*
D02*
G37*
G36*
X505000Y333750D02*
X499250D01*
Y328500D01*
X505000D01*
Y333750D01*
D02*
G37*
G36*
X241000Y335919D02*
Y331000D01*
X245919D01*
X245652Y332341D01*
X244326Y334326D01*
X242341Y335652D01*
X241000Y335919D01*
D02*
G37*
G36*
X497250Y341000D02*
X491500D01*
Y335750D01*
X497250D01*
Y341000D01*
D02*
G37*
G36*
X413500Y340500D02*
X407750D01*
Y335250D01*
X413500D01*
Y340500D01*
D02*
G37*
G36*
X405750D02*
X400000D01*
Y335250D01*
X405750D01*
Y340500D01*
D02*
G37*
G36*
X497250Y333750D02*
X491500D01*
Y328500D01*
X497250D01*
Y333750D01*
D02*
G37*
G36*
X566250Y327000D02*
X561250D01*
Y317500D01*
X566250D01*
Y327000D01*
D02*
G37*
G36*
X559250D02*
X554250D01*
Y317500D01*
X559250D01*
Y327000D01*
D02*
G37*
G36*
X241000Y315919D02*
Y311000D01*
X245919D01*
X245652Y312341D01*
X244326Y314326D01*
X242341Y315652D01*
X241000Y315919D01*
D02*
G37*
G36*
X245919Y329000D02*
X241000D01*
Y324081D01*
X242341Y324348D01*
X244326Y325674D01*
X245652Y327659D01*
X245919Y329000D01*
D02*
G37*
G36*
X413500Y333250D02*
X407750D01*
Y328000D01*
X413500D01*
Y333250D01*
D02*
G37*
G36*
X405750D02*
X400000D01*
Y328000D01*
X405750D01*
Y333250D01*
D02*
G37*
G36*
X531750Y338000D02*
X520750D01*
Y326259D01*
X520218Y325835D01*
X519250Y326264D01*
Y326750D01*
X507250D01*
Y323799D01*
X504500D01*
Y327000D01*
X493000D01*
X492943Y327000D01*
X492500Y327088D01*
X492000Y327000D01*
Y326989D01*
X490744Y326739D01*
X489256Y325744D01*
X488261Y324256D01*
X487912Y322500D01*
X488261Y320744D01*
X489256Y319256D01*
X490744Y318261D01*
X492000Y318011D01*
Y315500D01*
X504500D01*
Y318701D01*
X507250D01*
Y315750D01*
X519250D01*
Y317876D01*
X520250Y318375D01*
X520750Y318000D01*
Y318000D01*
X531750D01*
Y338000D01*
D02*
G37*
G36*
X505000Y341000D02*
X499250D01*
Y335750D01*
X505000D01*
Y341000D01*
D02*
G37*
G36*
X401500Y356750D02*
X396250D01*
Y351000D01*
X401500D01*
Y356750D01*
D02*
G37*
G36*
X492500Y374588D02*
X490744Y374239D01*
X489256Y373244D01*
X488261Y371756D01*
X487912Y370000D01*
X488261Y368244D01*
X489256Y366756D01*
X490744Y365761D01*
X492000Y365511D01*
Y361500D01*
X504500D01*
Y364701D01*
X507250D01*
Y361750D01*
X519250D01*
Y362236D01*
X520218Y362665D01*
X520750Y362241D01*
Y350500D01*
X531750D01*
Y370500D01*
X520750D01*
Y370500D01*
X520250Y370125D01*
X519250Y370624D01*
Y372750D01*
X507250D01*
Y369799D01*
X504500D01*
Y373000D01*
X495908D01*
X495744Y373244D01*
X494256Y374239D01*
X492500Y374588D01*
D02*
G37*
G36*
X559250Y359500D02*
X554250D01*
Y350000D01*
X559250D01*
Y359500D01*
D02*
G37*
G36*
X241000Y355919D02*
Y351000D01*
X245919D01*
X245652Y352341D01*
X244326Y354326D01*
X242341Y355652D01*
X241000Y355919D01*
D02*
G37*
G36*
X505000Y360000D02*
X499250D01*
Y354750D01*
X505000D01*
Y360000D01*
D02*
G37*
G36*
X497250D02*
X491500D01*
Y354750D01*
X497250D01*
Y360000D01*
D02*
G37*
G36*
X408750Y356750D02*
X403500D01*
Y351000D01*
X408750D01*
Y356750D01*
D02*
G37*
G36*
X505000Y352750D02*
X499250D01*
Y347500D01*
X505000D01*
Y352750D01*
D02*
G37*
G36*
X408750Y349000D02*
X403500D01*
Y343250D01*
X408750D01*
Y349000D01*
D02*
G37*
G36*
X401500D02*
X396250D01*
Y343250D01*
X401500D01*
Y349000D01*
D02*
G37*
G36*
X420500Y338250D02*
X416500D01*
Y336000D01*
X420500D01*
Y338250D01*
D02*
G37*
G36*
X421750Y401250D02*
X410250D01*
Y388750D01*
X410872D01*
X411507Y387977D01*
X411412Y387500D01*
X411507Y387023D01*
X410872Y386250D01*
X410250D01*
Y373750D01*
X412941D01*
Y371250D01*
X410250D01*
Y358750D01*
X410872D01*
X411507Y357977D01*
X411412Y357500D01*
X411507Y357023D01*
X410872Y356250D01*
X410250D01*
Y343750D01*
X421750D01*
Y356250D01*
X421128D01*
X420493Y357023D01*
X420588Y357500D01*
X420493Y357977D01*
X421128Y358750D01*
X421750D01*
Y371250D01*
X419059D01*
Y373750D01*
X421750D01*
Y386250D01*
X421128D01*
X420493Y387023D01*
X420588Y387500D01*
X420493Y387977D01*
X421128Y388750D01*
X421750D01*
Y401250D01*
D02*
G37*
G36*
X497250Y352750D02*
X491500D01*
Y347500D01*
X497250D01*
Y352750D01*
D02*
G37*
G36*
X449000Y356588D02*
X447244Y356239D01*
X446887Y356000D01*
X438000D01*
Y348105D01*
X437448Y347552D01*
X437351Y347408D01*
X437188Y347336D01*
X436149Y347408D01*
X436052Y347552D01*
X435500Y348105D01*
Y356000D01*
X424500D01*
Y344000D01*
X431701D01*
Y338750D01*
X430250D01*
Y334750D01*
Y330750D01*
X432500D01*
Y331250D01*
X441000D01*
Y330750D01*
X443250D01*
Y334750D01*
Y338750D01*
X441799D01*
Y344000D01*
X449000D01*
Y347412D01*
X449000Y347412D01*
X450756Y347761D01*
X452244Y348756D01*
X453239Y350244D01*
X453588Y352000D01*
X453239Y353756D01*
X452244Y355244D01*
X450756Y356239D01*
X449000Y356588D01*
D02*
G37*
G36*
X245919Y349000D02*
X241000D01*
Y344081D01*
X242341Y344348D01*
X244326Y345674D01*
X245652Y347659D01*
X245919Y349000D01*
D02*
G37*
G36*
X181000Y395919D02*
Y391000D01*
X185919D01*
X185652Y392341D01*
X184326Y394326D01*
X182341Y395652D01*
X181000Y395919D01*
D02*
G37*
G36*
X316200Y455000D02*
X311400D01*
Y439000D01*
X316200D01*
Y455000D01*
D02*
G37*
G36*
X290800D02*
X286000D01*
Y439000D01*
X290800D01*
Y455000D01*
D02*
G37*
G36*
X278100D02*
X273300D01*
Y439000D01*
X278100D01*
Y455000D01*
D02*
G37*
G36*
X92399Y454000D02*
X88500D01*
Y450101D01*
X89451Y450290D01*
X91105Y451395D01*
X92210Y453049D01*
X92399Y454000D01*
D02*
G37*
G36*
X290300Y493500D02*
X279700D01*
Y460500D01*
X290300D01*
Y493500D01*
D02*
G37*
G36*
X584600Y462000D02*
X556600D01*
Y459049D01*
X551300D01*
Y462000D01*
X527300D01*
Y451000D01*
X535412D01*
X535761Y449244D01*
X536756Y447756D01*
X538244Y446761D01*
X540000Y446412D01*
X541756Y446761D01*
X543244Y447756D01*
X544239Y449244D01*
X544588Y451000D01*
X551300D01*
Y453951D01*
X556600D01*
Y451000D01*
X567412D01*
X567761Y449244D01*
X568756Y447756D01*
X570244Y446761D01*
X572000Y446412D01*
X573756Y446761D01*
X575244Y447756D01*
X576239Y449244D01*
X576588Y451000D01*
X584600D01*
Y462000D01*
D02*
G37*
G36*
X23910Y475860D02*
X5410D01*
Y457860D01*
X23910D01*
Y475860D01*
D02*
G37*
G36*
X284000Y455000D02*
X279200D01*
Y439000D01*
X284000D01*
Y455000D01*
D02*
G37*
G36*
X334000Y441750D02*
X324500D01*
Y436750D01*
X334000D01*
Y441750D01*
D02*
G37*
G36*
X423850Y473400D02*
X386150D01*
Y452600D01*
X408941D01*
Y448500D01*
X407750D01*
Y447293D01*
X407500Y447088D01*
X405744Y446739D01*
X404256Y445744D01*
X403261Y444256D01*
X402912Y442500D01*
X403261Y440744D01*
X404256Y439256D01*
X405744Y438261D01*
X407500Y437912D01*
X407750Y437707D01*
Y436500D01*
X418750D01*
Y448500D01*
X415059D01*
Y452600D01*
X423850D01*
Y473400D01*
D02*
G37*
G36*
X261500Y454567D02*
X257700D01*
X256373Y454303D01*
X255249Y453551D01*
X254497Y452427D01*
X254233Y451100D01*
Y436599D01*
X253184Y435549D01*
X252517Y435995D01*
X250761Y436344D01*
X249005Y435995D01*
X247517Y435000D01*
X246522Y433512D01*
X246173Y431756D01*
X246522Y430000D01*
X247517Y428512D01*
X249005Y427517D01*
X250761Y427168D01*
X252517Y427517D01*
X253233Y427996D01*
X254233Y427461D01*
Y424900D01*
X254497Y423573D01*
X255249Y422449D01*
X256373Y421697D01*
X257700Y421433D01*
X261500D01*
X262827Y421697D01*
X263951Y422449D01*
X264703Y423573D01*
X264967Y424900D01*
Y451100D01*
X264703Y452427D01*
X263951Y453551D01*
X262827Y454303D01*
X261500Y454567D01*
D02*
G37*
G36*
X345500Y441750D02*
X336000D01*
Y436750D01*
X345500D01*
Y441750D01*
D02*
G37*
G36*
X309400Y455000D02*
X304600D01*
Y439000D01*
X309400D01*
Y455000D01*
D02*
G37*
G36*
X271300D02*
X266500D01*
Y439000D01*
X271300D01*
Y455000D01*
D02*
G37*
G36*
X23910Y455860D02*
X5410D01*
Y437860D01*
X23910D01*
Y455860D01*
D02*
G37*
G36*
X303000Y493500D02*
X292400D01*
Y460500D01*
X303000D01*
Y493500D01*
D02*
G37*
G36*
X569600Y487900D02*
X556100D01*
Y482900D01*
X569600D01*
Y487900D01*
D02*
G37*
G36*
X42660Y490047D02*
Y482860D01*
X49630D01*
X49454Y484198D01*
X48648Y486144D01*
X47366Y487816D01*
X45694Y489098D01*
X43748Y489904D01*
X42660Y490047D01*
D02*
G37*
G36*
X40660Y490047D02*
X39572Y489904D01*
X37626Y489098D01*
X35954Y487816D01*
X34672Y486144D01*
X33866Y484198D01*
X33690Y482860D01*
X40660D01*
Y490047D01*
D02*
G37*
G36*
X585100Y487900D02*
X571600D01*
Y482900D01*
X585100D01*
Y487900D01*
D02*
G37*
G36*
X13660Y498425D02*
X10785D01*
X8493Y497969D01*
X6549Y496671D01*
X5251Y494727D01*
X4795Y492435D01*
Y489060D01*
X13660D01*
Y498425D01*
D02*
G37*
G36*
X551800Y487900D02*
X540300D01*
Y482900D01*
X551800D01*
Y487900D01*
D02*
G37*
G36*
X584600Y512800D02*
X556600D01*
Y501800D01*
X558884D01*
X559266Y500876D01*
X554362Y495972D01*
X527500D01*
X526171Y495707D01*
X525045Y494955D01*
X491562Y461472D01*
X475350D01*
Y468400D01*
X437650D01*
Y452560D01*
X433174Y448084D01*
X432250Y448466D01*
Y448500D01*
X421250D01*
Y436500D01*
X432250D01*
Y439028D01*
X432500D01*
X433829Y439293D01*
X434955Y440045D01*
X435101Y440191D01*
X435744Y439761D01*
X437500Y439412D01*
X439256Y439761D01*
X440744Y440756D01*
X441739Y442244D01*
X442088Y444000D01*
X441739Y445756D01*
X441309Y446399D01*
X442510Y447600D01*
X475350D01*
Y454528D01*
X493000D01*
X494328Y454793D01*
X495455Y455545D01*
X525876Y485966D01*
X526800Y485584D01*
Y482900D01*
X538300D01*
Y487900D01*
X530180D01*
X529646Y488900D01*
X529731Y489028D01*
X555800D01*
X557129Y489293D01*
X558255Y490045D01*
X570010Y501800D01*
X584600D01*
Y512800D01*
D02*
G37*
G36*
X24525Y487060D02*
X15660D01*
Y477695D01*
X18535D01*
X20827Y478151D01*
X22771Y479449D01*
X24069Y481393D01*
X24525Y483685D01*
Y487060D01*
D02*
G37*
G36*
X551800Y480900D02*
X540300D01*
Y475900D01*
X551800D01*
Y480900D01*
D02*
G37*
G36*
X538300D02*
X526800D01*
Y475900D01*
X538300D01*
Y480900D01*
D02*
G37*
G36*
X610700Y477773D02*
X608481Y477481D01*
X606413Y476625D01*
X604638Y475262D01*
X603275Y473487D01*
X602419Y471419D01*
X602127Y469200D01*
X602419Y466981D01*
X603275Y464913D01*
X604638Y463138D01*
X606413Y461775D01*
X608481Y460919D01*
X610700Y460627D01*
X612919Y460919D01*
X614987Y461775D01*
X616762Y463138D01*
X618125Y464913D01*
X618981Y466981D01*
X619273Y469200D01*
X618981Y471419D01*
X618125Y473487D01*
X616762Y475262D01*
X614987Y476625D01*
X612919Y477481D01*
X610700Y477773D01*
D02*
G37*
G36*
X569600Y480900D02*
X556100D01*
Y475900D01*
X569600D01*
Y480900D01*
D02*
G37*
G36*
X13660Y487060D02*
X4795D01*
Y483685D01*
X5251Y481393D01*
X6549Y479449D01*
X8493Y478151D01*
X10785Y477695D01*
X13660D01*
Y487060D01*
D02*
G37*
G36*
X340000Y482500D02*
X334750D01*
Y476750D01*
X340000D01*
Y482500D01*
D02*
G37*
G36*
X585100Y480900D02*
X571600D01*
Y475900D01*
X585100D01*
Y480900D01*
D02*
G37*
G36*
X140250Y421389D02*
X139494Y421239D01*
X138006Y420244D01*
X137011Y418756D01*
X136861Y418000D01*
X140250D01*
Y421389D01*
D02*
G37*
G36*
X24525Y424660D02*
X15660D01*
Y415295D01*
X18535D01*
X20827Y415751D01*
X22771Y417049D01*
X24069Y418993D01*
X24525Y421285D01*
Y424660D01*
D02*
G37*
G36*
X13660D02*
X4795D01*
Y421285D01*
X5251Y418993D01*
X6549Y417049D01*
X8493Y415751D01*
X10785Y415295D01*
X13660D01*
Y424660D01*
D02*
G37*
G36*
X142250Y421389D02*
Y418000D01*
X145639D01*
X145489Y418756D01*
X144494Y420244D01*
X143006Y421239D01*
X142250Y421389D01*
D02*
G37*
G36*
X284000Y437000D02*
X279200D01*
Y421000D01*
X284000D01*
Y437000D01*
D02*
G37*
G36*
X278100D02*
X273300D01*
Y421000D01*
X278100D01*
Y437000D01*
D02*
G37*
G36*
X271300D02*
X266500D01*
Y421000D01*
X271300D01*
Y437000D01*
D02*
G37*
G36*
X408750Y401750D02*
X403500D01*
Y396000D01*
X408750D01*
Y401750D01*
D02*
G37*
G36*
X219000Y395919D02*
X217659Y395652D01*
X215674Y394326D01*
X214348Y392341D01*
X214081Y391000D01*
X219000D01*
Y395919D01*
D02*
G37*
G36*
X201000D02*
Y391000D01*
X205919D01*
X205652Y392341D01*
X204326Y394326D01*
X202341Y395652D01*
X201000Y395919D01*
D02*
G37*
G36*
X199000D02*
X197659Y395652D01*
X195674Y394326D01*
X194348Y392341D01*
X194081Y391000D01*
X199000D01*
Y395919D01*
D02*
G37*
G36*
X221000D02*
Y391000D01*
X225919D01*
X225652Y392341D01*
X224326Y394326D01*
X222341Y395652D01*
X221000Y395919D01*
D02*
G37*
G36*
X401500Y401750D02*
X396250D01*
Y396000D01*
X401500D01*
Y401750D01*
D02*
G37*
G36*
X241000Y395919D02*
Y391000D01*
X245919D01*
X245652Y392341D01*
X244326Y394326D01*
X242341Y395652D01*
X241000Y395919D01*
D02*
G37*
G36*
X239000D02*
X237659Y395652D01*
X235674Y394326D01*
X234348Y392341D01*
X234081Y391000D01*
X239000D01*
Y395919D01*
D02*
G37*
G36*
X290800Y437000D02*
X286000D01*
Y421000D01*
X290800D01*
Y437000D01*
D02*
G37*
G36*
X142250Y432389D02*
Y429000D01*
X145639D01*
X145489Y429756D01*
X144494Y431244D01*
X143006Y432239D01*
X142250Y432389D01*
D02*
G37*
G36*
X140250D02*
X139494Y432239D01*
X138006Y431244D01*
X137011Y429756D01*
X136861Y429000D01*
X140250D01*
Y432389D01*
D02*
G37*
G36*
X18535Y436025D02*
X15660D01*
Y426660D01*
X24525D01*
Y430035D01*
X24069Y432327D01*
X22771Y434271D01*
X20827Y435569D01*
X18535Y436025D01*
D02*
G37*
G36*
X121000Y438588D02*
X119244Y438239D01*
X117756Y437244D01*
X116761Y435756D01*
X116412Y434000D01*
X116761Y432244D01*
X117756Y430756D01*
X119244Y429761D01*
X121000Y429412D01*
X122756Y429761D01*
X124244Y430756D01*
X125239Y432244D01*
X125588Y434000D01*
X125239Y435756D01*
X124244Y437244D01*
X122756Y438239D01*
X121000Y438588D01*
D02*
G37*
G36*
X50410Y442860D02*
X41660D01*
X32910D01*
Y439860D01*
X36976D01*
X37315Y438860D01*
X35954Y437816D01*
X34672Y436144D01*
X33866Y434198D01*
X33690Y432860D01*
X41660D01*
X49630D01*
X49454Y434198D01*
X48648Y436144D01*
X47366Y437816D01*
X46005Y438860D01*
X46344Y439860D01*
X50410D01*
Y442860D01*
D02*
G37*
G36*
X345500Y434750D02*
X336000D01*
Y429750D01*
X345500D01*
Y434750D01*
D02*
G37*
G36*
X334000D02*
X324500D01*
Y429750D01*
X334000D01*
Y434750D01*
D02*
G37*
G36*
X13660Y436025D02*
X10785D01*
X8493Y435569D01*
X6549Y434271D01*
X5251Y432327D01*
X4795Y430035D01*
Y426660D01*
X13660D01*
Y436025D01*
D02*
G37*
G36*
X303000Y454500D02*
X292400D01*
Y421500D01*
X303000D01*
Y454500D01*
D02*
G37*
G36*
X316200Y437000D02*
X311400D01*
Y421000D01*
X316200D01*
Y437000D01*
D02*
G37*
G36*
X309400D02*
X304600D01*
Y421000D01*
X309400D01*
Y437000D01*
D02*
G37*
G36*
X140250Y427000D02*
X136861D01*
X137011Y426244D01*
X138006Y424756D01*
X139494Y423761D01*
X140250Y423611D01*
Y427000D01*
D02*
G37*
G36*
X40660Y430860D02*
X33690D01*
X33866Y429522D01*
X34672Y427575D01*
X35954Y425904D01*
X37626Y424622D01*
X39572Y423816D01*
X40660Y423673D01*
Y430860D01*
D02*
G37*
G36*
X49630D02*
X42660D01*
Y423673D01*
X43748Y423816D01*
X45694Y424622D01*
X47366Y425904D01*
X48648Y427575D01*
X49454Y429522D01*
X49630Y430860D01*
D02*
G37*
G36*
X145639Y427000D02*
X142250D01*
Y423611D01*
X143006Y423761D01*
X144494Y424756D01*
X145489Y426244D01*
X145639Y427000D01*
D02*
G37*
G36*
X245919Y309000D02*
X241000D01*
Y304081D01*
X242341Y304348D01*
X244326Y305674D01*
X245652Y307659D01*
X245919Y309000D01*
D02*
G37*
G36*
X383000Y108000D02*
X379500D01*
Y107500D01*
X364000D01*
Y107500D01*
X364000D01*
Y107500D01*
X357000D01*
X356000Y107500D01*
X355000Y107500D01*
X340000D01*
Y107500D01*
X340000D01*
Y107500D01*
X324000D01*
Y96500D01*
X336835D01*
X337138Y95500D01*
X336755Y95244D01*
X335760Y93756D01*
X335411Y92000D01*
X335760Y90244D01*
X336755Y88756D01*
X338243Y87761D01*
X339999Y87412D01*
X341755Y87761D01*
X343244Y88756D01*
X343500Y89139D01*
X344500D01*
X344756Y88756D01*
X346244Y87761D01*
X348000Y87412D01*
X349756Y87761D01*
X351244Y88756D01*
X352239Y90244D01*
X352588Y92000D01*
X352425Y92820D01*
X353802Y94198D01*
X354355Y95024D01*
X354549Y96000D01*
X355049Y96500D01*
X356000Y96500D01*
X356744Y96500D01*
X357451Y95793D01*
Y93841D01*
X355698Y92088D01*
X355145Y91261D01*
X354951Y90286D01*
Y34756D01*
X348139Y27944D01*
X346149Y28768D01*
X343800Y29078D01*
X341451Y28768D01*
X339261Y27861D01*
X337381Y26419D01*
X335938Y24539D01*
X335032Y22350D01*
X334722Y20000D01*
X335032Y17651D01*
X335938Y15461D01*
X337381Y13581D01*
X339261Y12139D01*
X341451Y11232D01*
X343800Y10922D01*
X346149Y11232D01*
X348339Y12139D01*
X350219Y13581D01*
X351661Y15461D01*
X352568Y17651D01*
X352878Y20000D01*
X352568Y22350D01*
X351744Y24339D01*
X359302Y31898D01*
X359855Y32725D01*
X360049Y33700D01*
Y69499D01*
X360931Y69970D01*
X361244Y69761D01*
X363000Y69412D01*
X364756Y69761D01*
X366244Y70756D01*
X367201Y72188D01*
X367275Y72199D01*
X368201Y71723D01*
Y58250D01*
X368395Y57274D01*
X368948Y56448D01*
X392051Y33344D01*
Y28686D01*
X390061Y27861D01*
X388181Y26419D01*
X386739Y24539D01*
X385832Y22350D01*
X385522Y20000D01*
X385832Y17651D01*
X386739Y15461D01*
X388181Y13581D01*
X390061Y12139D01*
X392251Y11232D01*
X394600Y10922D01*
X396950Y11232D01*
X399139Y12139D01*
X401019Y13581D01*
X402462Y15461D01*
X403368Y17651D01*
X403678Y20000D01*
X403368Y22350D01*
X402462Y24539D01*
X401019Y26419D01*
X399139Y27861D01*
X397149Y28686D01*
Y34400D01*
X396955Y35375D01*
X396402Y36202D01*
X373299Y59306D01*
Y79000D01*
X383250D01*
Y82451D01*
X384750D01*
Y79000D01*
X395750D01*
Y91000D01*
X384750D01*
Y87549D01*
X383250D01*
Y91000D01*
X378549D01*
Y95882D01*
X379500Y96000D01*
Y96000D01*
X383000D01*
Y102000D01*
Y108000D01*
D02*
G37*
G36*
X434500Y125000D02*
X428500D01*
X422500D01*
Y121500D01*
X423000D01*
Y114000D01*
Y106000D01*
X434000D01*
X434000Y106000D01*
Y106000D01*
X435000Y106258D01*
X435744Y105761D01*
X437500Y105412D01*
X439256Y105761D01*
X440744Y106756D01*
X441739Y108244D01*
X442088Y110000D01*
X441739Y111756D01*
X440744Y113244D01*
X440112Y113667D01*
Y114531D01*
X440256Y114773D01*
X441239Y116244D01*
X441588Y118000D01*
X441239Y119756D01*
X440244Y121244D01*
X438756Y122239D01*
X437000Y122588D01*
X435500Y122290D01*
X434500Y122853D01*
Y125000D01*
D02*
G37*
G36*
X291500Y109000D02*
X286581D01*
X286848Y107659D01*
X288174Y105674D01*
X290159Y104348D01*
X291500Y104081D01*
Y109000D01*
D02*
G37*
G36*
X382000Y128000D02*
X372000D01*
X362000D01*
Y119000D01*
X371101D01*
X371290Y118049D01*
X372395Y116395D01*
X374049Y115290D01*
X375000Y115101D01*
Y120000D01*
X377000D01*
Y115101D01*
X377951Y115290D01*
X379605Y116395D01*
X380710Y118049D01*
X380899Y119000D01*
X382000D01*
Y128000D01*
D02*
G37*
G36*
X404000Y125000D02*
X401000Y122000D01*
X404000D01*
Y125000D01*
D02*
G37*
G36*
X357000Y128000D02*
X348000D01*
Y119000D01*
X357000D01*
Y128000D01*
D02*
G37*
G36*
X346000D02*
X337000D01*
Y119000D01*
X346000D01*
Y128000D01*
D02*
G37*
G36*
X263919Y109000D02*
X259000D01*
Y104081D01*
X260341Y104348D01*
X262326Y105674D01*
X263652Y107659D01*
X263919Y109000D01*
D02*
G37*
G36*
X593600Y124400D02*
X582600D01*
Y96400D01*
X593600D01*
Y124400D01*
D02*
G37*
G36*
X575400Y208850D02*
X554600D01*
Y171150D01*
X569951D01*
Y121256D01*
X569124Y120428D01*
X568200Y120811D01*
Y124400D01*
X557200D01*
Y98305D01*
X548944Y90049D01*
X502500D01*
X501525Y89855D01*
X500698Y89302D01*
X456444Y45049D01*
X453764D01*
X453354Y45580D01*
X453244Y45744D01*
X453209Y45768D01*
X453166Y45824D01*
X453389Y46850D01*
X454744Y47756D01*
X455739Y49244D01*
X456088Y51000D01*
X455925Y51820D01*
X501802Y97698D01*
X502355Y98525D01*
X502549Y99500D01*
Y121444D01*
X504976Y123871D01*
X505900Y123489D01*
Y111400D01*
X511900D01*
X517900D01*
Y124900D01*
X518879Y124951D01*
X519144D01*
X531800Y112295D01*
Y96400D01*
X542800D01*
Y124400D01*
X531800D01*
Y120811D01*
X530876Y120428D01*
X522002Y129302D01*
X521175Y129855D01*
X520200Y130049D01*
X517900D01*
Y140699D01*
X511900D01*
X505900D01*
Y131511D01*
X504976Y131129D01*
X502549Y133556D01*
Y155000D01*
X502355Y155975D01*
X501802Y156802D01*
X492549Y166056D01*
Y171150D01*
X500400D01*
Y208850D01*
X479600D01*
Y171150D01*
X487451D01*
Y165000D01*
X487645Y164025D01*
X488198Y163198D01*
X497451Y153944D01*
Y132500D01*
X497645Y131525D01*
X498198Y130698D01*
X501395Y127500D01*
X498198Y124302D01*
X497645Y123475D01*
X497451Y122500D01*
Y100556D01*
X492791Y95896D01*
X492000Y96519D01*
X492000Y97350D01*
Y124400D01*
X491229D01*
X490770Y125400D01*
X491088Y127000D01*
X490750Y128700D01*
X490746Y128875D01*
X491259Y129700D01*
X492000D01*
Y153700D01*
X491449D01*
X491239Y154756D01*
X490244Y156244D01*
X488756Y157239D01*
X487000Y157588D01*
X485244Y157239D01*
X483756Y156244D01*
X482761Y154756D01*
X482551Y153700D01*
X481000D01*
Y129700D01*
X481741D01*
X482253Y128875D01*
X482250Y128700D01*
X481912Y127000D01*
X482230Y125400D01*
X481771Y124400D01*
X481000D01*
Y96400D01*
X491007D01*
X491881Y96400D01*
X492504Y95608D01*
X452320Y55425D01*
X451500Y55588D01*
X449744Y55239D01*
X448256Y54244D01*
X447261Y52756D01*
X446912Y51000D01*
X447261Y49244D01*
X448256Y47756D01*
X448339Y47700D01*
X448111Y46650D01*
X446756Y45744D01*
X445761Y44256D01*
X445412Y42500D01*
X445761Y40744D01*
X446756Y39256D01*
X448244Y38261D01*
X450000Y37912D01*
X451756Y38261D01*
X453244Y39256D01*
X453709Y39951D01*
X457500D01*
X458475Y40145D01*
X459302Y40698D01*
X489788Y71183D01*
X490685Y70741D01*
X490627Y70300D01*
X490919Y68081D01*
X491775Y66013D01*
X493138Y64237D01*
X494913Y62875D01*
X496981Y62018D01*
X499200Y61726D01*
X501419Y62018D01*
X503487Y62875D01*
X505262Y64237D01*
X506625Y66013D01*
X507481Y68081D01*
X507773Y70300D01*
X507481Y72519D01*
X506625Y74586D01*
X505262Y76362D01*
X503487Y77724D01*
X501419Y78581D01*
X499200Y78873D01*
X498759Y78815D01*
X498317Y79712D01*
X503556Y84951D01*
X550000D01*
X550975Y85145D01*
X551802Y85698D01*
X562504Y96400D01*
X568200D01*
Y112295D01*
X574302Y118397D01*
X574855Y119224D01*
X575049Y120200D01*
Y171150D01*
X575400D01*
Y208850D01*
D02*
G37*
G36*
X517900Y109400D02*
X512900D01*
Y95900D01*
X517900D01*
Y109400D01*
D02*
G37*
G36*
X619000Y124400D02*
X608000D01*
Y96400D01*
X619000D01*
Y124400D01*
D02*
G37*
G36*
X257000Y109000D02*
X252081D01*
X252348Y107659D01*
X253674Y105674D01*
X255659Y104348D01*
X257000Y104081D01*
Y109000D01*
D02*
G37*
G36*
X241000Y105919D02*
Y101000D01*
X245919D01*
X245652Y102341D01*
X244326Y104326D01*
X242341Y105652D01*
X241000Y105919D01*
D02*
G37*
G36*
X388500Y108000D02*
X385000D01*
Y102000D01*
Y96000D01*
X388500D01*
Y96500D01*
X403000D01*
X404000Y96500D01*
X405000Y96500D01*
X420000D01*
Y107500D01*
X405000D01*
X404000Y107500D01*
X403000Y107500D01*
X388500D01*
Y108000D01*
D02*
G37*
G36*
X269000Y129500D02*
X257000D01*
Y123250D01*
X269000D01*
Y129500D01*
D02*
G37*
G36*
X382000Y153000D02*
X372000D01*
X362000D01*
Y144000D01*
X370930D01*
X371402Y143118D01*
X371290Y142951D01*
X371101Y142000D01*
X380899D01*
X380710Y142951D01*
X380598Y143118D01*
X381070Y144000D01*
X382000D01*
Y153000D01*
D02*
G37*
G36*
X321500Y181000D02*
X309500D01*
Y177500D01*
X310000D01*
Y171000D01*
X310000Y170000D01*
X310000Y169000D01*
X310000Y162000D01*
X310000Y161000D01*
Y154000D01*
Y147000D01*
X310000Y146000D01*
X310000Y145000D01*
Y142140D01*
X302959Y135100D01*
X302250Y134500D01*
Y134500D01*
X302250Y134500D01*
X294291D01*
X294001Y135457D01*
X294326Y135674D01*
X295652Y137659D01*
X295919Y139000D01*
X284081D01*
X284348Y137659D01*
X285674Y135674D01*
X287659Y134348D01*
X289750Y133932D01*
Y123000D01*
X302057D01*
X302500Y122912D01*
X304256Y123261D01*
X305744Y124256D01*
X306739Y125744D01*
X307088Y127500D01*
X306739Y129256D01*
X305772Y130703D01*
X309076Y134007D01*
X310000Y133624D01*
Y126605D01*
X303674Y120279D01*
X302750Y120661D01*
Y121500D01*
X297000D01*
Y115250D01*
X295000D01*
Y121500D01*
X289250D01*
Y115045D01*
X288174Y114326D01*
X286848Y112341D01*
X286581Y111000D01*
X292500D01*
Y110000D01*
X293500D01*
Y104081D01*
X294202Y104221D01*
X294695Y103299D01*
X294198Y102802D01*
X293645Y101975D01*
X293451Y101000D01*
Y96500D01*
X289750D01*
Y93299D01*
X288000D01*
Y96250D01*
X276000D01*
Y93549D01*
X268000D01*
Y94000D01*
X248000D01*
Y83000D01*
X268000D01*
Y88451D01*
X276000D01*
Y85250D01*
X288000D01*
Y88201D01*
X289750D01*
Y85000D01*
X302250D01*
Y88066D01*
X303250Y88145D01*
X315851Y75544D01*
Y28686D01*
X313861Y27861D01*
X311981Y26419D01*
X310539Y24539D01*
X309632Y22350D01*
X309322Y20000D01*
X309632Y17651D01*
X310539Y15461D01*
X311981Y13581D01*
X313861Y12139D01*
X316050Y11232D01*
X318400Y10922D01*
X320750Y11232D01*
X322939Y12139D01*
X324819Y13581D01*
X326261Y15461D01*
X327168Y17651D01*
X327478Y20000D01*
X327168Y22350D01*
X326261Y24539D01*
X324819Y26419D01*
X322939Y27861D01*
X320949Y28686D01*
Y76600D01*
X320755Y77575D01*
X320202Y78402D01*
X311517Y87088D01*
X312010Y88009D01*
X312500Y87912D01*
X314256Y88261D01*
X315744Y89256D01*
X316739Y90744D01*
X317088Y92500D01*
X316739Y94256D01*
X315744Y95744D01*
X315049Y96209D01*
Y106000D01*
X321000D01*
Y114000D01*
Y122000D01*
X321000D01*
X321000Y123000D01*
Y130000D01*
Y138000D01*
X321000D01*
Y138000D01*
X321000D01*
Y145000D01*
X321000Y146000D01*
X321000Y147000D01*
Y154000D01*
Y161000D01*
X321000Y162000D01*
X321000Y163000D01*
Y169000D01*
X321000Y170000D01*
X321000Y171000D01*
Y177500D01*
X321500D01*
Y181000D01*
D02*
G37*
G36*
X245919Y139000D02*
X241000D01*
Y134081D01*
X242341Y134348D01*
X244326Y135674D01*
X245652Y137659D01*
X245919Y139000D01*
D02*
G37*
G36*
X510900Y154200D02*
X505900D01*
Y142699D01*
X510900D01*
Y154200D01*
D02*
G37*
G36*
X357000Y153000D02*
X348000D01*
Y144000D01*
X357000D01*
Y153000D01*
D02*
G37*
G36*
X346000D02*
X337000D01*
Y144000D01*
X346000D01*
Y153000D01*
D02*
G37*
G36*
X517900Y154200D02*
X512900D01*
Y142699D01*
X517900D01*
Y154200D01*
D02*
G37*
G36*
X357000Y139000D02*
X348000D01*
Y130000D01*
X357000D01*
Y139000D01*
D02*
G37*
G36*
X519000Y213588D02*
X517244Y213239D01*
X515756Y212244D01*
X514761Y210756D01*
X514412Y209000D01*
X514289Y208850D01*
X504600D01*
Y171150D01*
X515245D01*
X531745Y154650D01*
X531800Y153700D01*
X531800D01*
X531800Y153700D01*
Y129700D01*
X542800D01*
Y153700D01*
X539639D01*
X539102Y154502D01*
X523379Y170226D01*
X523761Y171150D01*
X525400D01*
Y208850D01*
X523711D01*
X523588Y209000D01*
X523239Y210756D01*
X522244Y212244D01*
X520756Y213239D01*
X519000Y213588D01*
D02*
G37*
G36*
X434500Y157000D02*
X428500D01*
X422500D01*
Y153500D01*
X423000D01*
Y147000D01*
X423000Y146000D01*
X423000D01*
Y146000D01*
X423000D01*
Y139000D01*
X423000Y138000D01*
X423000Y137000D01*
Y130500D01*
X422500D01*
Y127000D01*
X428500D01*
X434500D01*
Y130500D01*
X435317Y130941D01*
X441102D01*
X442494Y130011D01*
X444250Y129662D01*
X446006Y130011D01*
X447494Y131006D01*
X448489Y132494D01*
X448838Y134250D01*
X448489Y136006D01*
X447494Y137494D01*
X446006Y138489D01*
X444250Y138838D01*
X443387Y138667D01*
X442786Y139567D01*
X443239Y140244D01*
X443588Y142000D01*
X443239Y143756D01*
X442244Y145244D01*
X440756Y146239D01*
X439000Y146588D01*
X437244Y146239D01*
X435756Y145244D01*
X435632Y145059D01*
X434142D01*
X434000Y146000D01*
X434000D01*
Y153500D01*
X434500D01*
Y157000D01*
D02*
G37*
G36*
X255000Y129500D02*
X243000D01*
Y126323D01*
X242000Y125720D01*
X241000Y125919D01*
Y120000D01*
Y114081D01*
X242341Y114348D01*
X243317Y115000D01*
X253020D01*
X253457Y114000D01*
X252348Y112341D01*
X252081Y111000D01*
X263919D01*
X263652Y112341D01*
X262543Y114000D01*
X262980Y115000D01*
X269000D01*
Y121250D01*
X256000D01*
Y122250D01*
X255000D01*
Y129500D01*
D02*
G37*
G36*
X540000Y213588D02*
X538244Y213239D01*
X536756Y212244D01*
X535761Y210756D01*
X535412Y209000D01*
X535289Y208850D01*
X529600D01*
Y171150D01*
X537451D01*
Y165000D01*
X537645Y164025D01*
X538198Y163198D01*
X557200Y144195D01*
Y129700D01*
X568200D01*
Y153700D01*
X557200D01*
Y152711D01*
X556276Y152329D01*
X542549Y166056D01*
Y171150D01*
X550400D01*
Y208850D01*
X544711D01*
X544588Y209000D01*
X544239Y210756D01*
X543244Y212244D01*
X541756Y213239D01*
X540000Y213588D01*
D02*
G37*
G36*
X380899Y140000D02*
X371101D01*
X370280Y139000D01*
X362000D01*
Y130000D01*
X372000D01*
X382000D01*
Y139000D01*
X381720D01*
X380899Y140000D01*
D02*
G37*
G36*
X346000Y139000D02*
X337000D01*
Y130000D01*
X346000D01*
Y139000D01*
D02*
G37*
G36*
X590000Y212088D02*
X588244Y211739D01*
X586756Y210744D01*
X585761Y209256D01*
X585680Y208850D01*
X579600D01*
Y171150D01*
X585551D01*
Y153700D01*
X582600D01*
Y129700D01*
X593600D01*
Y153700D01*
X590649D01*
Y171150D01*
X600400D01*
Y208850D01*
X594320D01*
X594239Y209256D01*
X593244Y210744D01*
X591756Y211739D01*
X590000Y212088D01*
D02*
G37*
G36*
X241000Y45919D02*
Y41000D01*
X245919D01*
X245652Y42341D01*
X244326Y44326D01*
X242341Y45652D01*
X241000Y45919D01*
D02*
G37*
G36*
X245919Y39000D02*
X241000D01*
Y34081D01*
X242341Y34348D01*
X244326Y35674D01*
X245652Y37659D01*
X245919Y39000D01*
D02*
G37*
G36*
X370200Y29450D02*
Y21000D01*
X378650D01*
X378456Y22480D01*
X377498Y24791D01*
X375975Y26776D01*
X373991Y28298D01*
X371680Y29255D01*
X370200Y29450D01*
D02*
G37*
G36*
X257000Y53500D02*
X247500D01*
Y48500D01*
X257000D01*
Y53500D01*
D02*
G37*
G36*
X245919Y59000D02*
X241000D01*
Y54081D01*
X242341Y54348D01*
X244326Y55674D01*
X245652Y57659D01*
X245919Y59000D01*
D02*
G37*
G36*
X420000Y69588D02*
X418244Y69239D01*
X416756Y68244D01*
X415761Y66756D01*
X415412Y65000D01*
X415761Y63244D01*
X415836Y63132D01*
X415365Y62250D01*
X414000D01*
Y51250D01*
X426000D01*
Y62250D01*
X424635D01*
X424164Y63132D01*
X424239Y63244D01*
X424588Y65000D01*
X424239Y66756D01*
X423244Y68244D01*
X421756Y69239D01*
X420000Y69588D01*
D02*
G37*
G36*
X268500Y53500D02*
X259000D01*
Y48500D01*
X268500D01*
Y53500D01*
D02*
G37*
G36*
X368200Y29450D02*
X366720Y29255D01*
X364409Y28298D01*
X362425Y26776D01*
X360902Y24791D01*
X359944Y22480D01*
X359750Y21000D01*
X368200D01*
Y29450D01*
D02*
G37*
G36*
X293000Y29078D02*
X290651Y28768D01*
X288461Y27861D01*
X286581Y26419D01*
X285138Y24539D01*
X284232Y22350D01*
X283922Y20000D01*
X284232Y17651D01*
X285138Y15461D01*
X286581Y13581D01*
X288461Y12139D01*
X290651Y11232D01*
X293000Y10922D01*
X295350Y11232D01*
X297539Y12139D01*
X299419Y13581D01*
X300861Y15461D01*
X301768Y17651D01*
X302078Y20000D01*
X301768Y22350D01*
X300861Y24539D01*
X299419Y26419D01*
X297539Y27861D01*
X295350Y28768D01*
X293000Y29078D01*
D02*
G37*
G36*
X378650Y19000D02*
X370200D01*
Y10550D01*
X371680Y10745D01*
X373991Y11702D01*
X375975Y13225D01*
X377498Y15209D01*
X378456Y17520D01*
X378650Y19000D01*
D02*
G37*
G36*
X368200D02*
X359750D01*
X359944Y17520D01*
X360902Y15209D01*
X362425Y13225D01*
X364409Y11702D01*
X366720Y10745D01*
X368200Y10550D01*
Y19000D01*
D02*
G37*
G36*
X426000Y48750D02*
X414000D01*
Y37750D01*
X417451D01*
Y29000D01*
X411000D01*
Y11000D01*
X429000D01*
Y29000D01*
X422549D01*
Y37750D01*
X426000D01*
Y48750D01*
D02*
G37*
G36*
X241000Y25919D02*
Y21000D01*
X245919D01*
X245652Y22341D01*
X244326Y24326D01*
X242341Y25652D01*
X241000Y25919D01*
D02*
G37*
G36*
X245919Y19000D02*
X241000D01*
Y14081D01*
X242341Y14348D01*
X244326Y15674D01*
X245652Y17659D01*
X245919Y19000D01*
D02*
G37*
G36*
X670000Y92039D02*
X630000D01*
X629220Y91884D01*
X628558Y91442D01*
X628116Y90780D01*
X627961Y90000D01*
Y50000D01*
X628116Y49220D01*
X628558Y48558D01*
X629220Y48116D01*
X630000Y47961D01*
X645478D01*
X645627Y46961D01*
X643271Y46246D01*
X640230Y44621D01*
X637566Y42434D01*
X635379Y39769D01*
X633754Y36729D01*
X632753Y33431D01*
X632415Y30000D01*
X632753Y26569D01*
X633754Y23271D01*
X635379Y20231D01*
X637566Y17566D01*
X640230Y15379D01*
X643271Y13754D01*
X646569Y12753D01*
X650000Y12415D01*
X653431Y12753D01*
X656729Y13754D01*
X659770Y15379D01*
X662434Y17566D01*
X664621Y20231D01*
X666246Y23271D01*
X667247Y26569D01*
X667585Y30000D01*
X667247Y33431D01*
X666246Y36729D01*
X664621Y39769D01*
X662434Y42434D01*
X659770Y44621D01*
X656729Y46246D01*
X654373Y46961D01*
X654522Y47961D01*
X670000D01*
X670780Y48116D01*
X671442Y48558D01*
X671884Y49220D01*
X672039Y50000D01*
Y90000D01*
X671884Y90780D01*
X671442Y91442D01*
X670780Y91884D01*
X670000Y92039D01*
D02*
G37*
G36*
X257000Y60500D02*
X247500D01*
Y55500D01*
X257000D01*
Y60500D01*
D02*
G37*
G36*
X241000Y85919D02*
Y81000D01*
X245919D01*
X245652Y82341D01*
X244326Y84326D01*
X242341Y85652D01*
X241000Y85919D01*
D02*
G37*
G36*
X409750Y84000D02*
X404750D01*
Y78500D01*
X409750D01*
Y84000D01*
D02*
G37*
G36*
X402750D02*
X397750D01*
Y78500D01*
X402750D01*
Y84000D01*
D02*
G37*
G36*
Y91500D02*
X397750D01*
Y86000D01*
X402750D01*
Y91500D01*
D02*
G37*
G36*
X510900Y109400D02*
X505900D01*
Y95900D01*
X510900D01*
Y109400D01*
D02*
G37*
G36*
X245919Y99000D02*
X241000D01*
Y94081D01*
X242341Y94348D01*
X244326Y95674D01*
X245652Y97659D01*
X245919Y99000D01*
D02*
G37*
G36*
X409750Y91500D02*
X404750D01*
Y86000D01*
X409750D01*
Y91500D01*
D02*
G37*
G36*
X302750Y83500D02*
X297000D01*
Y78250D01*
X302750D01*
Y83500D01*
D02*
G37*
G36*
X600800Y78873D02*
X598581Y78581D01*
X596513Y77724D01*
X594738Y76362D01*
X593375Y74586D01*
X592519Y72519D01*
X592227Y70300D01*
X592519Y68081D01*
X593375Y66013D01*
X594738Y64237D01*
X596513Y62875D01*
X598581Y62018D01*
X600800Y61726D01*
X603019Y62018D01*
X605087Y62875D01*
X606862Y64237D01*
X608225Y66013D01*
X609081Y68081D01*
X609373Y70300D01*
X609081Y72519D01*
X608225Y74586D01*
X606862Y76362D01*
X605087Y77724D01*
X603019Y78581D01*
X600800Y78873D01*
D02*
G37*
G36*
X241000Y65919D02*
Y61000D01*
X245919D01*
X245652Y62341D01*
X244326Y64326D01*
X242341Y65652D01*
X241000Y65919D01*
D02*
G37*
G36*
X268500Y60500D02*
X259000D01*
Y55500D01*
X268500D01*
Y60500D01*
D02*
G37*
G36*
X302750Y76250D02*
X296000D01*
X289250D01*
Y71000D01*
X291101D01*
X291290Y70049D01*
X292395Y68395D01*
X294049Y67290D01*
X295000Y67101D01*
Y72000D01*
X297000D01*
Y67101D01*
X297951Y67290D01*
X299605Y68395D01*
X300710Y70049D01*
X300899Y71000D01*
X302750D01*
Y76250D01*
D02*
G37*
G36*
X295000Y83500D02*
X289250D01*
Y78250D01*
X295000D01*
Y83500D01*
D02*
G37*
G36*
X245919Y79000D02*
X241000D01*
Y74081D01*
X242341Y74348D01*
X244326Y75674D01*
X245652Y77659D01*
X245919Y79000D01*
D02*
G37*
G36*
X288000Y82750D02*
X276000D01*
Y71750D01*
X277462D01*
X277761Y70244D01*
X278756Y68756D01*
X280244Y67761D01*
X282000Y67412D01*
X283756Y67761D01*
X285244Y68756D01*
X286239Y70244D01*
X286538Y71750D01*
X288000D01*
Y82750D01*
D02*
G37*
G36*
X396000Y153000D02*
X387000D01*
Y144000D01*
X396000D01*
Y153000D01*
D02*
G37*
G36*
X241000Y255919D02*
Y251000D01*
X245919D01*
X245652Y252341D01*
X244326Y254326D01*
X242341Y255652D01*
X241000Y255919D01*
D02*
G37*
G36*
X245919Y249000D02*
X241000D01*
Y244081D01*
X242341Y244348D01*
X244326Y245674D01*
X245652Y247659D01*
X245919Y249000D01*
D02*
G37*
G36*
X241000Y235919D02*
Y231000D01*
X245919D01*
X245652Y232341D01*
X244326Y234326D01*
X242341Y235652D01*
X241000Y235919D01*
D02*
G37*
G36*
X559250Y262000D02*
X554250D01*
Y252500D01*
X559250D01*
Y262000D01*
D02*
G37*
G36*
Y273500D02*
X554250D01*
Y264000D01*
X559250D01*
Y273500D01*
D02*
G37*
G36*
X505000Y268750D02*
X499250D01*
Y263500D01*
X505000D01*
Y268750D01*
D02*
G37*
G36*
X652750Y371500D02*
X641750D01*
Y360500D01*
X642063D01*
X642861Y359500D01*
X642662Y358500D01*
X642861Y357500D01*
X642063Y356500D01*
X641750D01*
Y345500D01*
X642063D01*
X642861Y344500D01*
X642662Y343500D01*
X642861Y342500D01*
X642063Y341500D01*
X641750D01*
Y330500D01*
X642063D01*
X642861Y329500D01*
X642662Y328500D01*
X642861Y327500D01*
X642063Y326500D01*
X641750D01*
Y315500D01*
X642063D01*
X642861Y314500D01*
X642662Y313500D01*
X642861Y312500D01*
X642063Y311500D01*
X641750D01*
Y300500D01*
X642063D01*
X642861Y299500D01*
X642662Y298500D01*
X642861Y297500D01*
X642063Y296500D01*
X641750D01*
Y285500D01*
X642063D01*
X642861Y284500D01*
X642662Y283500D01*
X642861Y282500D01*
X642063Y281500D01*
X641750D01*
Y270500D01*
X642063D01*
X642861Y269500D01*
X642662Y268500D01*
X642861Y267500D01*
X642063Y266500D01*
X641750D01*
Y255500D01*
X652750D01*
Y266500D01*
X652437D01*
X651639Y267500D01*
X651838Y268500D01*
X651639Y269500D01*
X652437Y270500D01*
X652750D01*
Y281500D01*
X652437D01*
X651639Y282500D01*
X651838Y283500D01*
X651639Y284500D01*
X652437Y285500D01*
X652750D01*
Y296500D01*
X652437D01*
X651639Y297500D01*
X651838Y298500D01*
X651639Y299500D01*
X652437Y300500D01*
X652750D01*
Y311500D01*
X652437D01*
X651639Y312500D01*
X651838Y313500D01*
X651639Y314500D01*
X652437Y315500D01*
X652750D01*
Y326500D01*
X652437D01*
X651639Y327500D01*
X651838Y328500D01*
X651639Y329500D01*
X652437Y330500D01*
X652750D01*
Y341500D01*
X652437D01*
X651639Y342500D01*
X651838Y343500D01*
X651639Y344500D01*
X652437Y345500D01*
X652750D01*
Y356500D01*
X652437D01*
X651639Y357500D01*
X651838Y358500D01*
X651639Y359500D01*
X652437Y360500D01*
X652750D01*
Y371500D01*
D02*
G37*
G36*
X245919Y229000D02*
X241000D01*
Y224081D01*
X242341Y224348D01*
X244326Y225674D01*
X245652Y227659D01*
X245919Y229000D01*
D02*
G37*
G36*
X281000Y215919D02*
Y210000D01*
X280000D01*
Y209000D01*
X274081D01*
X274250Y208152D01*
Y204750D01*
X287750D01*
Y210000D01*
X286117D01*
X285652Y212341D01*
X284326Y214326D01*
X282341Y215652D01*
X281000Y215919D01*
D02*
G37*
G36*
X265919Y209000D02*
X261000D01*
Y204081D01*
X262341Y204348D01*
X264326Y205674D01*
X265652Y207659D01*
X265919Y209000D01*
D02*
G37*
G36*
X259000D02*
X254081D01*
X254348Y207659D01*
X255674Y205674D01*
X257659Y204348D01*
X259000Y204081D01*
Y209000D01*
D02*
G37*
G36*
Y215919D02*
X257659Y215652D01*
X255674Y214326D01*
X254348Y212341D01*
X254081Y211000D01*
X259000D01*
Y215919D01*
D02*
G37*
G36*
X270000Y257585D02*
X266569Y257247D01*
X263271Y256246D01*
X260231Y254621D01*
X257566Y252434D01*
X255379Y249769D01*
X253754Y246729D01*
X252753Y243431D01*
X252415Y240000D01*
X252753Y236569D01*
X253754Y233271D01*
X255379Y230231D01*
X257566Y227566D01*
X260231Y225379D01*
X263271Y223754D01*
X266569Y222753D01*
X270000Y222415D01*
X273431Y222753D01*
X276729Y223754D01*
X279769Y225379D01*
X282434Y227566D01*
X284621Y230231D01*
X286246Y233271D01*
X287247Y236569D01*
X287585Y240000D01*
X287247Y243431D01*
X286246Y246729D01*
X284621Y249769D01*
X282434Y252434D01*
X279769Y254621D01*
X276729Y256246D01*
X273431Y257247D01*
X270000Y257585D01*
D02*
G37*
G36*
X279000Y215919D02*
X277659Y215652D01*
X275674Y214326D01*
X274348Y212341D01*
X274081Y211000D01*
X279000D01*
Y215919D01*
D02*
G37*
G36*
X261000D02*
Y211000D01*
X265919D01*
X265652Y212341D01*
X264326Y214326D01*
X262341Y215652D01*
X261000Y215919D01*
D02*
G37*
G36*
X245919Y269000D02*
X241000D01*
Y264081D01*
X242341Y264348D01*
X244326Y265674D01*
X245652Y267659D01*
X245919Y269000D01*
D02*
G37*
G36*
X505000Y295000D02*
X499250D01*
Y289750D01*
X505000D01*
Y295000D01*
D02*
G37*
G36*
X497250D02*
X491500D01*
Y289750D01*
X497250D01*
Y295000D01*
D02*
G37*
G36*
X420500Y289000D02*
X416500D01*
Y286750D01*
X420500D01*
Y289000D01*
D02*
G37*
G36*
X241000Y295919D02*
Y291000D01*
X245919D01*
X245652Y292341D01*
X244326Y294326D01*
X242341Y295652D01*
X241000Y295919D01*
D02*
G37*
G36*
X394000Y318588D02*
X392244Y318239D01*
X390756Y317244D01*
X389761Y315756D01*
X389510Y314496D01*
X389412Y314000D01*
X389500Y313500D01*
X389500D01*
Y301500D01*
X400500D01*
Y313500D01*
X398999D01*
X398588Y314000D01*
X398239Y315756D01*
X397244Y317244D01*
X395756Y318239D01*
X394000Y318588D01*
D02*
G37*
G36*
X566250Y306000D02*
X561250D01*
Y296500D01*
X566250D01*
Y306000D01*
D02*
G37*
G36*
X559250D02*
X554250D01*
Y296500D01*
X559250D01*
Y306000D01*
D02*
G37*
G36*
Y294500D02*
X554250D01*
Y285000D01*
X559250D01*
Y294500D01*
D02*
G37*
G36*
X505000Y276000D02*
X499250D01*
Y270750D01*
X505000D01*
Y276000D01*
D02*
G37*
G36*
X497250D02*
X491500D01*
Y270750D01*
X497250D01*
Y276000D01*
D02*
G37*
G36*
X519250Y294250D02*
X507250D01*
Y283250D01*
X509888D01*
X510014Y282250D01*
X510006Y282244D01*
X509011Y280756D01*
X508662Y279000D01*
X509011Y277244D01*
X509675Y276250D01*
X509141Y275250D01*
X507250D01*
Y264250D01*
X519250D01*
Y275250D01*
X517359D01*
X516825Y276250D01*
X517489Y277244D01*
X517838Y279000D01*
X517489Y280756D01*
X516494Y282244D01*
X516486Y282250D01*
X516612Y283250D01*
X519250D01*
Y294250D01*
D02*
G37*
G36*
X241000Y275919D02*
Y271000D01*
X245919D01*
X245652Y272341D01*
X244326Y274326D01*
X242341Y275652D01*
X241000Y275919D01*
D02*
G37*
G36*
X245919Y289000D02*
X241000D01*
Y284081D01*
X242341Y284348D01*
X244326Y285674D01*
X245652Y287659D01*
X245919Y289000D01*
D02*
G37*
G36*
X505000Y287750D02*
X499250D01*
Y282500D01*
X505000D01*
Y287750D01*
D02*
G37*
G36*
X497250D02*
X491500D01*
Y282500D01*
X497250D01*
Y287750D01*
D02*
G37*
G36*
X287750Y162750D02*
X282000D01*
Y157500D01*
X287750D01*
Y162750D01*
D02*
G37*
G36*
X280000D02*
X274250D01*
Y157500D01*
X280000D01*
Y162750D01*
D02*
G37*
G36*
X357000Y164000D02*
X348000D01*
Y155000D01*
X357000D01*
Y164000D01*
D02*
G37*
G36*
X268000Y162899D02*
Y159000D01*
X271899D01*
X271710Y159951D01*
X270605Y161605D01*
X268951Y162710D01*
X268000Y162899D01*
D02*
G37*
G36*
X382000Y178000D02*
X372000D01*
X362000D01*
Y169000D01*
X370930D01*
X371402Y168118D01*
X371290Y167951D01*
X371101Y167000D01*
X380899D01*
X380710Y167951D01*
X380598Y168118D01*
X381070Y169000D01*
X382000D01*
Y178000D01*
D02*
G37*
G36*
X241000Y165919D02*
Y161000D01*
X245919D01*
X245652Y162341D01*
X244326Y164326D01*
X242341Y165652D01*
X241000Y165919D01*
D02*
G37*
G36*
X434000Y202000D02*
X423000D01*
Y194000D01*
Y187000D01*
X423000Y186000D01*
X423000Y185000D01*
Y178000D01*
Y171000D01*
X423000Y170000D01*
X423000Y169000D01*
Y162500D01*
X422500D01*
Y159000D01*
X428500D01*
X434500D01*
Y162500D01*
X434000D01*
Y169000D01*
X434000Y170000D01*
X434000Y171000D01*
Y178000D01*
Y185000D01*
X434000Y186000D01*
X434000Y187000D01*
Y194000D01*
Y202000D01*
D02*
G37*
G36*
X407000Y164000D02*
X398000D01*
Y155000D01*
X407000D01*
Y164000D01*
D02*
G37*
G36*
X266000Y162899D02*
X265049Y162710D01*
X263395Y161605D01*
X262290Y159951D01*
X262101Y159000D01*
X257000D01*
Y152750D01*
X269000D01*
Y153323D01*
X270605Y154395D01*
X271710Y156049D01*
X271899Y157000D01*
X267000D01*
Y158000D01*
X266000D01*
Y162899D01*
D02*
G37*
G36*
X269000Y150750D02*
X257000D01*
Y144500D01*
X269000D01*
Y150750D01*
D02*
G37*
G36*
X407000Y153000D02*
X398000D01*
Y144000D01*
X407000D01*
Y153000D01*
D02*
G37*
G36*
X301250Y156000D02*
X288750D01*
Y154571D01*
X287250D01*
Y156000D01*
X274750D01*
Y146860D01*
X271390Y143500D01*
X264250D01*
Y130500D01*
X277750D01*
Y137640D01*
X283857Y143746D01*
X284087Y143750D01*
X284608Y142795D01*
X284605Y142726D01*
X284348Y142341D01*
X284081Y141000D01*
X295919D01*
X295652Y142341D01*
X294877Y143500D01*
X295412Y144500D01*
X301250D01*
Y156000D01*
D02*
G37*
G36*
X380899Y165000D02*
X371101D01*
X370280Y164000D01*
X362000D01*
Y155000D01*
X372000D01*
X382000D01*
Y164000D01*
X381720D01*
X380899Y165000D01*
D02*
G37*
G36*
X396000Y164000D02*
X387000D01*
Y155000D01*
X396000D01*
Y164000D01*
D02*
G37*
G36*
X346000D02*
X337000D01*
Y155000D01*
X346000D01*
Y164000D01*
D02*
G37*
G36*
Y178000D02*
X337000D01*
Y169000D01*
X346000D01*
Y178000D01*
D02*
G37*
G36*
X287750Y202750D02*
X282000D01*
Y197500D01*
X287750D01*
Y202750D01*
D02*
G37*
G36*
X377000Y191899D02*
Y187000D01*
X375000D01*
Y191899D01*
X374049Y191710D01*
X372395Y190605D01*
X371323Y189000D01*
X362000D01*
Y180000D01*
X372000D01*
X382000D01*
Y189000D01*
X380677D01*
X379605Y190605D01*
X377951Y191710D01*
X377000Y191899D01*
D02*
G37*
G36*
X357000Y189000D02*
X348000D01*
Y180000D01*
X357000D01*
Y189000D01*
D02*
G37*
G36*
X314500Y202500D02*
X309500D01*
Y199000D01*
X314500D01*
Y202500D01*
D02*
G37*
G36*
X301000Y205919D02*
Y201000D01*
X305919D01*
X305652Y202341D01*
X304326Y204326D01*
X302341Y205652D01*
X301000Y205919D01*
D02*
G37*
G36*
X299000D02*
X297659Y205652D01*
X295674Y204326D01*
X294348Y202341D01*
X294081Y201000D01*
X299000D01*
Y205919D01*
D02*
G37*
G36*
X321500Y202500D02*
X316500D01*
Y199000D01*
X321500D01*
Y202500D01*
D02*
G37*
G36*
X407000Y189000D02*
X398000D01*
Y180000D01*
X407000D01*
Y189000D01*
D02*
G37*
G36*
Y178000D02*
X398000D01*
Y169000D01*
X407000D01*
Y178000D01*
D02*
G37*
G36*
X396000D02*
X387000D01*
Y169000D01*
X396000D01*
Y178000D01*
D02*
G37*
G36*
X357000D02*
X348000D01*
Y169000D01*
X357000D01*
Y178000D01*
D02*
G37*
G36*
X245919Y179000D02*
X241000D01*
Y174081D01*
X242341Y174348D01*
X244326Y175674D01*
X245652Y177659D01*
X245919Y179000D01*
D02*
G37*
G36*
X396000Y189000D02*
X387000D01*
Y180000D01*
X396000D01*
Y189000D01*
D02*
G37*
G36*
X346000D02*
X337000D01*
Y180000D01*
X346000D01*
Y189000D01*
D02*
G37*
G36*
X259000Y179000D02*
X254081D01*
X254348Y177659D01*
X255674Y175674D01*
X257659Y174348D01*
X259000Y174081D01*
Y179000D01*
D02*
G37*
G36*
X18535Y498425D02*
X15660D01*
Y489060D01*
X24525D01*
Y492435D01*
X24069Y494727D01*
X22771Y496671D01*
X20827Y497969D01*
X18535Y498425D01*
D02*
G37*
G36*
X185899Y689000D02*
X182000D01*
Y685101D01*
X182951Y685290D01*
X184605Y686395D01*
X185710Y688049D01*
X185899Y689000D01*
D02*
G37*
G36*
X110000Y691919D02*
X108659Y691652D01*
X106674Y690326D01*
X105348Y688341D01*
X105082Y687000D01*
X110000D01*
Y691919D01*
D02*
G37*
G36*
X165899Y689000D02*
X162000D01*
Y685101D01*
X162951Y685290D01*
X164605Y686395D01*
X165710Y688049D01*
X165899Y689000D01*
D02*
G37*
G36*
X180000D02*
X176101D01*
X176290Y688049D01*
X177395Y686395D01*
X179049Y685290D01*
X180000Y685101D01*
Y689000D01*
D02*
G37*
G36*
X232000Y691919D02*
Y687000D01*
X236919D01*
X236652Y688341D01*
X235326Y690326D01*
X233341Y691652D01*
X232000Y691919D01*
D02*
G37*
G36*
X587250Y693899D02*
X586299Y693710D01*
X584645Y692605D01*
X583540Y690951D01*
X583351Y690000D01*
X587250D01*
Y693899D01*
D02*
G37*
G36*
X112000Y691919D02*
Y687000D01*
X116919D01*
X116652Y688341D01*
X115326Y690326D01*
X113341Y691652D01*
X112000Y691919D01*
D02*
G37*
G36*
X230000D02*
X228659Y691652D01*
X226674Y690326D01*
X225348Y688341D01*
X225082Y687000D01*
X230000D01*
Y691919D01*
D02*
G37*
G36*
X503750Y687149D02*
X502799Y686960D01*
X501145Y685855D01*
X500040Y684201D01*
X499851Y683250D01*
X503750D01*
Y687149D01*
D02*
G37*
G36*
X587250Y688000D02*
X583351D01*
X583540Y687049D01*
X584645Y685395D01*
X586299Y684290D01*
X587250Y684101D01*
Y688000D01*
D02*
G37*
G36*
X230000Y685000D02*
X225082D01*
X225348Y683659D01*
X226674Y681674D01*
X228659Y680348D01*
X230000Y680081D01*
Y685000D01*
D02*
G37*
G36*
X236919D02*
X232000D01*
Y680081D01*
X233341Y680348D01*
X235326Y681674D01*
X236652Y683659D01*
X236919Y685000D01*
D02*
G37*
G36*
X145899Y689000D02*
X142000D01*
Y685101D01*
X142951Y685290D01*
X144605Y686395D01*
X145710Y688049D01*
X145899Y689000D01*
D02*
G37*
G36*
X160000D02*
X156101D01*
X156290Y688049D01*
X157395Y686395D01*
X159049Y685290D01*
X160000Y685101D01*
Y689000D01*
D02*
G37*
G36*
X593149Y688000D02*
X589250D01*
Y684101D01*
X590201Y684290D01*
X591855Y685395D01*
X592960Y687049D01*
X593149Y688000D01*
D02*
G37*
G36*
X140000Y689000D02*
X136101D01*
X136290Y688049D01*
X137395Y686395D01*
X139049Y685290D01*
X140000Y685101D01*
Y689000D01*
D02*
G37*
G36*
X223750Y701500D02*
X211250D01*
Y696246D01*
X210250Y695943D01*
X209326Y697326D01*
X207341Y698652D01*
X206000Y698919D01*
Y693000D01*
X205000D01*
Y692000D01*
X199081D01*
X199348Y690659D01*
X199700Y690132D01*
X199229Y689250D01*
X197750D01*
Y683500D01*
X204000D01*
X210250D01*
Y689056D01*
X210512Y689527D01*
X210975Y690016D01*
X211250Y690000D01*
X212562Y690000D01*
X212812Y689750D01*
X212397Y688750D01*
X211750D01*
Y676250D01*
X213269D01*
Y675000D01*
X211250D01*
Y663500D01*
X223750D01*
Y675000D01*
X221731D01*
Y676250D01*
X223250D01*
Y688750D01*
X221731D01*
Y690000D01*
X223750D01*
Y701500D01*
D02*
G37*
G36*
X575000Y711000D02*
X563000D01*
Y708899D01*
X562049Y708710D01*
X560395Y707605D01*
X559290Y705951D01*
X559101Y705000D01*
X564000D01*
Y703000D01*
X559101D01*
X559290Y702049D01*
X560395Y700395D01*
X562049Y699290D01*
X563000Y699101D01*
Y697257D01*
X562985Y697212D01*
X562033Y696420D01*
X561000Y696556D01*
X553799D01*
X553230Y697250D01*
X543270D01*
X542701Y696556D01*
X540000D01*
X539897Y696543D01*
X537292Y696748D01*
X537120Y696861D01*
X536703Y697377D01*
X536549Y697745D01*
X536649Y698250D01*
X526851D01*
X527040Y697299D01*
X527625Y696424D01*
X527180Y695289D01*
X526403Y695102D01*
X521645Y693131D01*
X521427Y693250D01*
X510851D01*
X511040Y692299D01*
X512145Y690645D01*
X513799Y689540D01*
X514501Y689400D01*
X514753Y688433D01*
X512807Y686771D01*
X510423Y683979D01*
X509388Y684308D01*
X508355Y685855D01*
X506701Y686960D01*
X505750Y687149D01*
Y682250D01*
Y676580D01*
X505840Y676470D01*
X504475Y673175D01*
X504183Y671956D01*
X503252Y671592D01*
X502701Y671960D01*
X501750Y672149D01*
Y667250D01*
X500750D01*
Y666250D01*
X495851D01*
X496040Y665299D01*
X497145Y663645D01*
X497307Y663537D01*
X497017Y662580D01*
X492000D01*
Y662080D01*
X481500D01*
Y662080D01*
X481500D01*
Y662080D01*
X470500D01*
Y641080D01*
X471346D01*
X471412Y641000D01*
X471761Y639244D01*
X472756Y637756D01*
X474244Y636761D01*
X476000Y636412D01*
X477756Y636761D01*
X479244Y637756D01*
X480239Y639244D01*
X480570Y640910D01*
X481461Y641073D01*
X481546Y641080D01*
X483346D01*
X483412Y641000D01*
X483761Y639244D01*
X484756Y637756D01*
X486244Y636761D01*
X488000Y636412D01*
X489756Y636761D01*
X491244Y637756D01*
X492239Y639244D01*
X492505Y640580D01*
X497000D01*
Y651580D01*
X499000D01*
Y640580D01*
X504000D01*
X504779Y640046D01*
X505722Y639322D01*
X505996Y639209D01*
X506107Y638080D01*
X505395Y637605D01*
X504290Y635951D01*
X504101Y635000D01*
X513899D01*
X513710Y635951D01*
X512605Y637605D01*
X511893Y638080D01*
X512004Y639209D01*
X512278Y639322D01*
X513221Y640046D01*
X514000Y640580D01*
X519000D01*
Y651580D01*
X520000D01*
Y652580D01*
X526000D01*
Y662580D01*
X524983D01*
X524710Y663951D01*
X523605Y665605D01*
X521951Y666710D01*
X521000Y666899D01*
Y662000D01*
X519000D01*
Y666899D01*
X518049Y666710D01*
X517293Y666204D01*
X516423Y666676D01*
X516357Y666782D01*
X517535Y670666D01*
X519478Y674300D01*
X521202Y676401D01*
X522275Y676132D01*
X522540Y674799D01*
X523645Y673145D01*
X525299Y672040D01*
X526250Y671851D01*
Y676750D01*
X527250D01*
Y677750D01*
X532149D01*
X531960Y678701D01*
X530855Y680355D01*
X529587Y681202D01*
X529742Y682294D01*
X532856Y683239D01*
X536957Y683643D01*
X537828Y683557D01*
X538326Y682503D01*
X537790Y681701D01*
X537601Y680750D01*
X547399D01*
X547210Y681701D01*
X546713Y682444D01*
X547248Y683444D01*
X554175D01*
Y682425D01*
X562819D01*
X563000Y681500D01*
X563000Y681425D01*
Y678899D01*
X562049Y678710D01*
X560395Y677605D01*
X559290Y675951D01*
X559101Y675000D01*
X564000D01*
Y673000D01*
X559101D01*
X559290Y672049D01*
X560395Y670395D01*
X562049Y669290D01*
X563000Y669101D01*
Y667000D01*
X575000D01*
Y674250D01*
Y681500D01*
X568005D01*
X567825Y682425D01*
X567825Y682500D01*
Y695500D01*
X567825Y695575D01*
X568005Y696500D01*
X575000D01*
Y703750D01*
Y711000D01*
D02*
G37*
G36*
X514750Y699149D02*
X513799Y698960D01*
X512145Y697855D01*
X511040Y696201D01*
X510851Y695250D01*
X514750D01*
Y699149D01*
D02*
G37*
G36*
X516750D02*
Y695250D01*
X520649D01*
X520460Y696201D01*
X519355Y697855D01*
X517701Y698960D01*
X516750Y699149D01*
D02*
G37*
G36*
X549250Y703149D02*
Y699250D01*
X553149D01*
X552960Y700201D01*
X551855Y701855D01*
X550201Y702960D01*
X549250Y703149D01*
D02*
G37*
G36*
X10000Y705000D02*
X5081D01*
X5348Y703659D01*
X6674Y701674D01*
X8659Y700348D01*
X10000Y700081D01*
Y705000D01*
D02*
G37*
G36*
X589000Y711000D02*
X577000D01*
Y703750D01*
Y696500D01*
X589000D01*
Y699051D01*
X590201Y699290D01*
X591855Y700395D01*
X592960Y702049D01*
X593149Y703000D01*
X588250D01*
Y705000D01*
X593149D01*
X592960Y705951D01*
X591855Y707605D01*
X590201Y708710D01*
X589000Y708949D01*
Y711000D01*
D02*
G37*
G36*
X547250Y703149D02*
X546299Y702960D01*
X544645Y701855D01*
X543540Y700201D01*
X543351Y699250D01*
X547250D01*
Y703149D01*
D02*
G37*
G36*
X142000Y694899D02*
Y691000D01*
X145899D01*
X145710Y691951D01*
X144605Y693605D01*
X142951Y694710D01*
X142000Y694899D01*
D02*
G37*
G36*
X160000D02*
X159049Y694710D01*
X157395Y693605D01*
X156290Y691951D01*
X156101Y691000D01*
X160000D01*
Y694899D01*
D02*
G37*
G36*
X589250Y693899D02*
Y690000D01*
X593149D01*
X592960Y690951D01*
X591855Y692605D01*
X590201Y693710D01*
X589250Y693899D01*
D02*
G37*
G36*
X140000Y694899D02*
X139049Y694710D01*
X137395Y693605D01*
X136290Y691951D01*
X136101Y691000D01*
X140000D01*
Y694899D01*
D02*
G37*
G36*
X182000D02*
Y691000D01*
X185899D01*
X185710Y691951D01*
X184605Y693605D01*
X182951Y694710D01*
X182000Y694899D01*
D02*
G37*
G36*
X204000Y698919D02*
X202659Y698652D01*
X200674Y697326D01*
X199348Y695341D01*
X199081Y694000D01*
X204000D01*
Y698919D01*
D02*
G37*
G36*
X162000Y694899D02*
Y691000D01*
X165899D01*
X165710Y691951D01*
X164605Y693605D01*
X162951Y694710D01*
X162000Y694899D01*
D02*
G37*
G36*
X180000D02*
X179049Y694710D01*
X177395Y693605D01*
X176290Y691951D01*
X176101Y691000D01*
X180000D01*
Y694899D01*
D02*
G37*
G36*
X188000Y669000D02*
X184101D01*
X184290Y668049D01*
X185395Y666395D01*
X187049Y665290D01*
X188000Y665101D01*
Y669000D01*
D02*
G37*
G36*
X193899D02*
X190000D01*
Y665101D01*
X190951Y665290D01*
X192605Y666395D01*
X193710Y668049D01*
X193899Y669000D01*
D02*
G37*
G36*
X170000D02*
X166101D01*
X166290Y668049D01*
X167395Y666395D01*
X169049Y665290D01*
X170000Y665101D01*
Y669000D01*
D02*
G37*
G36*
X175899D02*
X172000D01*
Y665101D01*
X172951Y665290D01*
X174605Y666395D01*
X175710Y668049D01*
X175899Y669000D01*
D02*
G37*
G36*
X112000Y671919D02*
Y667000D01*
X116919D01*
X116652Y668341D01*
X115326Y670326D01*
X113341Y671652D01*
X112000Y671919D01*
D02*
G37*
G36*
X230000D02*
X228659Y671652D01*
X226674Y670326D01*
X225348Y668341D01*
X225082Y667000D01*
X230000D01*
Y671919D01*
D02*
G37*
G36*
X589000Y681500D02*
X577000D01*
Y674250D01*
Y667000D01*
X589000D01*
Y669051D01*
X590201Y669290D01*
X591855Y670395D01*
X592960Y672049D01*
X593149Y673000D01*
X588250D01*
Y675000D01*
X593149D01*
X592960Y675951D01*
X591855Y677605D01*
X590201Y678710D01*
X589000Y678949D01*
Y681500D01*
D02*
G37*
G36*
X110000Y671919D02*
X108659Y671652D01*
X106674Y670326D01*
X105348Y668341D01*
X105082Y667000D01*
X110000D01*
Y671919D01*
D02*
G37*
G36*
X230000Y665000D02*
X225082D01*
X225348Y663659D01*
X226674Y661674D01*
X228659Y660348D01*
X230000Y660081D01*
Y665000D01*
D02*
G37*
G36*
X236919D02*
X232000D01*
Y660081D01*
X233341Y660348D01*
X235326Y661674D01*
X236652Y663659D01*
X236919Y665000D01*
D02*
G37*
G36*
X110000D02*
X105082D01*
X105348Y663659D01*
X106674Y661674D01*
X108659Y660348D01*
X110000Y660081D01*
Y665000D01*
D02*
G37*
G36*
X116919D02*
X112000D01*
Y660081D01*
X113341Y660348D01*
X115326Y661674D01*
X116652Y663659D01*
X116919Y665000D01*
D02*
G37*
G36*
X153000Y668750D02*
X141000D01*
Y662500D01*
X153000D01*
Y668750D01*
D02*
G37*
G36*
X90000Y682039D02*
X50000D01*
X49220Y681884D01*
X48558Y681442D01*
X48116Y680780D01*
X47961Y680000D01*
Y664522D01*
X46961Y664373D01*
X46246Y666729D01*
X44621Y669770D01*
X42434Y672434D01*
X39769Y674621D01*
X36729Y676246D01*
X33431Y677247D01*
X30000Y677585D01*
X26569Y677247D01*
X23271Y676246D01*
X20231Y674621D01*
X17566Y672434D01*
X15379Y669770D01*
X13754Y666729D01*
X12753Y663431D01*
X12415Y660000D01*
X12753Y656569D01*
X13754Y653271D01*
X15379Y650230D01*
X17566Y647566D01*
X20231Y645379D01*
X23271Y643754D01*
X26569Y642753D01*
X30000Y642415D01*
X33431Y642753D01*
X36729Y643754D01*
X39769Y645379D01*
X42434Y647566D01*
X44621Y650230D01*
X46246Y653271D01*
X46961Y655627D01*
X47961Y655478D01*
Y640000D01*
X48116Y639220D01*
X48558Y638558D01*
X49220Y638116D01*
X50000Y637961D01*
X90000D01*
X90780Y638116D01*
X91442Y638558D01*
X91884Y639220D01*
X92039Y640000D01*
Y680000D01*
X91884Y680780D01*
X91442Y681442D01*
X90780Y681884D01*
X90000Y682039D01*
D02*
G37*
G36*
X445000Y662580D02*
X440000D01*
Y662080D01*
X430500D01*
X429500Y662080D01*
X428500Y662080D01*
X419500D01*
X418500Y662080D01*
X417500Y662080D01*
X397000D01*
Y662580D01*
X392000D01*
Y651580D01*
X390000D01*
Y662580D01*
X385000D01*
Y662080D01*
X374500D01*
Y641080D01*
X385000D01*
Y640580D01*
X385986D01*
X386290Y639049D01*
X387395Y637395D01*
X389049Y636290D01*
X390000Y636101D01*
Y641000D01*
X392000D01*
Y636101D01*
X392951Y636290D01*
X394436Y637282D01*
X395146Y637139D01*
X395519Y636963D01*
X395761Y635744D01*
X396756Y634256D01*
X398244Y633261D01*
X400000Y632912D01*
X401756Y633261D01*
X403244Y634256D01*
X404239Y635744D01*
X404588Y637500D01*
X404239Y639256D01*
X403688Y640080D01*
X404223Y641080D01*
X417500D01*
X418500Y641080D01*
X419500Y641080D01*
X428500D01*
X429500Y641080D01*
X430500Y641080D01*
X440000D01*
Y640580D01*
X440986D01*
X441290Y639049D01*
X442395Y637395D01*
X444049Y636290D01*
X445000Y636101D01*
Y641000D01*
X447000D01*
Y636101D01*
X447951Y636290D01*
X449605Y637395D01*
X450710Y639049D01*
X451014Y640580D01*
X452000D01*
Y650580D01*
X446000D01*
Y651580D01*
X445000D01*
Y662580D01*
D02*
G37*
G36*
X139000Y668750D02*
X127000D01*
Y662500D01*
X139000D01*
Y668750D01*
D02*
G37*
G36*
X547399Y678750D02*
X543500D01*
Y674851D01*
X544451Y675040D01*
X546105Y676145D01*
X547210Y677799D01*
X547399Y678750D01*
D02*
G37*
G36*
X203000Y681500D02*
X197750D01*
Y675750D01*
X203000D01*
Y681500D01*
D02*
G37*
G36*
X532149Y675750D02*
X528250D01*
Y671851D01*
X529201Y672040D01*
X530855Y673145D01*
X531960Y674799D01*
X532149Y675750D01*
D02*
G37*
G36*
X541500Y678750D02*
X537601D01*
X537790Y677799D01*
X538895Y676145D01*
X540549Y675040D01*
X541500Y674851D01*
Y678750D01*
D02*
G37*
G36*
X110000Y685000D02*
X105082D01*
X105348Y683659D01*
X106674Y681674D01*
X108659Y680348D01*
X110000Y680081D01*
Y685000D01*
D02*
G37*
G36*
X116919D02*
X112000D01*
Y680081D01*
X113341Y680348D01*
X115326Y681674D01*
X116652Y683659D01*
X116919Y685000D01*
D02*
G37*
G36*
X210250Y681500D02*
X205000D01*
Y675750D01*
X210250D01*
Y681500D01*
D02*
G37*
G36*
X503750Y681250D02*
X499851D01*
X500040Y680299D01*
X501145Y678645D01*
X502799Y677540D01*
X503750Y677351D01*
Y681250D01*
D02*
G37*
G36*
X139000Y677000D02*
X127000D01*
Y670750D01*
X139000D01*
Y677000D01*
D02*
G37*
G36*
X153000D02*
X141000D01*
Y670750D01*
X153000D01*
Y677000D01*
D02*
G37*
G36*
X232000Y671919D02*
Y667000D01*
X236919D01*
X236652Y668341D01*
X235326Y670326D01*
X233341Y671652D01*
X232000Y671919D01*
D02*
G37*
G36*
X499750Y672149D02*
X498799Y671960D01*
X497145Y670855D01*
X496040Y669201D01*
X495851Y668250D01*
X499750D01*
Y672149D01*
D02*
G37*
G36*
X188000Y674899D02*
X187049Y674710D01*
X185395Y673605D01*
X184290Y671951D01*
X184101Y671000D01*
X188000D01*
Y674899D01*
D02*
G37*
G36*
X190000D02*
Y671000D01*
X193899D01*
X193710Y671951D01*
X192605Y673605D01*
X190951Y674710D01*
X190000Y674899D01*
D02*
G37*
G36*
X170000D02*
X169049Y674710D01*
X167395Y673605D01*
X166290Y671951D01*
X166101Y671000D01*
X170000D01*
Y674899D01*
D02*
G37*
G36*
X172000D02*
Y671000D01*
X175899D01*
X175710Y671951D01*
X174605Y673605D01*
X172951Y674710D01*
X172000Y674899D01*
D02*
G37*
G36*
X16919Y705000D02*
X12000D01*
Y700081D01*
X13341Y700348D01*
X15326Y701674D01*
X16652Y703659D01*
X16919Y705000D01*
D02*
G37*
G36*
X190000Y711919D02*
X188659Y711652D01*
X186674Y710326D01*
X185348Y708341D01*
X185082Y707000D01*
X190000D01*
Y711919D01*
D02*
G37*
G36*
X192000D02*
Y707000D01*
X196919D01*
X196652Y708341D01*
X195326Y710326D01*
X193341Y711652D01*
X192000Y711919D01*
D02*
G37*
G36*
X170000D02*
X168659Y711652D01*
X166674Y710326D01*
X165348Y708341D01*
X165082Y707000D01*
X170000D01*
Y711919D01*
D02*
G37*
G36*
X172000D02*
Y707000D01*
X176919D01*
X176652Y708341D01*
X175326Y710326D01*
X173341Y711652D01*
X172000Y711919D01*
D02*
G37*
G36*
X250000D02*
X248659Y711652D01*
X246674Y710326D01*
X245348Y708341D01*
X245082Y707000D01*
X250000D01*
Y711919D01*
D02*
G37*
G36*
X252000D02*
Y707000D01*
X256919D01*
X256652Y708341D01*
X255326Y710326D01*
X253341Y711652D01*
X252000Y711919D01*
D02*
G37*
G36*
X230000D02*
X228659Y711652D01*
X226674Y710326D01*
X225348Y708341D01*
X225082Y707000D01*
X230000D01*
Y711919D01*
D02*
G37*
G36*
X232000D02*
Y707000D01*
X236919D01*
X236652Y708341D01*
X235326Y710326D01*
X233341Y711652D01*
X232000Y711919D01*
D02*
G37*
G36*
X110000D02*
X108659Y711652D01*
X106674Y710326D01*
X105348Y708341D01*
X105082Y707000D01*
X110000D01*
Y711919D01*
D02*
G37*
G36*
X112000D02*
Y707000D01*
X116919D01*
X116652Y708341D01*
X115326Y710326D01*
X113341Y711652D01*
X112000Y711919D01*
D02*
G37*
G36*
X90000D02*
X88659Y711652D01*
X86674Y710326D01*
X85348Y708341D01*
X85082Y707000D01*
X90000D01*
Y711919D01*
D02*
G37*
G36*
X92000D02*
Y707000D01*
X96919D01*
X96652Y708341D01*
X95326Y710326D01*
X93341Y711652D01*
X92000Y711919D01*
D02*
G37*
G36*
X150000D02*
X148659Y711652D01*
X146674Y710326D01*
X145348Y708341D01*
X145082Y707000D01*
X150000D01*
Y711919D01*
D02*
G37*
G36*
X152000D02*
Y707000D01*
X156919D01*
X156652Y708341D01*
X155326Y710326D01*
X153341Y711652D01*
X152000Y711919D01*
D02*
G37*
G36*
X130000D02*
X128659Y711652D01*
X126674Y710326D01*
X125348Y708341D01*
X125082Y707000D01*
X130000D01*
Y711919D01*
D02*
G37*
G36*
X132000D02*
Y707000D01*
X136919D01*
X136652Y708341D01*
X135326Y710326D01*
X133341Y711652D01*
X132000Y711919D01*
D02*
G37*
G36*
X266919Y775000D02*
X262000D01*
Y770081D01*
X263341Y770348D01*
X265326Y771674D01*
X266652Y773659D01*
X266919Y775000D01*
D02*
G37*
G36*
X262000Y781919D02*
Y777000D01*
X266919D01*
X266652Y778341D01*
X265326Y780326D01*
X263341Y781652D01*
X262000Y781919D01*
D02*
G37*
G36*
X526000Y767420D02*
X521000D01*
Y757420D01*
X526000D01*
Y767420D01*
D02*
G37*
G36*
X610000Y792039D02*
X550000D01*
X549220Y791884D01*
X548558Y791442D01*
X548116Y790780D01*
X547961Y790000D01*
Y770000D01*
X548116Y769220D01*
X548558Y768558D01*
X549220Y768116D01*
X550000Y767961D01*
X610000D01*
X610780Y768116D01*
X611442Y768558D01*
X611884Y769220D01*
X612039Y770000D01*
Y790000D01*
X611884Y790780D01*
X611442Y791442D01*
X610780Y791884D01*
X610000Y792039D01*
D02*
G37*
G36*
X266919Y789000D02*
X262000D01*
Y784081D01*
X263341Y784348D01*
X265326Y785674D01*
X266652Y787659D01*
X266919Y789000D01*
D02*
G37*
G36*
X262000Y795919D02*
Y791000D01*
X266919D01*
X266652Y792341D01*
X265326Y794326D01*
X263341Y795652D01*
X262000Y795919D01*
D02*
G37*
G36*
X433000Y793472D02*
X376000D01*
X374671Y793207D01*
X373545Y792455D01*
X347545Y766455D01*
X346793Y765329D01*
X346528Y764000D01*
Y698850D01*
X339600D01*
Y661150D01*
X360400D01*
Y674028D01*
X362096D01*
X363244Y673261D01*
X365000Y672912D01*
X366756Y673261D01*
X368244Y674256D01*
X369239Y675744D01*
X369588Y677500D01*
X369239Y679256D01*
X368244Y680744D01*
X366756Y681739D01*
X365000Y682088D01*
X363244Y681739D01*
X362096Y680972D01*
X360400D01*
Y698850D01*
X353472D01*
Y762562D01*
X377438Y786528D01*
X431562D01*
X438246Y779844D01*
X437864Y778920D01*
X430500D01*
X429500Y778920D01*
Y778920D01*
X429500D01*
Y778920D01*
X418500D01*
Y778920D01*
X418500D01*
Y778920D01*
X406654D01*
X406588Y779000D01*
X406239Y780756D01*
X405244Y782244D01*
X403756Y783239D01*
X402000Y783588D01*
X400244Y783239D01*
X398756Y782244D01*
X397761Y780756D01*
X397430Y779090D01*
X396539Y778927D01*
X396500Y778924D01*
X396461Y778927D01*
X395570Y779090D01*
X395239Y780756D01*
X394244Y782244D01*
X392756Y783239D01*
X391000Y783588D01*
X389244Y783239D01*
X387756Y782244D01*
X386761Y780756D01*
X386642Y780154D01*
X386000Y779420D01*
X385014Y779420D01*
X384710Y780951D01*
X383605Y782605D01*
X381951Y783710D01*
X381000Y783899D01*
Y779000D01*
X379000D01*
Y783899D01*
X378049Y783710D01*
X376395Y782605D01*
X375290Y780951D01*
X374986Y779420D01*
X374000D01*
Y769420D01*
X380000D01*
Y768420D01*
X381000D01*
Y757420D01*
X386000D01*
Y757920D01*
X395500D01*
X396500Y757920D01*
Y757920D01*
X396500D01*
Y757920D01*
X410451D01*
Y734000D01*
X410645Y733025D01*
X411198Y732198D01*
X454951Y688444D01*
Y635601D01*
X455145Y634625D01*
X455698Y633798D01*
X487298Y602198D01*
X488125Y601645D01*
X489100Y601451D01*
X572495D01*
X583946Y590000D01*
X583531Y589000D01*
X556600D01*
Y578000D01*
X583481D01*
X583895Y577000D01*
X579444Y572549D01*
X551200D01*
X550225Y572355D01*
X549398Y571802D01*
X541195Y563600D01*
X527300D01*
Y561059D01*
X475350D01*
Y568400D01*
X437650D01*
Y556299D01*
X430959D01*
X430494Y556994D01*
X429006Y557989D01*
X427250Y558338D01*
X425494Y557989D01*
X424006Y556994D01*
X423011Y555506D01*
X422662Y553750D01*
X423011Y551994D01*
X424006Y550506D01*
X425494Y549511D01*
X427250Y549162D01*
X429006Y549511D01*
X430494Y550506D01*
X430959Y551201D01*
X437650D01*
Y547600D01*
X475350D01*
Y554941D01*
X527300D01*
Y552600D01*
X551300D01*
Y563600D01*
X549711D01*
X549329Y564524D01*
X552256Y567451D01*
X580500D01*
X581475Y567645D01*
X582302Y568198D01*
X588027Y573922D01*
X588951Y573540D01*
Y527556D01*
X584944Y523549D01*
X549106D01*
X546379Y526276D01*
X546762Y527200D01*
X551300D01*
Y538028D01*
X551300Y538200D01*
X551714Y539028D01*
X556186D01*
X556600Y538200D01*
Y527200D01*
X584600D01*
Y538200D01*
X570010D01*
X563255Y544955D01*
X562128Y545707D01*
X560800Y545972D01*
X510000D01*
X508671Y545707D01*
X507545Y544955D01*
X499062Y536472D01*
X475350D01*
Y543400D01*
X437650D01*
Y536472D01*
X432250D01*
Y541000D01*
X428855D01*
X420799Y549056D01*
Y570541D01*
X421494Y571006D01*
X422489Y572494D01*
X422838Y574250D01*
X422489Y576006D01*
X421494Y577494D01*
X420006Y578489D01*
X418250Y578838D01*
X416494Y578489D01*
X415006Y577494D01*
X414011Y576006D01*
X413662Y574250D01*
X414011Y572494D01*
X415006Y571006D01*
X415701Y570541D01*
Y548000D01*
X415895Y547025D01*
X416448Y546198D01*
X420820Y541825D01*
X421250Y541000D01*
X421250D01*
X421250Y541000D01*
Y529000D01*
X432250D01*
Y529528D01*
X437650D01*
Y522600D01*
X475350D01*
Y529528D01*
X500500D01*
X501828Y529793D01*
X502955Y530545D01*
X511438Y539028D01*
X526886D01*
X527300Y538200D01*
X527300Y538028D01*
Y531626D01*
X506733Y511059D01*
X475350D01*
Y518400D01*
X437650D01*
Y518176D01*
X436650Y517641D01*
X435756Y518239D01*
X434000Y518588D01*
X432244Y518239D01*
X430756Y517244D01*
X429761Y515756D01*
X429412Y514000D01*
X429761Y512244D01*
X430756Y510756D01*
X432244Y509761D01*
X434000Y509412D01*
X434820Y509575D01*
X437650Y506745D01*
Y497600D01*
X475350D01*
Y504941D01*
X508000D01*
X508000Y504941D01*
X509170Y505174D01*
X510163Y505837D01*
X531526Y527200D01*
X538246D01*
X546248Y519198D01*
X546399Y519097D01*
X546497Y518102D01*
X541195Y512800D01*
X527300D01*
Y510772D01*
X525971Y510507D01*
X524845Y509755D01*
X501562Y486472D01*
X475350D01*
Y493400D01*
X437650D01*
Y492191D01*
X436650Y491887D01*
X436244Y492494D01*
X434756Y493489D01*
X433000Y493838D01*
X431244Y493489D01*
X429756Y492494D01*
X428761Y491006D01*
X428412Y489250D01*
X428761Y487494D01*
X429756Y486006D01*
X431244Y485011D01*
X433000Y484662D01*
X433820Y484825D01*
X437448Y481198D01*
X437650Y481062D01*
Y472600D01*
X475350D01*
Y479528D01*
X503000D01*
X504328Y479793D01*
X505455Y480545D01*
X526395Y501486D01*
X527300Y501800D01*
Y501800D01*
X527300Y501800D01*
X551300D01*
Y512800D01*
X549711D01*
X549329Y513724D01*
X550556Y514951D01*
X587500D01*
X588475Y515145D01*
X589302Y515698D01*
X596802Y523198D01*
X597355Y524025D01*
X597549Y525000D01*
Y592450D01*
X597355Y593425D01*
X596802Y594252D01*
X578252Y612802D01*
X577425Y613355D01*
X576450Y613549D01*
X493056D01*
X467049Y639556D01*
Y692400D01*
X466855Y693375D01*
X466302Y694202D01*
X437549Y722955D01*
Y757920D01*
X440500D01*
Y757920D01*
X440500D01*
Y757920D01*
X451500D01*
Y778920D01*
X448812D01*
X448455Y779455D01*
X435455Y792455D01*
X434329Y793207D01*
X433000Y793472D01*
D02*
G37*
G36*
X521000Y783899D02*
Y779000D01*
X519000D01*
Y783899D01*
X518049Y783710D01*
X516395Y782605D01*
X515290Y780951D01*
X514986Y779420D01*
X514000D01*
Y778920D01*
X504500D01*
X503500Y778920D01*
X502500Y778920D01*
X493500D01*
X492500Y778920D01*
X491500Y778920D01*
X482500D01*
X481500Y778920D01*
X480500Y778920D01*
X470500D01*
Y757920D01*
X480500D01*
X481500Y757920D01*
X482500Y757920D01*
X491500D01*
X492500Y757920D01*
X493500Y757920D01*
X502500D01*
X503500Y757920D01*
X504500Y757920D01*
X514000D01*
Y757420D01*
X519000D01*
Y768420D01*
X520000D01*
Y769420D01*
X526000D01*
Y779420D01*
X525014D01*
X524710Y780951D01*
X523605Y782605D01*
X521951Y783710D01*
X521000Y783899D01*
D02*
G37*
G36*
X262000Y721919D02*
Y717000D01*
X266919D01*
X266652Y718341D01*
X265326Y720326D01*
X263341Y721652D01*
X262000Y721919D01*
D02*
G37*
G36*
X266919Y735000D02*
X262000D01*
Y730081D01*
X263341Y730348D01*
X265326Y731674D01*
X266652Y733659D01*
X266919Y735000D01*
D02*
G37*
G36*
X650000Y787585D02*
X646569Y787247D01*
X643271Y786246D01*
X640230Y784621D01*
X637566Y782434D01*
X635379Y779770D01*
X633754Y776729D01*
X632753Y773431D01*
X632415Y770000D01*
X632753Y766569D01*
X633754Y763271D01*
X635379Y760230D01*
X637566Y757566D01*
X640230Y755379D01*
X643271Y753754D01*
X645627Y753039D01*
X645478Y752039D01*
X630000D01*
X629220Y751884D01*
X628558Y751442D01*
X628116Y750780D01*
X627961Y750000D01*
Y710000D01*
X628116Y709220D01*
X628558Y708558D01*
X629220Y708116D01*
X630000Y707961D01*
X670000D01*
X670780Y708116D01*
X671442Y708558D01*
X671884Y709220D01*
X672039Y710000D01*
Y750000D01*
X671884Y750780D01*
X671442Y751442D01*
X670780Y751884D01*
X670000Y752039D01*
X654522D01*
X654373Y753039D01*
X656729Y753754D01*
X659770Y755379D01*
X662434Y757566D01*
X664621Y760230D01*
X666246Y763271D01*
X667247Y766569D01*
X667585Y770000D01*
X667247Y773431D01*
X666246Y776729D01*
X664621Y779770D01*
X662434Y782434D01*
X659770Y784621D01*
X656729Y786246D01*
X653431Y787247D01*
X650000Y787585D01*
D02*
G37*
G36*
X266919Y715000D02*
X262000D01*
Y710081D01*
X263341Y710348D01*
X265326Y711674D01*
X266652Y713659D01*
X266919Y715000D01*
D02*
G37*
G36*
X262000Y761919D02*
Y757000D01*
X266919D01*
X266652Y758341D01*
X265326Y760326D01*
X263341Y761652D01*
X262000Y761919D01*
D02*
G37*
G36*
X379000Y767420D02*
X374000D01*
Y757420D01*
X379000D01*
Y767420D01*
D02*
G37*
G36*
X262000Y741919D02*
Y737000D01*
X266919D01*
X266652Y738341D01*
X265326Y740326D01*
X263341Y741652D01*
X262000Y741919D01*
D02*
G37*
G36*
X266919Y755000D02*
X262000D01*
Y750081D01*
X263341Y750348D01*
X265326Y751674D01*
X266652Y753659D01*
X266919Y755000D01*
D02*
G37*
G36*
X130000Y705000D02*
X125082D01*
X125348Y703659D01*
X126674Y701674D01*
X128659Y700348D01*
X130000Y700081D01*
Y705000D01*
D02*
G37*
G36*
X136919D02*
X132000D01*
Y700081D01*
X133341Y700348D01*
X135326Y701674D01*
X136652Y703659D01*
X136919Y705000D01*
D02*
G37*
G36*
X110000D02*
X105082D01*
X105348Y703659D01*
X106674Y701674D01*
X108659Y700348D01*
X110000Y700081D01*
Y705000D01*
D02*
G37*
G36*
X116919D02*
X112000D01*
Y700081D01*
X113341Y700348D01*
X115326Y701674D01*
X116652Y703659D01*
X116919Y705000D01*
D02*
G37*
G36*
X170000D02*
X165082D01*
X165348Y703659D01*
X166674Y701674D01*
X168659Y700348D01*
X170000Y700081D01*
Y705000D01*
D02*
G37*
G36*
X176919D02*
X172000D01*
Y700081D01*
X173341Y700348D01*
X175326Y701674D01*
X176652Y703659D01*
X176919Y705000D01*
D02*
G37*
G36*
X150000D02*
X145082D01*
X145348Y703659D01*
X146674Y701674D01*
X148659Y700348D01*
X150000Y700081D01*
Y705000D01*
D02*
G37*
G36*
X156919D02*
X152000D01*
Y700081D01*
X153341Y700348D01*
X155326Y701674D01*
X156652Y703659D01*
X156919Y705000D01*
D02*
G37*
G36*
X50000D02*
X45082D01*
X45348Y703659D01*
X46674Y701674D01*
X48659Y700348D01*
X50000Y700081D01*
Y705000D01*
D02*
G37*
G36*
X56919D02*
X52000D01*
Y700081D01*
X53341Y700348D01*
X55326Y701674D01*
X56652Y703659D01*
X56919Y705000D01*
D02*
G37*
G36*
X30000D02*
X25082D01*
X25348Y703659D01*
X26674Y701674D01*
X28659Y700348D01*
X30000Y700081D01*
Y705000D01*
D02*
G37*
G36*
X36919D02*
X32000D01*
Y700081D01*
X33341Y700348D01*
X35326Y701674D01*
X36652Y703659D01*
X36919Y705000D01*
D02*
G37*
G36*
X90000D02*
X85082D01*
X85348Y703659D01*
X86674Y701674D01*
X88659Y700348D01*
X90000Y700081D01*
Y705000D01*
D02*
G37*
G36*
X96919D02*
X92000D01*
Y700081D01*
X93341Y700348D01*
X95326Y701674D01*
X96652Y703659D01*
X96919Y705000D01*
D02*
G37*
G36*
X70000D02*
X65082D01*
X65348Y703659D01*
X66674Y701674D01*
X68659Y700348D01*
X70000Y700081D01*
Y705000D01*
D02*
G37*
G36*
X76919D02*
X72000D01*
Y700081D01*
X73341Y700348D01*
X75326Y701674D01*
X76652Y703659D01*
X76919Y705000D01*
D02*
G37*
G36*
X30000Y711919D02*
X28659Y711652D01*
X26674Y710326D01*
X25348Y708341D01*
X25082Y707000D01*
X30000D01*
Y711919D01*
D02*
G37*
G36*
X32000D02*
Y707000D01*
X36919D01*
X36652Y708341D01*
X35326Y710326D01*
X33341Y711652D01*
X32000Y711919D01*
D02*
G37*
G36*
X10000D02*
X8659Y711652D01*
X6674Y710326D01*
X5348Y708341D01*
X5081Y707000D01*
X10000D01*
Y711919D01*
D02*
G37*
G36*
X12000D02*
Y707000D01*
X16919D01*
X16652Y708341D01*
X15326Y710326D01*
X13341Y711652D01*
X12000Y711919D01*
D02*
G37*
G36*
X70000D02*
X68659Y711652D01*
X66674Y710326D01*
X65348Y708341D01*
X65082Y707000D01*
X70000D01*
Y711919D01*
D02*
G37*
G36*
X72000D02*
Y707000D01*
X76919D01*
X76652Y708341D01*
X75326Y710326D01*
X73341Y711652D01*
X72000Y711919D01*
D02*
G37*
G36*
X50000D02*
X48659Y711652D01*
X46674Y710326D01*
X45348Y708341D01*
X45082Y707000D01*
X50000D01*
Y711919D01*
D02*
G37*
G36*
X52000D02*
Y707000D01*
X56919D01*
X56652Y708341D01*
X55326Y710326D01*
X53341Y711652D01*
X52000Y711919D01*
D02*
G37*
G36*
X230000Y705000D02*
X225082D01*
X225348Y703659D01*
X226674Y701674D01*
X228659Y700348D01*
X230000Y700081D01*
Y705000D01*
D02*
G37*
G36*
X236919D02*
X232000D01*
Y700081D01*
X233341Y700348D01*
X235326Y701674D01*
X236652Y703659D01*
X236919Y705000D01*
D02*
G37*
G36*
X190000D02*
X185082D01*
X185348Y703659D01*
X186674Y701674D01*
X188659Y700348D01*
X190000Y700081D01*
Y705000D01*
D02*
G37*
G36*
X196919D02*
X192000D01*
Y700081D01*
X193341Y700348D01*
X195326Y701674D01*
X196652Y703659D01*
X196919Y705000D01*
D02*
G37*
G36*
X530750Y704149D02*
X529799Y703960D01*
X528145Y702855D01*
X527040Y701201D01*
X526851Y700250D01*
X530750D01*
Y704149D01*
D02*
G37*
G36*
X532750D02*
Y700250D01*
X536649D01*
X536460Y701201D01*
X535355Y702855D01*
X533701Y703960D01*
X532750Y704149D01*
D02*
G37*
G36*
X250000Y705000D02*
X245082D01*
X245348Y703659D01*
X246674Y701674D01*
X248659Y700348D01*
X250000Y700081D01*
Y705000D01*
D02*
G37*
G36*
X256919D02*
X252000D01*
Y700081D01*
X253341Y700348D01*
X255326Y701674D01*
X256652Y703659D01*
X256919Y705000D01*
D02*
G37*
G36*
X25250Y619500D02*
X16750D01*
Y611000D01*
X25250D01*
Y619500D01*
D02*
G37*
G36*
X186919Y614000D02*
X182000D01*
Y609081D01*
X183341Y609348D01*
X185326Y610674D01*
X186652Y612659D01*
X186919Y614000D01*
D02*
G37*
G36*
X35749Y619500D02*
X27250D01*
Y611000D01*
X35749D01*
Y619500D01*
D02*
G37*
G36*
X142000Y620919D02*
Y616000D01*
X146919D01*
X146652Y617341D01*
X145326Y619326D01*
X143341Y620652D01*
X142000Y620919D01*
D02*
G37*
G36*
X140000D02*
X138659Y620652D01*
X136674Y619326D01*
X135348Y617341D01*
X135081Y616000D01*
X140000D01*
Y620919D01*
D02*
G37*
G36*
X146919Y614000D02*
X142000D01*
Y609081D01*
X143341Y609348D01*
X145326Y610674D01*
X146652Y612659D01*
X146919Y614000D01*
D02*
G37*
G36*
X140000D02*
X135081D01*
X135348Y612659D01*
X136674Y610674D01*
X138659Y609348D01*
X140000Y609081D01*
Y614000D01*
D02*
G37*
G36*
X160000D02*
X155081D01*
X155348Y612659D01*
X156674Y610674D01*
X158659Y609348D01*
X160000Y609081D01*
Y614000D01*
D02*
G37*
G36*
X180000D02*
X175081D01*
X175348Y612659D01*
X176674Y610674D01*
X178659Y609348D01*
X180000Y609081D01*
Y614000D01*
D02*
G37*
G36*
X166919D02*
X162000D01*
Y609081D01*
X163341Y609348D01*
X165326Y610674D01*
X166652Y612659D01*
X166919Y614000D01*
D02*
G37*
G36*
X160000Y620919D02*
X158659Y620652D01*
X156674Y619326D01*
X155348Y617341D01*
X155081Y616000D01*
X160000D01*
Y620919D01*
D02*
G37*
G36*
X356000Y624750D02*
X350750D01*
Y619000D01*
X356000D01*
Y624750D01*
D02*
G37*
G36*
X348750D02*
X343500D01*
Y619000D01*
X348750D01*
Y624750D01*
D02*
G37*
G36*
X173750Y627250D02*
X168000D01*
Y622000D01*
X173750D01*
Y627250D01*
D02*
G37*
G36*
X196250D02*
X190500D01*
Y622000D01*
X196250D01*
Y627250D01*
D02*
G37*
G36*
X188500D02*
X182750D01*
Y622000D01*
X188500D01*
Y627250D01*
D02*
G37*
G36*
X181500D02*
X175750D01*
Y622000D01*
X180310D01*
X180409Y621000D01*
X178659Y620652D01*
X176674Y619326D01*
X175348Y617341D01*
X175081Y616000D01*
X186919D01*
X186652Y617341D01*
X185326Y619326D01*
X183341Y620652D01*
X181530Y621012D01*
X181500Y622000D01*
X181500Y622038D01*
Y627250D01*
D02*
G37*
G36*
X162000Y620919D02*
Y616000D01*
X166919D01*
X166652Y617341D01*
X165326Y619326D01*
X163341Y620652D01*
X162000Y620919D01*
D02*
G37*
G36*
X210250Y626750D02*
X204000D01*
X197750D01*
Y621000D01*
X197750Y621000D01*
X197750D01*
X197709Y620017D01*
X196674Y619326D01*
X195348Y617341D01*
X195081Y616000D01*
X206919D01*
X206652Y617341D01*
X205326Y619326D01*
X204317Y620000D01*
X204620Y621000D01*
X210250D01*
Y626750D01*
D02*
G37*
G36*
X123919Y621000D02*
X119000D01*
Y616081D01*
X120341Y616348D01*
X122326Y617674D01*
X123652Y619659D01*
X123919Y621000D01*
D02*
G37*
G36*
X117000D02*
X112081D01*
X112348Y619659D01*
X113674Y617674D01*
X115659Y616348D01*
X117000Y616081D01*
Y621000D01*
D02*
G37*
G36*
X25499Y552000D02*
X16999D01*
Y543500D01*
X25499D01*
Y552000D01*
D02*
G37*
G36*
X418750Y541000D02*
X407750D01*
Y539793D01*
X407500Y539588D01*
X405744Y539239D01*
X404256Y538244D01*
X403261Y536756D01*
X402912Y535000D01*
X403261Y533244D01*
X404256Y531756D01*
X405744Y530761D01*
X407500Y530412D01*
X407750Y530207D01*
Y529000D01*
X418750D01*
Y541000D01*
D02*
G37*
G36*
X35999Y552000D02*
X27499D01*
Y543500D01*
X35999D01*
Y552000D01*
D02*
G37*
G36*
X356000Y554500D02*
X350750D01*
Y548750D01*
X356000D01*
Y554500D01*
D02*
G37*
G36*
X348750D02*
X343500D01*
Y548750D01*
X348750D01*
Y554500D01*
D02*
G37*
G36*
X424350Y512000D02*
X406000D01*
Y502100D01*
X424350D01*
Y512000D01*
D02*
G37*
G36*
X404000D02*
X385650D01*
Y502100D01*
X392081D01*
X392290Y501049D01*
X393395Y499395D01*
X395049Y498290D01*
X396000Y498101D01*
Y503000D01*
X398000D01*
Y498101D01*
X398951Y498290D01*
X400605Y499395D01*
X401710Y501049D01*
X401919Y502100D01*
X404000D01*
Y512000D01*
D02*
G37*
G36*
Y523900D02*
X385650D01*
Y514000D01*
X404000D01*
Y523900D01*
D02*
G37*
G36*
X79000Y530588D02*
X77244Y530239D01*
X75756Y529244D01*
X74761Y527756D01*
X74412Y526000D01*
X74761Y524244D01*
X75756Y522756D01*
X77244Y521761D01*
X79000Y521412D01*
X80756Y521761D01*
X82244Y522756D01*
X83239Y524244D01*
X83588Y526000D01*
X83239Y527756D01*
X82244Y529244D01*
X80756Y530239D01*
X79000Y530588D01*
D02*
G37*
G36*
X424350Y523900D02*
X406000D01*
Y514000D01*
X424350D01*
Y523900D01*
D02*
G37*
G36*
X584600Y563600D02*
X556600D01*
Y552600D01*
X584600D01*
Y563600D01*
D02*
G37*
G36*
X356000Y604500D02*
X349750D01*
X343500D01*
Y598750D01*
Y594000D01*
X349750D01*
X356000D01*
Y598750D01*
Y604500D01*
D02*
G37*
G36*
X441000Y598838D02*
X439244Y598489D01*
X437756Y597494D01*
X436761Y596006D01*
X436412Y594250D01*
X436761Y592494D01*
X437650Y591164D01*
Y572600D01*
X475350D01*
Y579941D01*
X527300D01*
Y578000D01*
X551300D01*
Y589000D01*
X527300D01*
Y586059D01*
X475350D01*
Y593400D01*
X446439D01*
X445588Y594250D01*
X445239Y596006D01*
X444244Y597494D01*
X442756Y598489D01*
X441000Y598838D01*
D02*
G37*
G36*
X25250Y609000D02*
X16750D01*
Y600500D01*
X25250D01*
Y609000D01*
D02*
G37*
G36*
X356000Y617000D02*
X349750D01*
X343500D01*
Y611250D01*
Y606500D01*
X349750D01*
X356000D01*
Y611250D01*
Y617000D01*
D02*
G37*
G36*
X35749Y609000D02*
X27250D01*
Y600500D01*
X35749D01*
Y609000D01*
D02*
G37*
G36*
X35999Y562500D02*
X27499D01*
Y554000D01*
X35999D01*
Y562500D01*
D02*
G37*
G36*
X25499D02*
X16999D01*
Y554000D01*
X25499D01*
Y562500D01*
D02*
G37*
G36*
X356000Y567000D02*
X349750D01*
X343500D01*
Y561250D01*
Y556500D01*
X349750D01*
X356000D01*
Y561250D01*
Y567000D01*
D02*
G37*
G36*
Y592000D02*
X349750D01*
X343500D01*
Y586250D01*
Y581500D01*
X349750D01*
Y579500D01*
X343500D01*
Y573750D01*
Y569000D01*
X349750D01*
X356000D01*
Y573750D01*
Y579902D01*
X357951Y580290D01*
X359605Y581395D01*
X360710Y583049D01*
X360899Y584000D01*
X356000D01*
Y586000D01*
X360899D01*
X360710Y586951D01*
X359605Y588605D01*
X357951Y589710D01*
X356000Y590098D01*
Y592000D01*
D02*
G37*
G36*
X610700Y579373D02*
X608481Y579081D01*
X606413Y578225D01*
X604638Y576862D01*
X603275Y575087D01*
X602419Y573019D01*
X602127Y570800D01*
X602419Y568581D01*
X603275Y566513D01*
X604638Y564738D01*
X606413Y563375D01*
X608481Y562519D01*
X610700Y562227D01*
X612919Y562519D01*
X614987Y563375D01*
X616762Y564738D01*
X618125Y566513D01*
X618981Y568581D01*
X619273Y570800D01*
X618981Y573019D01*
X618125Y575087D01*
X616762Y576862D01*
X614987Y578225D01*
X612919Y579081D01*
X610700Y579373D01*
D02*
G37*
G36*
X117000Y627919D02*
X115659Y627652D01*
X113674Y626326D01*
X112348Y624341D01*
X112081Y623000D01*
X117000D01*
Y627919D01*
D02*
G37*
G36*
X202000Y662899D02*
X201049Y662710D01*
X199395Y661605D01*
X198290Y659951D01*
X198101Y659000D01*
X202000D01*
Y662899D01*
D02*
G37*
G36*
X153000Y647500D02*
X141000D01*
Y641250D01*
X153000D01*
Y647500D01*
D02*
G37*
G36*
X260750Y663250D02*
X255500D01*
Y657500D01*
X260750D01*
Y663250D01*
D02*
G37*
G36*
X268000D02*
X262750D01*
Y657500D01*
X268000D01*
Y663250D01*
D02*
G37*
G36*
X139000Y647500D02*
X127000D01*
Y641250D01*
X139000D01*
Y647500D01*
D02*
G37*
G36*
X230000Y645000D02*
X225082D01*
X225348Y643659D01*
X226674Y641674D01*
X228659Y640348D01*
X230000Y640081D01*
Y645000D01*
D02*
G37*
G36*
X116919D02*
X112000D01*
Y640081D01*
X113341Y640348D01*
X115326Y641674D01*
X116652Y643659D01*
X116919Y645000D01*
D02*
G37*
G36*
X526000Y650580D02*
X521000D01*
Y640580D01*
X526000D01*
Y650580D01*
D02*
G37*
G36*
X236919Y645000D02*
X232000D01*
Y640081D01*
X233341Y640348D01*
X235326Y641674D01*
X236652Y643659D01*
X236919Y645000D01*
D02*
G37*
G36*
X281750Y647250D02*
X276000D01*
Y642000D01*
X281750D01*
Y647250D01*
D02*
G37*
G36*
X230000Y651919D02*
X228659Y651652D01*
X226674Y650326D01*
X225348Y648341D01*
X225082Y647000D01*
X230000D01*
Y651919D01*
D02*
G37*
G36*
X110000D02*
X108659Y651652D01*
X106674Y650326D01*
X105348Y648341D01*
X105082Y647000D01*
X110000D01*
Y651919D01*
D02*
G37*
G36*
X112000D02*
Y647000D01*
X116919D01*
X116652Y648341D01*
X115326Y650326D01*
X113341Y651652D01*
X112000Y651919D01*
D02*
G37*
G36*
X232000D02*
Y647000D01*
X236919D01*
X236652Y648341D01*
X235326Y650326D01*
X233341Y651652D01*
X232000Y651919D01*
D02*
G37*
G36*
X202000Y657000D02*
X198101D01*
X198290Y656049D01*
X199395Y654395D01*
X201049Y653290D01*
X202000Y653101D01*
Y657000D01*
D02*
G37*
G36*
X207899D02*
X204000D01*
Y653101D01*
X204951Y653290D01*
X206605Y654395D01*
X207710Y656049D01*
X207899Y657000D01*
D02*
G37*
G36*
X276000Y654500D02*
Y649250D01*
X281750D01*
Y654500D01*
X276000D01*
D02*
G37*
G36*
X452000Y662580D02*
X447000D01*
Y652580D01*
X452000D01*
Y662580D01*
D02*
G37*
G36*
X181250Y661500D02*
X169750D01*
Y659231D01*
X161750D01*
Y661500D01*
X148250D01*
Y648500D01*
X161750D01*
Y650769D01*
X169750D01*
Y649000D01*
X170519D01*
Y647500D01*
X168500D01*
Y636000D01*
X181000D01*
Y647500D01*
X178981D01*
Y649000D01*
X181250D01*
Y661500D01*
D02*
G37*
G36*
X513899Y633000D02*
X510000D01*
Y629101D01*
X510951Y629290D01*
X512605Y630395D01*
X513710Y632049D01*
X513899Y633000D01*
D02*
G37*
G36*
X210250Y634500D02*
X205000D01*
Y628750D01*
X210250D01*
Y634500D01*
D02*
G37*
G36*
X188500D02*
X182750D01*
Y629250D01*
X188500D01*
Y634500D01*
D02*
G37*
G36*
X173750D02*
X168000D01*
Y629250D01*
X173750D01*
Y634500D01*
D02*
G37*
G36*
X230000Y631000D02*
X225081D01*
X225348Y629659D01*
X226674Y627674D01*
X228659Y626348D01*
X230000Y626081D01*
Y631000D01*
D02*
G37*
G36*
X203000Y634500D02*
X197750D01*
Y628750D01*
X203000D01*
Y634500D01*
D02*
G37*
G36*
X119000Y627919D02*
Y623000D01*
X123919D01*
X123652Y624341D01*
X122326Y626326D01*
X120341Y627652D01*
X119000Y627919D01*
D02*
G37*
G36*
X508000Y633000D02*
X504101D01*
X504290Y632049D01*
X505395Y630395D01*
X507049Y629290D01*
X508000Y629101D01*
Y633000D01*
D02*
G37*
G36*
X204000Y662899D02*
Y659000D01*
X207899D01*
X207710Y659951D01*
X206605Y661605D01*
X204951Y662710D01*
X204000Y662899D01*
D02*
G37*
G36*
X254000Y662750D02*
X242500D01*
Y650250D01*
X242000Y649500D01*
X242000D01*
Y639105D01*
X237552Y634657D01*
X237509Y634642D01*
X236463Y634738D01*
X236336Y634813D01*
X235326Y636326D01*
X233341Y637652D01*
X232000Y637919D01*
Y632000D01*
Y626081D01*
X233341Y626348D01*
X235326Y627674D01*
X235494Y627926D01*
X236451Y627636D01*
Y622006D01*
X234551Y620106D01*
X233496Y620465D01*
X233239Y621756D01*
X232244Y623244D01*
X230756Y624239D01*
X229000Y624588D01*
X227244Y624239D01*
X225756Y623244D01*
X224761Y621756D01*
X224412Y620000D01*
X224575Y619180D01*
X222655Y617260D01*
X221731Y617643D01*
Y621500D01*
X223250D01*
Y634000D01*
X221731D01*
Y636000D01*
X223250D01*
Y648500D01*
X221731D01*
Y650000D01*
X223750D01*
Y661500D01*
X211250D01*
Y650000D01*
X213269D01*
Y648500D01*
X211750D01*
Y636000D01*
X213269D01*
Y634000D01*
X211750D01*
Y621500D01*
X213269D01*
Y613000D01*
X213404Y612318D01*
X213376Y612250D01*
X213449Y612076D01*
X213417Y611890D01*
X213500Y611523D01*
X212803Y610806D01*
X212500Y610867D01*
X211173Y610603D01*
X210049Y609851D01*
X208909Y609946D01*
X208631Y610132D01*
X207500Y610357D01*
X206369Y610132D01*
X206233Y610041D01*
X205329Y610364D01*
X205264Y610633D01*
X205326Y610674D01*
X206652Y612659D01*
X206919Y614000D01*
X195081D01*
X195348Y612659D01*
X196674Y610674D01*
X198659Y609348D01*
X199139Y609253D01*
X199687Y608124D01*
X199543Y607400D01*
Y606548D01*
X194709D01*
X194244Y607243D01*
X192755Y608238D01*
X191000Y608587D01*
X189244Y608238D01*
X187755Y607243D01*
X186761Y605755D01*
X186411Y603999D01*
X186761Y602243D01*
X187558Y601049D01*
X187148Y600049D01*
X180419D01*
X179588Y601000D01*
X179239Y602756D01*
X178244Y604244D01*
X176756Y605239D01*
X175000Y605588D01*
X173244Y605239D01*
X171756Y604244D01*
X170761Y602756D01*
X170412Y601000D01*
X170761Y599244D01*
X171756Y597756D01*
X173244Y596761D01*
X175000Y596412D01*
X175431Y596498D01*
X175808Y596077D01*
X175362Y595077D01*
X171278D01*
X170303Y594883D01*
X169476Y594331D01*
X158198Y583052D01*
X157645Y582225D01*
X157451Y581250D01*
Y529481D01*
X156451Y529067D01*
X150485Y535033D01*
X149958Y535385D01*
X149926Y536384D01*
X150598Y536900D01*
X151857Y538540D01*
X152648Y540450D01*
X152917Y542499D01*
X152648Y544548D01*
X151857Y546458D01*
X150598Y548098D01*
X148959Y549356D01*
X147049Y550147D01*
X145116Y550401D01*
X122241Y573276D01*
X122624Y574200D01*
X129500D01*
Y595000D01*
X122074D01*
X121692Y595924D01*
X123972Y598205D01*
X124256Y598261D01*
X125744Y599256D01*
X126739Y600744D01*
X127088Y602500D01*
X126739Y604256D01*
X125744Y605744D01*
X124256Y606739D01*
X122500Y607088D01*
X120744Y606739D01*
X119256Y605744D01*
X118261Y604256D01*
X118205Y603972D01*
X109232Y595000D01*
X91800D01*
Y588678D01*
X34302D01*
X34111Y589139D01*
X32668Y591019D01*
X30788Y592462D01*
X28599Y593368D01*
X26249Y593678D01*
X23900Y593368D01*
X21711Y592462D01*
X19831Y591019D01*
X18388Y589139D01*
X17481Y586950D01*
X17172Y584600D01*
X17481Y582251D01*
X18388Y580061D01*
X19831Y578181D01*
X21711Y576739D01*
X23900Y575832D01*
X26249Y575522D01*
X28599Y575832D01*
X30788Y576739D01*
X32668Y578181D01*
X34111Y580061D01*
X34302Y580522D01*
X91800D01*
Y574200D01*
X109782D01*
X137962Y546020D01*
X137352Y544548D01*
X137136Y542908D01*
X136124Y542505D01*
X131393Y547236D01*
X131332Y547696D01*
X130677Y549277D01*
X129636Y550635D01*
X128278Y551677D01*
X126697Y552332D01*
X125000Y552555D01*
X123303Y552332D01*
X121722Y551677D01*
X120364Y550635D01*
X119936Y550077D01*
X115250D01*
Y563750D01*
X94750D01*
Y534250D01*
X115250D01*
Y541921D01*
X119936D01*
X120364Y541363D01*
X121722Y540321D01*
X123303Y539666D01*
X125000Y539443D01*
X126697Y539666D01*
X127213Y539880D01*
X137829Y529265D01*
X139152Y528381D01*
X140713Y528070D01*
X140713Y528071D01*
X145912D01*
X146708Y527274D01*
X146326Y526350D01*
X127100D01*
Y511578D01*
X115250D01*
Y520750D01*
X94750D01*
Y511578D01*
X51439D01*
X35559Y527459D01*
X35577Y527600D01*
X35268Y529949D01*
X34361Y532139D01*
X32918Y534019D01*
X31038Y535462D01*
X28849Y536368D01*
X26500Y536678D01*
X24150Y536368D01*
X21961Y535462D01*
X20081Y534019D01*
X18638Y532139D01*
X17731Y529949D01*
X17422Y527600D01*
X17731Y525251D01*
X18638Y523061D01*
X20081Y521181D01*
X21961Y519739D01*
X24150Y518832D01*
X26500Y518522D01*
X28849Y518832D01*
X31038Y519739D01*
X31437Y520045D01*
X46866Y504616D01*
X46866Y504616D01*
X48189Y503732D01*
X49750Y503422D01*
X94750D01*
Y491250D01*
X115250D01*
Y503422D01*
X127100D01*
Y488650D01*
X147900D01*
Y524776D01*
X148824Y525159D01*
X149922Y524061D01*
Y478189D01*
X148824Y477092D01*
X147900Y477474D01*
Y478850D01*
X127100D01*
Y475578D01*
X110250D01*
Y486250D01*
X89750D01*
Y460621D01*
X88750Y459849D01*
X88500Y459899D01*
Y456000D01*
X92423D01*
X93038Y456750D01*
X109740D01*
X110589Y455890D01*
X110412Y455000D01*
X110455Y454781D01*
X98924Y443250D01*
X91076D01*
X84613Y449713D01*
X85250Y450490D01*
X85549Y450290D01*
X86500Y450101D01*
Y455000D01*
Y459899D01*
X85549Y459710D01*
X84059Y458714D01*
X83059Y459016D01*
Y465000D01*
X83059Y465000D01*
X82826Y466171D01*
X82163Y467163D01*
X82163Y467163D01*
X77303Y472023D01*
X76311Y472686D01*
X75140Y472919D01*
X75140Y472919D01*
X49910D01*
Y473360D01*
X45261D01*
X45062Y474360D01*
X45694Y474622D01*
X47366Y475904D01*
X48648Y477575D01*
X49454Y479522D01*
X49630Y480860D01*
X41660D01*
X33690D01*
X33866Y479522D01*
X34672Y477575D01*
X35954Y475904D01*
X37626Y474622D01*
X38258Y474360D01*
X38059Y473360D01*
X33410D01*
Y466360D01*
Y459860D01*
Y447860D01*
X32910D01*
Y444860D01*
X41660D01*
X50410D01*
Y447811D01*
X56051D01*
X56756Y446756D01*
X58244Y445761D01*
X60000Y445412D01*
X61756Y445761D01*
X63244Y446756D01*
X64239Y448244D01*
X64588Y450000D01*
X64239Y451756D01*
X64049Y452040D01*
X64503Y453040D01*
X65259Y453186D01*
X66104Y452621D01*
X67860Y452272D01*
X69616Y452621D01*
X71104Y453616D01*
X72099Y455104D01*
X72448Y456860D01*
X72099Y458616D01*
X71104Y460104D01*
X69616Y461099D01*
X67860Y461448D01*
X66454Y461169D01*
X66355Y461219D01*
X65719Y461855D01*
X65669Y461954D01*
X65948Y463360D01*
X65599Y465116D01*
X65141Y465801D01*
X65675Y466801D01*
X73873D01*
X76941Y463733D01*
Y450000D01*
X76941Y450000D01*
X77174Y448829D01*
X77837Y447837D01*
X87837Y437837D01*
X88829Y437174D01*
X89750Y436991D01*
Y413750D01*
X110250D01*
X110250Y413750D01*
Y413750D01*
X110988Y413186D01*
X114837Y409337D01*
X115829Y408674D01*
X117000Y408441D01*
X156987D01*
X156988Y408441D01*
X158158Y408674D01*
X158305Y408772D01*
X158758Y408682D01*
X160513Y409031D01*
X162002Y410026D01*
X162997Y411514D01*
X163346Y413270D01*
X162997Y415026D01*
X162002Y416515D01*
X160513Y417509D01*
X158758Y417858D01*
X157002Y417509D01*
X155513Y416515D01*
X154519Y415026D01*
X154426Y414559D01*
X146142D01*
X145551Y415559D01*
X145639Y416000D01*
X136861D01*
X136948Y415559D01*
X136358Y414559D01*
X118267D01*
X110250Y422576D01*
Y443250D01*
X108882D01*
X108500Y444174D01*
X114781Y450455D01*
X115000Y450412D01*
X116756Y450761D01*
X118244Y451756D01*
X119239Y453244D01*
X119588Y455000D01*
X119239Y456756D01*
X118244Y458244D01*
X116756Y459239D01*
X115000Y459588D01*
X113244Y459239D01*
X111756Y458244D01*
X111250Y457487D01*
X110250Y457791D01*
Y467422D01*
X127100D01*
Y441150D01*
X147900D01*
Y445523D01*
X148900Y446058D01*
X150049Y445290D01*
X151000Y445101D01*
Y450000D01*
X153000D01*
Y445101D01*
X153951Y445290D01*
X155605Y446395D01*
X156451Y447662D01*
X157451Y447358D01*
Y436000D01*
X157645Y435024D01*
X158198Y434198D01*
X187698Y404698D01*
X188525Y404145D01*
X189500Y403951D01*
X240694D01*
X254951Y389694D01*
Y327750D01*
X255145Y326774D01*
X255698Y325948D01*
X322850Y258795D01*
Y244150D01*
X343650D01*
Y255451D01*
X353220D01*
X353261Y255244D01*
X354256Y253756D01*
X355744Y252761D01*
X357500Y252412D01*
X359256Y252761D01*
X360744Y253756D01*
X361739Y255244D01*
X362088Y257000D01*
X361739Y258756D01*
X360744Y260244D01*
X359256Y261239D01*
X357500Y261588D01*
X355744Y261239D01*
X354712Y260549D01*
X343650D01*
Y279439D01*
X344574Y279821D01*
X362198Y262198D01*
X363024Y261645D01*
X364000Y261451D01*
X369600D01*
Y255203D01*
X368600Y254570D01*
X367250Y254838D01*
X365494Y254489D01*
X364006Y253494D01*
X363011Y252006D01*
X362662Y250250D01*
X363011Y248494D01*
X364006Y247006D01*
X365438Y246049D01*
X365449Y245975D01*
X364974Y245049D01*
X355000D01*
X354025Y244855D01*
X353198Y244302D01*
X334198Y225302D01*
X333645Y224475D01*
X333451Y223500D01*
Y211500D01*
X324000D01*
Y200500D01*
X340000D01*
Y200500D01*
X340000D01*
Y200500D01*
X356000D01*
Y200500D01*
X356000D01*
Y200500D01*
X363000D01*
X364000Y200500D01*
X365000Y200500D01*
X379000D01*
X380000Y200500D01*
X381000Y200500D01*
X388000D01*
Y200500D01*
X388000D01*
Y200500D01*
X403000D01*
X404000Y200500D01*
X405000Y200500D01*
X420000D01*
Y211500D01*
X411549D01*
Y212521D01*
X412756Y212761D01*
X414244Y213756D01*
X415239Y215244D01*
X415588Y217000D01*
X415239Y218756D01*
X414244Y220244D01*
X412756Y221239D01*
X411000Y221588D01*
X409244Y221239D01*
X407756Y220244D01*
X406761Y218756D01*
X406412Y217000D01*
X406630Y215902D01*
X406451Y215000D01*
Y212207D01*
X405881Y211637D01*
X404805Y211647D01*
X404719Y211738D01*
X404290Y212500D01*
X404588Y214000D01*
X404239Y215756D01*
X403244Y217244D01*
X401756Y218239D01*
X400000Y218588D01*
X398244Y218239D01*
X396756Y217244D01*
X395733Y217513D01*
X395244Y218244D01*
X393756Y219239D01*
X392506Y219487D01*
X392168Y220564D01*
X396556Y224951D01*
X596444D01*
X611545Y209850D01*
X611131Y208850D01*
X604600D01*
Y171150D01*
X610951D01*
Y153700D01*
X608000D01*
Y129700D01*
X619000D01*
Y153700D01*
X616049D01*
Y171150D01*
X625400D01*
Y208850D01*
X617549D01*
Y210000D01*
X617355Y210975D01*
X616802Y211802D01*
X599302Y229302D01*
X598475Y229855D01*
X597500Y230049D01*
X564917D01*
X564503Y231049D01*
X579802Y246348D01*
X580355Y247175D01*
X580549Y248151D01*
Y254444D01*
X584556Y258451D01*
X595000D01*
Y255000D01*
X606000D01*
Y258550D01*
X606475Y258645D01*
X607302Y259198D01*
X607500Y259493D01*
X608500Y259190D01*
Y255000D01*
X619500D01*
Y258451D01*
X626750D01*
Y255500D01*
X637750D01*
Y266500D01*
X626750D01*
Y263549D01*
X619500D01*
Y267000D01*
X608500D01*
Y262810D01*
X607500Y262507D01*
X607302Y262802D01*
X606475Y263355D01*
X606000Y263449D01*
Y267000D01*
X595000D01*
Y263549D01*
X583500D01*
X582525Y263355D01*
X581698Y262802D01*
X577973Y259078D01*
X577049Y259460D01*
Y263444D01*
X587056Y273451D01*
X595000D01*
Y270000D01*
X606000D01*
Y273550D01*
X606475Y273645D01*
X607302Y274198D01*
X607500Y274493D01*
X608500Y274190D01*
Y270000D01*
X619500D01*
Y273451D01*
X626750D01*
Y270500D01*
X637750D01*
Y281500D01*
X626750D01*
Y278549D01*
X619500D01*
Y282000D01*
X608500D01*
Y277810D01*
X607500Y277507D01*
X607302Y277802D01*
X606475Y278355D01*
X606000Y278449D01*
Y282000D01*
X595000D01*
Y278549D01*
X586000D01*
X585025Y278355D01*
X584198Y277802D01*
X574473Y268078D01*
X573549Y268460D01*
Y274944D01*
X587056Y288451D01*
X595000D01*
Y285000D01*
X606000D01*
Y288551D01*
X606475Y288645D01*
X607302Y289198D01*
X607500Y289494D01*
X608500Y289190D01*
Y285000D01*
X619500D01*
Y288451D01*
X626750D01*
Y285500D01*
X637750D01*
Y296500D01*
X626750D01*
Y293549D01*
X619500D01*
Y297000D01*
X608500D01*
Y292810D01*
X607500Y292507D01*
X607302Y292802D01*
X606475Y293355D01*
X606000Y293450D01*
Y297000D01*
X595000D01*
Y293549D01*
X586000D01*
X585025Y293355D01*
X584198Y292802D01*
X570973Y279578D01*
X570049Y279960D01*
Y286444D01*
X587056Y303451D01*
X595000D01*
Y300000D01*
X606000D01*
Y303550D01*
X606475Y303645D01*
X607302Y304198D01*
X607500Y304493D01*
X608500Y304190D01*
Y300000D01*
X619500D01*
Y303451D01*
X626750D01*
Y300500D01*
X637750D01*
Y311500D01*
X626750D01*
Y308549D01*
X619500D01*
Y312000D01*
X608500D01*
Y307810D01*
X607500Y307507D01*
X607302Y307802D01*
X606475Y308355D01*
X606000Y308449D01*
Y312000D01*
X595000D01*
Y308549D01*
X586000D01*
X585025Y308355D01*
X584198Y307802D01*
X567174Y290779D01*
X566250Y291161D01*
Y294500D01*
X561250D01*
Y285000D01*
X564951D01*
Y273500D01*
X561250D01*
Y263000D01*
Y252500D01*
X562589D01*
X562971Y251576D01*
X556444Y245049D01*
X390400D01*
Y277189D01*
X391324Y277571D01*
X402451Y266444D01*
Y262500D01*
X402645Y261525D01*
X403198Y260698D01*
X406448Y257448D01*
X407275Y256895D01*
X408250Y256701D01*
X441750D01*
X442725Y256895D01*
X443552Y257448D01*
X453802Y267698D01*
X454355Y268524D01*
X454549Y269500D01*
Y287250D01*
X456500D01*
Y292250D01*
Y302250D01*
Y311750D01*
X457000D01*
Y314000D01*
X452000D01*
X447000D01*
Y311750D01*
X447500D01*
Y307250D01*
Y294543D01*
X447000Y293750D01*
X442500D01*
Y294250D01*
X440250D01*
Y290250D01*
X438250D01*
Y294250D01*
X436000D01*
Y293750D01*
X432500D01*
Y294250D01*
X430250D01*
Y290250D01*
Y286250D01*
X431956D01*
Y284750D01*
X425500D01*
Y281544D01*
X422500D01*
Y284750D01*
X410500D01*
Y275299D01*
X405806D01*
X389578Y291527D01*
X389960Y292451D01*
X416500D01*
Y291000D01*
X421500D01*
Y290000D01*
X422500D01*
Y286750D01*
X426000D01*
Y286250D01*
X428250D01*
Y290250D01*
Y294250D01*
X426000D01*
X426000Y295250D01*
Y307250D01*
Y317250D01*
Y329750D01*
X426000Y330750D01*
X428250D01*
Y334750D01*
Y338750D01*
X426000D01*
Y338250D01*
X422500D01*
Y335000D01*
X421500D01*
Y334000D01*
X416500D01*
Y331750D01*
X417000D01*
Y322294D01*
X413000D01*
Y326500D01*
X400500D01*
Y315000D01*
X413000D01*
Y317706D01*
X417000D01*
Y312294D01*
X414000D01*
Y313500D01*
X403000D01*
Y301500D01*
X414000D01*
Y307706D01*
X417000D01*
Y297549D01*
X388556D01*
X382549Y303556D01*
Y385000D01*
X382355Y385975D01*
X381802Y386802D01*
X354302Y414302D01*
X353815Y414628D01*
X354205Y415570D01*
X355000Y415412D01*
X355820Y415575D01*
X365698Y405698D01*
X366525Y405145D01*
X367500Y404951D01*
X441444D01*
X464951Y381444D01*
Y335501D01*
X464069Y335030D01*
X463756Y335239D01*
X462000Y335588D01*
X460244Y335239D01*
X458756Y334244D01*
X457761Y332756D01*
X457720Y332549D01*
X456500D01*
Y337750D01*
X447500D01*
X447500Y338750D01*
X445250D01*
Y334750D01*
Y330750D01*
X447500D01*
X447500Y329750D01*
Y318250D01*
X447000D01*
Y316000D01*
X452000D01*
X457000D01*
Y318250D01*
X456500D01*
Y327451D01*
X459212D01*
X460244Y326761D01*
X462000Y326412D01*
X463756Y326761D01*
X464069Y326970D01*
X464951Y326499D01*
Y282500D01*
X465145Y281525D01*
X465698Y280698D01*
X491948Y254448D01*
X492000Y254413D01*
Y250500D01*
X504500D01*
Y253701D01*
X507250D01*
Y250750D01*
X519250D01*
Y252876D01*
X520250Y253375D01*
X520750Y253000D01*
Y253000D01*
X531750D01*
Y273000D01*
X520750D01*
Y261259D01*
X520218Y260835D01*
X519250Y261264D01*
Y261750D01*
X507250D01*
Y258799D01*
X504500D01*
Y262000D01*
X492000D01*
X492000Y262000D01*
Y262000D01*
X491178Y262427D01*
X490825Y262780D01*
X491519Y263500D01*
X492492Y263500D01*
X497250D01*
Y268750D01*
X491500D01*
Y264500D01*
X491500Y263519D01*
X490779Y262825D01*
X470049Y283556D01*
Y305040D01*
X470973Y305422D01*
X475948Y300448D01*
X476774Y299895D01*
X477750Y299701D01*
X492000D01*
Y296500D01*
X504500D01*
Y299701D01*
X507250D01*
Y296750D01*
X519250D01*
Y297236D01*
X520218Y297665D01*
X520750Y297241D01*
Y285500D01*
X531750D01*
Y305500D01*
X520750D01*
Y305500D01*
X520250Y305125D01*
X519250Y305624D01*
Y307750D01*
X507250D01*
Y304799D01*
X504500D01*
Y308000D01*
X492000D01*
Y304799D01*
X478806D01*
X473549Y310056D01*
Y383950D01*
X473355Y384925D01*
X472802Y385752D01*
X445752Y412802D01*
X444925Y413355D01*
X443950Y413549D01*
X372556D01*
X362856Y423249D01*
X362855Y423254D01*
X362302Y424081D01*
X359471Y426912D01*
X359588Y427500D01*
X359239Y429256D01*
X358244Y430744D01*
X356756Y431739D01*
X355000Y432088D01*
X353244Y431739D01*
X351756Y430744D01*
X350761Y429256D01*
X350412Y427500D01*
X350761Y425744D01*
X351756Y424256D01*
X351764Y424250D01*
Y423250D01*
X351756Y423244D01*
X350761Y421756D01*
X350412Y420000D01*
X350761Y418244D01*
X351756Y416756D01*
X352905Y415988D01*
X352514Y415046D01*
X352500Y415049D01*
X253556D01*
X197799Y470806D01*
Y539543D01*
X197900D01*
X199032Y539768D01*
X199079Y539800D01*
X199800Y539079D01*
X199768Y539031D01*
X199543Y537900D01*
Y532600D01*
X199768Y531469D01*
X200206Y530813D01*
Y520757D01*
X200381Y519879D01*
X200878Y519135D01*
X244635Y475378D01*
X244635Y475378D01*
X245380Y474881D01*
X246257Y474706D01*
X246257Y474706D01*
X254300D01*
Y460500D01*
X264900D01*
Y492731D01*
X264900Y492942D01*
X265224Y493075D01*
X265900Y493356D01*
X267000Y492256D01*
Y460500D01*
X277600D01*
Y493500D01*
X272244D01*
X268462Y497282D01*
X268845Y498206D01*
X301050D01*
X304825Y494431D01*
X305100Y493500D01*
X305100D01*
X305100Y493500D01*
Y460500D01*
X315700D01*
Y493500D01*
X312038D01*
X311622Y494122D01*
X308462Y497282D01*
X308845Y498206D01*
X322000D01*
Y490500D01*
X322000Y490500D01*
X321750Y489750D01*
X321750D01*
X321750Y489604D01*
Y477250D01*
X325206D01*
X325381Y476372D01*
X325462Y476250D01*
X325000Y475250D01*
X325000D01*
Y464250D01*
X345000D01*
Y475250D01*
X332744D01*
X331668Y476326D01*
X332051Y477250D01*
X333250D01*
Y489604D01*
X333250Y489750D01*
X333250D01*
X333000Y490500D01*
X333000Y490500D01*
Y501201D01*
X335500D01*
X335500Y490854D01*
X334750Y490250D01*
X334750Y489896D01*
Y484500D01*
X341000D01*
Y483500D01*
X342000D01*
Y476750D01*
X347250D01*
Y479000D01*
X347451Y479040D01*
X349105Y480145D01*
X350210Y481799D01*
X350451Y483011D01*
X351451Y482913D01*
Y444750D01*
X351645Y443774D01*
X352198Y442948D01*
X377948Y417198D01*
X378774Y416645D01*
X379750Y416451D01*
X525444D01*
X564951Y376944D01*
Y371000D01*
X561250D01*
Y360500D01*
Y350000D01*
X564951D01*
Y338500D01*
X561250D01*
Y329000D01*
X566250D01*
Y333839D01*
X567174Y334221D01*
X582198Y319198D01*
X583024Y318645D01*
X584000Y318451D01*
X595000D01*
Y315000D01*
X606000D01*
Y318550D01*
X606475Y318645D01*
X607302Y319198D01*
X607500Y319493D01*
X608500Y319190D01*
Y315000D01*
X619500D01*
Y318451D01*
X626750D01*
Y315500D01*
X637750D01*
Y326500D01*
X626750D01*
Y323549D01*
X619500D01*
Y327000D01*
X608500D01*
Y322810D01*
X607500Y322507D01*
X607302Y322802D01*
X606475Y323355D01*
X606000Y323450D01*
Y327000D01*
X595000D01*
Y323549D01*
X585056D01*
X570049Y338556D01*
Y345040D01*
X570973Y345422D01*
X582198Y334198D01*
X583024Y333645D01*
X584000Y333451D01*
X595000D01*
Y330000D01*
X606000D01*
Y333550D01*
X606475Y333645D01*
X607302Y334198D01*
X607500Y334493D01*
X608500Y334190D01*
Y330000D01*
X619500D01*
Y333451D01*
X626750D01*
Y330500D01*
X637750D01*
Y341500D01*
X626750D01*
Y338549D01*
X619500D01*
Y342000D01*
X608500D01*
Y337810D01*
X607500Y337507D01*
X607302Y337802D01*
X606475Y338355D01*
X606000Y338450D01*
Y342000D01*
X595000D01*
Y338549D01*
X585056D01*
X573549Y350056D01*
Y358075D01*
X574473Y358458D01*
X583733Y349198D01*
X584560Y348645D01*
X585536Y348451D01*
X595000D01*
Y345000D01*
X606000D01*
Y348550D01*
X606475Y348645D01*
X607302Y349198D01*
X607500Y349493D01*
X608500Y349190D01*
Y345000D01*
X619500D01*
Y348451D01*
X626750D01*
Y345500D01*
X637750D01*
Y356500D01*
X626750D01*
Y353549D01*
X619500D01*
Y357000D01*
X608500D01*
Y352810D01*
X607500Y352507D01*
X607302Y352802D01*
X606475Y353355D01*
X606000Y353450D01*
Y357000D01*
X595000D01*
Y353549D01*
X586591D01*
X577049Y363091D01*
Y368040D01*
X577973Y368422D01*
X582198Y364198D01*
X583024Y363645D01*
X584000Y363451D01*
X595000D01*
Y360000D01*
X606000D01*
Y363550D01*
X606475Y363645D01*
X607302Y364198D01*
X607500Y364493D01*
X608500Y364190D01*
Y360000D01*
X619500D01*
Y363451D01*
X626750D01*
Y360500D01*
X637750D01*
Y371500D01*
X626750D01*
Y368549D01*
X619500D01*
Y372000D01*
X608500D01*
Y367810D01*
X607500Y367507D01*
X607302Y367802D01*
X606475Y368355D01*
X606000Y368450D01*
Y372000D01*
X595000D01*
Y368549D01*
X585056D01*
X580549Y373056D01*
Y382349D01*
X580355Y383325D01*
X579802Y384152D01*
X532652Y431302D01*
X531825Y431855D01*
X530849Y432049D01*
X385155D01*
X367049Y450155D01*
Y502099D01*
X366855Y503075D01*
X366302Y503902D01*
X354152Y516052D01*
X353325Y516605D01*
X352349Y516799D01*
X302341D01*
X302037Y517799D01*
X302759Y518281D01*
X303754Y519770D01*
X303789Y519948D01*
X304900Y520408D01*
X305494Y520011D01*
X307250Y519662D01*
X309006Y520011D01*
X310494Y521006D01*
X311489Y522494D01*
X311838Y524250D01*
X311626Y525316D01*
X312477Y526166D01*
X312500Y526162D01*
X313618Y526384D01*
X314470Y525543D01*
X314412Y525250D01*
X314761Y523494D01*
X315756Y522006D01*
X317244Y521011D01*
X319000Y520662D01*
X320756Y521011D01*
X322244Y522006D01*
X323239Y523494D01*
X323588Y525250D01*
X323239Y527006D01*
X322244Y528494D01*
X321549Y528959D01*
Y532028D01*
X321355Y533004D01*
X320802Y533830D01*
X316581Y538052D01*
X315754Y538605D01*
X314778Y538799D01*
X311655D01*
X287230Y563224D01*
X287722Y564146D01*
X288270Y564037D01*
X290026Y564386D01*
X291514Y565381D01*
X292509Y566869D01*
X292858Y568625D01*
X292509Y570381D01*
X291514Y571870D01*
X290026Y572864D01*
X288270Y573213D01*
X286514Y572864D01*
X285026Y571870D01*
X284761Y571843D01*
X280630Y575975D01*
X280985Y577034D01*
X282269Y577290D01*
X283758Y578284D01*
X284753Y579773D01*
X285102Y581528D01*
X284753Y583284D01*
X284361Y583870D01*
X285138Y584507D01*
X297451Y572194D01*
Y560500D01*
X297645Y559524D01*
X298198Y558698D01*
X308325Y548570D01*
X308162Y547750D01*
X308511Y545994D01*
X309506Y544506D01*
X310994Y543511D01*
X312750Y543162D01*
X314506Y543511D01*
X315994Y544506D01*
X316989Y545994D01*
X317338Y547750D01*
X316989Y549506D01*
X315994Y550994D01*
X314506Y551989D01*
X312750Y552338D01*
X311930Y552175D01*
X302549Y561556D01*
Y573250D01*
X302355Y574225D01*
X301802Y575052D01*
X280802Y596052D01*
X279975Y596605D01*
X279000Y596799D01*
X270932D01*
X270357Y597500D01*
X270132Y598632D01*
X269491Y599591D01*
X268531Y600232D01*
X267400Y600457D01*
X262100D01*
X260968Y600232D01*
X260921Y600200D01*
X260200Y600921D01*
X260232Y600969D01*
X260457Y602100D01*
Y607400D01*
X260232Y608531D01*
X259617Y609451D01*
X259664Y609684D01*
X259954Y610451D01*
X328010D01*
X328313Y609451D01*
X327256Y608744D01*
X326261Y607256D01*
X325912Y605500D01*
X326261Y603744D01*
X327256Y602256D01*
X328744Y601261D01*
X330500Y600912D01*
Y586750D01*
Y575998D01*
X330000Y575588D01*
X328244Y575239D01*
X326756Y574244D01*
X325761Y572756D01*
X325412Y571000D01*
X325761Y569244D01*
X326756Y567756D01*
X328244Y566761D01*
X330000Y566412D01*
X330500Y566002D01*
Y561750D01*
Y549250D01*
X342000D01*
Y561750D01*
Y574250D01*
Y586750D01*
Y599250D01*
Y611750D01*
Y624250D01*
X330500D01*
Y615855D01*
X330194Y615549D01*
X258496D01*
X258113Y616473D01*
X259140Y617500D01*
X268000D01*
Y624145D01*
X272855Y629000D01*
X281250D01*
Y640500D01*
X269477D01*
X268906Y641500D01*
X269201Y642000D01*
X274000D01*
Y648250D01*
Y654500D01*
X268250D01*
X268000Y655396D01*
Y655500D01*
X261750D01*
X255500D01*
Y650701D01*
X254788Y650280D01*
X254000Y650977D01*
Y662750D01*
D02*
G37*
G36*
X230000Y637919D02*
X228659Y637652D01*
X226674Y636326D01*
X225348Y634341D01*
X225081Y633000D01*
X230000D01*
Y637919D01*
D02*
G37*
G36*
X110000Y645000D02*
X105082D01*
X105348Y643659D01*
X106674Y641674D01*
X108659Y640348D01*
X110000Y640081D01*
Y645000D01*
D02*
G37*
G36*
X194750Y661500D02*
X183250D01*
Y649000D01*
X184769D01*
Y647500D01*
X183250D01*
Y636000D01*
X195750D01*
Y638019D01*
X198250D01*
Y636000D01*
X209750D01*
Y648500D01*
X198250D01*
Y646481D01*
X195750D01*
Y647500D01*
X193231D01*
Y649000D01*
X194750D01*
Y661500D01*
D02*
G37*
G36*
X153000Y639250D02*
X141000D01*
Y633000D01*
X153000D01*
Y639250D01*
D02*
G37*
G36*
X181500Y634500D02*
X175750D01*
Y629250D01*
X181500D01*
Y634500D01*
D02*
G37*
G36*
X139000Y639250D02*
X127000D01*
Y633000D01*
X139000D01*
Y639250D01*
D02*
G37*
G36*
X196250Y634500D02*
X190500D01*
Y629250D01*
X196250D01*
Y634500D01*
D02*
G37*
%LPD*%
G36*
X213500Y598832D02*
X213827Y598897D01*
X214951Y599649D01*
X216091Y599554D01*
X216369Y599368D01*
X217500Y599143D01*
X218631Y599368D01*
X219591Y600009D01*
X220409D01*
X221369Y599368D01*
X222500Y599143D01*
X223631Y599368D01*
X224591Y600009D01*
X225409D01*
X226369Y599368D01*
X227500Y599143D01*
X228631Y599368D01*
X229591Y600009D01*
X230409D01*
X231369Y599368D01*
X232500Y599143D01*
X233631Y599368D01*
X234591Y600009D01*
X235409D01*
X236369Y599368D01*
X237500Y599143D01*
X238631Y599368D01*
X239591Y600009D01*
X240409D01*
X241369Y599368D01*
X242500Y599143D01*
X243631Y599368D01*
X244591Y600009D01*
X245409D01*
X246369Y599368D01*
X247500Y599143D01*
X248631Y599368D01*
X248909Y599554D01*
X250049Y599649D01*
X251173Y598897D01*
X251500Y598832D01*
Y604750D01*
X253500D01*
Y598832D01*
X253827Y598897D01*
X254951Y599649D01*
X256091Y599554D01*
X256369Y599368D01*
X257500Y599143D01*
X258631Y599368D01*
X258679Y599400D01*
X259400Y598679D01*
X259368Y598632D01*
X259143Y597500D01*
X259368Y596368D01*
X260009Y595409D01*
Y594591D01*
X259368Y593632D01*
X259143Y592500D01*
X259368Y591368D01*
X260009Y590409D01*
Y589591D01*
X259368Y588632D01*
X259143Y587500D01*
X259368Y586368D01*
X260009Y585409D01*
Y584591D01*
X259368Y583632D01*
X259143Y582500D01*
X259368Y581368D01*
X260009Y580409D01*
Y579591D01*
X259368Y578632D01*
X259143Y577500D01*
X259368Y576368D01*
X260009Y575409D01*
Y574591D01*
X259368Y573632D01*
X259143Y572500D01*
X259368Y571368D01*
X260009Y570409D01*
Y569591D01*
X259368Y568632D01*
X259143Y567500D01*
X259368Y566368D01*
X260009Y565409D01*
Y564591D01*
X259368Y563632D01*
X259143Y562500D01*
X259368Y561368D01*
X260009Y560409D01*
Y559591D01*
X259368Y558632D01*
X259143Y557500D01*
X259368Y556368D01*
X260009Y555409D01*
Y554591D01*
X259368Y553632D01*
X259143Y552500D01*
X259368Y551368D01*
X259832Y550675D01*
X259942Y550000D01*
X259832Y549325D01*
X259368Y548632D01*
X259143Y547500D01*
X259368Y546368D01*
X259554Y546091D01*
X259649Y544951D01*
X258897Y543827D01*
X258832Y543500D01*
X264750D01*
X270668D01*
X270603Y543827D01*
X270022Y544696D01*
X270232Y545539D01*
X270396Y545790D01*
X271506Y546011D01*
X272994Y547006D01*
X273989Y548494D01*
X274338Y550250D01*
X273989Y552006D01*
X272994Y553494D01*
X272644Y553729D01*
X272901Y554759D01*
X273553Y554842D01*
X296966Y531430D01*
Y525234D01*
X296270Y524770D01*
X295276Y523281D01*
X294926Y521525D01*
X295276Y519770D01*
X296270Y518281D01*
X296992Y517799D01*
X296689Y516799D01*
X237994D01*
X235049Y519744D01*
Y529088D01*
X235931Y529559D01*
X236173Y529397D01*
X236500Y529332D01*
Y535250D01*
Y541168D01*
X236173Y541103D01*
X235049Y540351D01*
X233909Y540446D01*
X233631Y540632D01*
X232500Y540857D01*
X231369Y540632D01*
X230409Y539991D01*
X229591D01*
X228631Y540632D01*
X227500Y540857D01*
X226369Y540632D01*
X225409Y539991D01*
X224591D01*
X223631Y540632D01*
X222500Y540857D01*
X221369Y540632D01*
X220675Y540168D01*
X220000Y540058D01*
X219325Y540168D01*
X218631Y540632D01*
X217500Y540857D01*
X216369Y540632D01*
X215409Y539991D01*
X214591D01*
X213631Y540632D01*
X212500Y540857D01*
X211369Y540632D01*
X210675Y540168D01*
X210000Y540058D01*
X209325Y540168D01*
X208631Y540632D01*
X207500Y540857D01*
X206369Y540632D01*
X205409Y539991D01*
X204591D01*
X203631Y540632D01*
X202500Y540857D01*
X201369Y540632D01*
X201321Y540600D01*
X200600Y541321D01*
X200632Y541368D01*
X200857Y542500D01*
X200632Y543632D01*
X199991Y544591D01*
Y545409D01*
X200632Y546368D01*
X200857Y547500D01*
X200632Y548632D01*
X199991Y549591D01*
Y550409D01*
X200632Y551368D01*
X200857Y552500D01*
X200632Y553632D01*
X199991Y554591D01*
Y555409D01*
X200632Y556368D01*
X200857Y557500D01*
X200632Y558632D01*
X199991Y559591D01*
Y560409D01*
X200632Y561368D01*
X200857Y562500D01*
X200632Y563632D01*
X199991Y564591D01*
Y565409D01*
X200632Y566368D01*
X200857Y567500D01*
X200632Y568632D01*
X199991Y569591D01*
Y570409D01*
X200632Y571368D01*
X200857Y572500D01*
X200632Y573632D01*
X199991Y574591D01*
Y575409D01*
X200632Y576368D01*
X200857Y577500D01*
X200632Y578632D01*
X199991Y579591D01*
Y580409D01*
X200632Y581368D01*
X200857Y582500D01*
X200632Y583632D01*
X199991Y584591D01*
Y585409D01*
X200632Y586368D01*
X200857Y587500D01*
X200632Y588632D01*
X199991Y589591D01*
Y590409D01*
X200632Y591368D01*
X200857Y592500D01*
X200632Y593632D01*
X199991Y594591D01*
Y595409D01*
X200632Y596368D01*
X200857Y597500D01*
X200632Y598632D01*
X200600Y598679D01*
X201321Y599400D01*
X201369Y599368D01*
X202500Y599143D01*
X203631Y599368D01*
X204591Y600009D01*
X205409D01*
X206369Y599368D01*
X207500Y599143D01*
X208631Y599368D01*
X208909Y599554D01*
X210049Y599649D01*
X211173Y598897D01*
X211500Y598832D01*
Y604750D01*
X213500D01*
Y598832D01*
D02*
G37*
G36*
X219250Y608750D02*
X218750Y606750D01*
X216250D01*
X215000Y612250D01*
X220000D01*
X219250Y608750D01*
D02*
G37*
G36*
X175746Y560144D02*
X176721Y559950D01*
X179855D01*
X180454Y558950D01*
X180190Y557622D01*
X179341Y556971D01*
X178750Y557088D01*
X176994Y556739D01*
X175506Y555744D01*
X174511Y554256D01*
X174162Y552500D01*
X174511Y550744D01*
X175506Y549256D01*
X176994Y548261D01*
X178750Y547912D01*
X180130Y548186D01*
X180909Y547568D01*
X180996Y547417D01*
X180794Y546400D01*
X181143Y544644D01*
X182138Y543156D01*
X183627Y542161D01*
X185382Y541812D01*
X187138Y542161D01*
X188627Y543156D01*
X188808Y543427D01*
X189750Y543037D01*
X189643Y542500D01*
X189868Y541368D01*
X190509Y540409D01*
X191469Y539768D01*
X192600Y539543D01*
X192701D01*
Y469750D01*
X192895Y468774D01*
X193448Y467948D01*
X250698Y410698D01*
X251525Y410145D01*
X252500Y409951D01*
X351444D01*
X377451Y383944D01*
Y304960D01*
X376527Y304578D01*
X375049Y306056D01*
Y340000D01*
X374855Y340975D01*
X374302Y341802D01*
X363455Y352650D01*
X363869Y353650D01*
X365400D01*
Y391350D01*
X344600D01*
Y365049D01*
X319250D01*
Y366500D01*
X319250D01*
X318742Y367500D01*
X319239Y368244D01*
X319588Y370000D01*
X319239Y371756D01*
X318244Y373244D01*
X318236Y373250D01*
X318539Y374250D01*
X321500D01*
Y385250D01*
X309500D01*
Y378830D01*
X308618Y378358D01*
X308500Y378437D01*
Y385250D01*
X296500D01*
Y375998D01*
X295999Y375587D01*
X294244Y375238D01*
X292755Y374244D01*
X291761Y372755D01*
X291411Y370999D01*
X291748Y369305D01*
X291548Y369113D01*
X290921Y368727D01*
X289451Y369710D01*
X288500Y369899D01*
Y365000D01*
X287500D01*
Y364000D01*
X282601D01*
X282790Y363049D01*
X283895Y361395D01*
X285549Y360290D01*
X286750Y360051D01*
Y358000D01*
X290250D01*
Y362500D01*
X292250D01*
Y358000D01*
X295750D01*
Y358500D01*
X307110D01*
X309912Y355698D01*
X310739Y355145D01*
X311714Y354951D01*
X329444D01*
X347121Y337274D01*
X346739Y336350D01*
X344600D01*
Y298650D01*
X365400D01*
Y302189D01*
X366324Y302571D01*
X386621Y282274D01*
X386239Y281350D01*
X369600D01*
Y266549D01*
X365056D01*
X345302Y286302D01*
X344476Y286855D01*
X343500Y287049D01*
X306756D01*
X263549Y330256D01*
Y392200D01*
X263355Y393175D01*
X262802Y394002D01*
X245002Y411802D01*
X244175Y412355D01*
X243200Y412549D01*
X192006D01*
X166049Y438506D01*
Y559126D01*
X167049Y559576D01*
X168195Y558811D01*
X169950Y558461D01*
X171706Y558811D01*
X173195Y559805D01*
X173659Y560501D01*
X175212D01*
X175746Y560144D01*
D02*
G37*
%LPC*%
G36*
X234000Y559050D02*
X230950D01*
Y556000D01*
X234000D01*
Y559050D01*
D02*
G37*
G36*
X229050D02*
X226000D01*
Y556000D01*
X229050D01*
Y559050D01*
D02*
G37*
G36*
X214000Y564000D02*
X210950D01*
Y560950D01*
X214000D01*
Y564000D01*
D02*
G37*
G36*
X229050Y564000D02*
X226000D01*
Y560950D01*
X229050D01*
Y564000D01*
D02*
G37*
G36*
X249050Y559050D02*
X246000D01*
Y556000D01*
X249050D01*
Y559050D01*
D02*
G37*
G36*
X214000D02*
X210950D01*
Y556000D01*
X214000D01*
Y559050D01*
D02*
G37*
G36*
X219050Y584000D02*
X216000D01*
Y580950D01*
X216305D01*
X216609Y579950D01*
X216000Y579543D01*
Y575000D01*
Y570457D01*
X216609Y570050D01*
X216305Y569050D01*
X216000D01*
Y565000D01*
Y560950D01*
X216305D01*
X216609Y559950D01*
X216000Y559543D01*
Y555000D01*
Y550457D01*
X217659Y549348D01*
X219000Y549081D01*
Y555000D01*
X221000D01*
Y549081D01*
X222341Y549348D01*
X224000Y550457D01*
Y555000D01*
Y559543D01*
X223391Y559950D01*
X223695Y560950D01*
X224000D01*
Y565000D01*
Y569050D01*
X223695D01*
X223391Y570050D01*
X224000Y570457D01*
Y575000D01*
Y579543D01*
X223391Y579950D01*
X223695Y580950D01*
X224000D01*
Y584000D01*
X220950D01*
Y581948D01*
X220000Y581118D01*
X219050Y581948D01*
Y584000D01*
D02*
G37*
G36*
X214000Y554000D02*
X210950D01*
Y550950D01*
X214000D01*
Y554000D01*
D02*
G37*
G36*
X270668Y541500D02*
X265750D01*
Y539033D01*
X267400D01*
X268727Y539297D01*
X269851Y540049D01*
X270603Y541173D01*
X270668Y541500D01*
D02*
G37*
G36*
X263750D02*
X258711D01*
X258108Y540783D01*
X258040Y540750D01*
X257500Y540857D01*
X256369Y540632D01*
X255409Y539991D01*
X254591D01*
X253631Y540632D01*
X252500Y540857D01*
X251369Y540632D01*
X250409Y539991D01*
X249591D01*
X248631Y540632D01*
X247500Y540857D01*
X246369Y540632D01*
X245409Y539991D01*
X244591D01*
X243631Y540632D01*
X242500Y540857D01*
X241369Y540632D01*
X241091Y540446D01*
X239951Y540351D01*
X238827Y541103D01*
X238500Y541168D01*
Y535250D01*
Y529332D01*
X238696Y529371D01*
X239184Y529206D01*
X239696Y528932D01*
Y527000D01*
X239910Y525927D01*
X240517Y525017D01*
X240765Y524770D01*
X240662Y524250D01*
X241011Y522494D01*
X242006Y521006D01*
X243494Y520011D01*
X245250Y519662D01*
X247006Y520011D01*
X248494Y521006D01*
X249489Y522494D01*
X249838Y524250D01*
X249716Y524866D01*
X250090Y525427D01*
X250304Y526500D01*
Y529377D01*
X251304Y529911D01*
X251369Y529868D01*
X252500Y529643D01*
X253631Y529868D01*
X254591Y530509D01*
X255409D01*
X256369Y529868D01*
X257500Y529643D01*
X258631Y529868D01*
X259591Y530509D01*
X260232Y531469D01*
X260457Y532600D01*
Y537900D01*
X260350Y538440D01*
X260383Y538508D01*
X261216Y539209D01*
X262100Y539033D01*
X263750D01*
Y541500D01*
D02*
G37*
G36*
X229050Y554000D02*
X226000D01*
Y550950D01*
X229050D01*
Y554000D01*
D02*
G37*
G36*
X249050Y554000D02*
X246000D01*
Y550950D01*
X249050D01*
Y554000D01*
D02*
G37*
G36*
X244000D02*
X240950D01*
Y550950D01*
X244000D01*
Y554000D01*
D02*
G37*
G36*
X234000Y554000D02*
X230950D01*
Y550950D01*
X234000D01*
Y554000D01*
D02*
G37*
G36*
X239050D02*
X236000D01*
Y550950D01*
X239050D01*
Y554000D01*
D02*
G37*
G36*
X241000Y590919D02*
Y585000D01*
X239000D01*
Y590919D01*
X237659Y590652D01*
X236000Y589543D01*
Y585000D01*
Y580457D01*
X236609Y580050D01*
X236305Y579050D01*
X236000D01*
Y575000D01*
Y570950D01*
X236305D01*
X236609Y569950D01*
X236000Y569543D01*
Y565000D01*
Y560457D01*
X236609Y560050D01*
X236305Y559050D01*
X236000D01*
Y556000D01*
X239050D01*
Y558052D01*
X240000Y558882D01*
X240950Y558052D01*
Y556000D01*
X244000D01*
Y559050D01*
X243695D01*
X243391Y560050D01*
X244000Y560457D01*
Y565000D01*
Y569543D01*
X243391Y569950D01*
X243695Y570950D01*
X244000D01*
Y575000D01*
Y579050D01*
X243695D01*
X243391Y580050D01*
X244000Y580457D01*
Y585000D01*
Y589543D01*
X242341Y590652D01*
X241000Y590919D01*
D02*
G37*
G36*
X224000Y589050D02*
X220950D01*
Y586000D01*
X224000D01*
Y589050D01*
D02*
G37*
G36*
X229050D02*
X226000D01*
Y586000D01*
X229050D01*
Y589050D01*
D02*
G37*
G36*
X249050Y584000D02*
X246000D01*
Y580950D01*
X249050D01*
Y584000D01*
D02*
G37*
G36*
X214000Y584000D02*
X210950D01*
Y580950D01*
X214000D01*
Y584000D01*
D02*
G37*
G36*
X229050Y584000D02*
X226000D01*
Y580950D01*
X229050D01*
Y584000D01*
D02*
G37*
G36*
X234000Y584000D02*
X230950D01*
Y580950D01*
X234000D01*
Y584000D01*
D02*
G37*
G36*
Y589050D02*
X230950D01*
Y586000D01*
X234000D01*
Y589050D01*
D02*
G37*
G36*
X249050D02*
X246000D01*
Y586000D01*
X249050D01*
Y589050D01*
D02*
G37*
G36*
X214000D02*
X210950D01*
Y586000D01*
X214000D01*
Y589050D01*
D02*
G37*
G36*
X219050D02*
X216000D01*
Y586000D01*
X219050D01*
Y589050D01*
D02*
G37*
G36*
X249050Y569050D02*
X246000D01*
Y566000D01*
X249050D01*
Y569050D01*
D02*
G37*
G36*
X214000D02*
X210950D01*
Y566000D01*
X214000D01*
Y569050D01*
D02*
G37*
G36*
X214000Y574000D02*
X210950D01*
Y570950D01*
X214000D01*
Y574000D01*
D02*
G37*
G36*
X234000Y569050D02*
X230950D01*
Y566000D01*
X234000D01*
Y569050D01*
D02*
G37*
G36*
Y564000D02*
X230950D01*
Y560950D01*
X234000D01*
Y564000D01*
D02*
G37*
G36*
X249050Y564000D02*
X246000D01*
Y560950D01*
X249050D01*
Y564000D01*
D02*
G37*
G36*
X229050Y569050D02*
X226000D01*
Y566000D01*
X229050D01*
Y569050D01*
D02*
G37*
G36*
Y574000D02*
X226000D01*
Y570950D01*
X229050D01*
Y574000D01*
D02*
G37*
G36*
X249050Y579050D02*
X246000D01*
Y576000D01*
X249050D01*
Y579050D01*
D02*
G37*
G36*
X214000D02*
X210950D01*
Y576000D01*
X214000D01*
Y579050D01*
D02*
G37*
G36*
X234000D02*
X230950D01*
Y576000D01*
X234000D01*
Y579050D01*
D02*
G37*
G36*
Y574000D02*
X230950D01*
Y570950D01*
X234000D01*
Y574000D01*
D02*
G37*
G36*
X249050Y574000D02*
X246000D01*
Y570950D01*
X249050D01*
Y574000D01*
D02*
G37*
G36*
X229050Y579050D02*
X226000D01*
Y576000D01*
X229050D01*
Y579050D01*
D02*
G37*
G36*
X327250Y338750D02*
X321750D01*
Y333750D01*
X327250D01*
Y338750D01*
D02*
G37*
G36*
X334750D02*
X329250D01*
Y333750D01*
X334750D01*
Y338750D01*
D02*
G37*
G36*
Y345750D02*
X329250D01*
Y340750D01*
X334750D01*
Y345750D01*
D02*
G37*
G36*
X286500Y369899D02*
X285549Y369710D01*
X283895Y368605D01*
X282790Y366951D01*
X282601Y366000D01*
X286500D01*
Y369899D01*
D02*
G37*
G36*
X297500Y404588D02*
X295744Y404239D01*
X294256Y403244D01*
X293261Y401756D01*
X292912Y400000D01*
X293261Y398244D01*
X294256Y396756D01*
X295500Y395924D01*
X296500Y394924D01*
Y387750D01*
X308500D01*
Y390191D01*
X309500D01*
Y387750D01*
X321500D01*
Y398750D01*
X309500D01*
Y396309D01*
X308500D01*
Y398750D01*
X302628D01*
X301993Y399523D01*
X302088Y400000D01*
X301739Y401756D01*
X300744Y403244D01*
X299256Y404239D01*
X297500Y404588D01*
D02*
G37*
G36*
X327250Y345750D02*
X321750D01*
Y340750D01*
X327250D01*
Y345750D01*
D02*
G37*
G36*
X303750Y343000D02*
X300250D01*
Y338500D01*
X298250D01*
Y343000D01*
X294750D01*
Y342500D01*
X287250D01*
Y334500D01*
X288451D01*
Y329709D01*
X287756Y329244D01*
X286761Y327756D01*
X286412Y326000D01*
X286761Y324244D01*
X287756Y322756D01*
X289244Y321761D01*
X291000Y321412D01*
X292756Y321761D01*
X294244Y322756D01*
X294375Y322951D01*
X296000D01*
Y319500D01*
X307000D01*
Y327395D01*
X308500Y328895D01*
X309500Y328481D01*
Y319500D01*
X320500D01*
Y322951D01*
X322250D01*
Y320750D01*
X334250D01*
Y331750D01*
X322250D01*
Y328049D01*
X320500D01*
Y331500D01*
X317799D01*
Y334500D01*
X319250D01*
Y342500D01*
X312250D01*
X311250Y342500D01*
Y342500D01*
X311250D01*
Y342500D01*
X303750D01*
Y343000D01*
D02*
G37*
%LPD*%
D10*
X516440Y681440D02*
G03*
X509000Y663479I17960J-17960D01*
G01*
X534521Y689000D02*
G03*
X516561Y681561I0J-25400D01*
G01*
X217500Y709250D02*
Y784500D01*
X216000Y786000D02*
X217500Y784500D01*
Y669250D02*
Y682500D01*
Y695750D01*
X174750Y654500D02*
X175250Y655000D01*
X174750Y641750D02*
Y654500D01*
X155000Y655000D02*
X175250D01*
X189500Y641750D02*
X190000Y642250D01*
X204000D01*
X189000D02*
Y655250D01*
X217500Y627750D02*
Y642250D01*
Y655750D01*
Y613000D02*
Y627750D01*
X509000Y651580D02*
Y663479D01*
X516440Y681440D02*
X516561Y681561D01*
X534521Y689000D02*
X561000D01*
X223010Y189000D02*
X225010Y191000D01*
X254250D01*
D11*
X248500Y625000D02*
D03*
Y642000D02*
D03*
X261500Y625000D02*
D03*
Y642000D02*
D03*
D12*
X245000Y585000D02*
D03*
Y575000D02*
D03*
Y565000D02*
D03*
Y555000D02*
D03*
X235000Y585000D02*
D03*
Y575000D02*
D03*
Y565000D02*
D03*
Y555000D02*
D03*
X225000Y585000D02*
D03*
Y575000D02*
D03*
Y565000D02*
D03*
Y555000D02*
D03*
X215000Y585000D02*
D03*
Y575000D02*
D03*
Y565000D02*
D03*
Y555000D02*
D03*
D13*
X202500Y535250D02*
D03*
X207500D02*
D03*
X212500D02*
D03*
X217500D02*
D03*
X222500D02*
D03*
X227500D02*
D03*
X232500D02*
D03*
X237500D02*
D03*
X242500D02*
D03*
X247500D02*
D03*
X252500D02*
D03*
X257500D02*
D03*
Y604750D02*
D03*
X252500D02*
D03*
X247500D02*
D03*
X242500D02*
D03*
X237500D02*
D03*
X232500D02*
D03*
X227500D02*
D03*
X222500D02*
D03*
X217500D02*
D03*
X212500D02*
D03*
X207500D02*
D03*
X202500D02*
D03*
D14*
X264750Y542500D02*
D03*
Y547500D02*
D03*
Y552500D02*
D03*
Y557500D02*
D03*
Y562500D02*
D03*
Y567500D02*
D03*
Y572500D02*
D03*
Y577500D02*
D03*
Y582500D02*
D03*
Y587500D02*
D03*
Y592500D02*
D03*
Y597500D02*
D03*
X195250D02*
D03*
Y592500D02*
D03*
Y587500D02*
D03*
Y582500D02*
D03*
Y577500D02*
D03*
Y572500D02*
D03*
Y567500D02*
D03*
Y562500D02*
D03*
Y557500D02*
D03*
Y552500D02*
D03*
Y547500D02*
D03*
Y542500D02*
D03*
D15*
X428500Y110000D02*
D03*
Y118000D02*
D03*
Y126000D02*
D03*
Y134000D02*
D03*
Y142000D02*
D03*
Y150000D02*
D03*
Y158000D02*
D03*
Y166000D02*
D03*
Y174000D02*
D03*
Y182000D02*
D03*
Y190000D02*
D03*
Y198000D02*
D03*
X315500D02*
D03*
Y190000D02*
D03*
Y182000D02*
D03*
Y174000D02*
D03*
Y166000D02*
D03*
Y158000D02*
D03*
Y150000D02*
D03*
Y142000D02*
D03*
Y134000D02*
D03*
Y126000D02*
D03*
Y118000D02*
D03*
Y110000D02*
D03*
D16*
X416000Y206000D02*
D03*
X408000D02*
D03*
X400000D02*
D03*
X392000D02*
D03*
X384000D02*
D03*
X376000D02*
D03*
X368000D02*
D03*
X360000D02*
D03*
X352000D02*
D03*
X344000D02*
D03*
X336000D02*
D03*
X328000D02*
D03*
Y102000D02*
D03*
X336000D02*
D03*
X344000D02*
D03*
X352000D02*
D03*
X360000D02*
D03*
X368000D02*
D03*
X376000D02*
D03*
X384000D02*
D03*
X392000D02*
D03*
X400000D02*
D03*
X408000D02*
D03*
X416000D02*
D03*
D17*
X372000Y129000D02*
D03*
X347000D02*
D03*
X397000Y154000D02*
D03*
X372000D02*
D03*
X347000D02*
D03*
X397000Y179000D02*
D03*
X372000D02*
D03*
X347000D02*
D03*
D18*
X397000Y129000D02*
D03*
D19*
X380000Y651580D02*
D03*
X391000D02*
D03*
X402000D02*
D03*
X413000D02*
D03*
X424000D02*
D03*
X435000D02*
D03*
X446000D02*
D03*
X476000D02*
D03*
X487000D02*
D03*
X498000D02*
D03*
X509000D02*
D03*
X520000D02*
D03*
Y768420D02*
D03*
X509000D02*
D03*
X498000D02*
D03*
X487000D02*
D03*
X476000D02*
D03*
X446000D02*
D03*
X435000D02*
D03*
X424000D02*
D03*
X413000D02*
D03*
X402000D02*
D03*
X391000D02*
D03*
X380000D02*
D03*
D20*
X444250Y334750D02*
D03*
X439250D02*
D03*
X434250D02*
D03*
X429250D02*
D03*
X444250Y290250D02*
D03*
X439250D02*
D03*
X434250D02*
D03*
X429250D02*
D03*
D21*
X452000Y290000D02*
D03*
Y295000D02*
D03*
Y300000D02*
D03*
Y305000D02*
D03*
Y310000D02*
D03*
Y315000D02*
D03*
Y320000D02*
D03*
Y325000D02*
D03*
Y330000D02*
D03*
Y335000D02*
D03*
X421500Y290000D02*
D03*
Y295000D02*
D03*
Y300000D02*
D03*
Y305000D02*
D03*
Y310000D02*
D03*
Y315000D02*
D03*
Y320000D02*
D03*
Y325000D02*
D03*
Y330000D02*
D03*
Y335000D02*
D03*
D22*
X315250Y362500D02*
D03*
X307250D02*
D03*
X299250D02*
D03*
X291250D02*
D03*
Y338500D02*
D03*
X299250D02*
D03*
X307250D02*
D03*
X315250D02*
D03*
D23*
X405000Y463000D02*
D03*
Y513000D02*
D03*
X110650Y584600D02*
D03*
X456500Y533000D02*
D03*
Y458000D02*
D03*
Y558000D02*
D03*
Y508000D02*
D03*
Y483000D02*
D03*
Y583000D02*
D03*
D24*
X137500Y460000D02*
D03*
X137500Y507500D02*
D03*
X355000Y372500D02*
D03*
Y317500D02*
D03*
X333250Y263000D02*
D03*
X380000Y262500D02*
D03*
X350000Y680000D02*
D03*
X615000Y190000D02*
D03*
X490000D02*
D03*
X515000D02*
D03*
X565000D02*
D03*
X540000D02*
D03*
X590000D02*
D03*
D25*
X341000Y496500D02*
D03*
X327500D02*
D03*
X426750Y535000D02*
D03*
X413250D02*
D03*
X426750Y442500D02*
D03*
X413250D02*
D03*
X390250Y85000D02*
D03*
X403750D02*
D03*
X377750D02*
D03*
X364250D02*
D03*
X443500Y350000D02*
D03*
X430000D02*
D03*
X395000Y307500D02*
D03*
X408500D02*
D03*
X600500Y261000D02*
D03*
X614000D02*
D03*
X600500Y276000D02*
D03*
X614000D02*
D03*
X600500Y291000D02*
D03*
X614000D02*
D03*
X600500Y306000D02*
D03*
X614000D02*
D03*
X600500Y321000D02*
D03*
X614000D02*
D03*
X600500Y336000D02*
D03*
X614000D02*
D03*
X600500Y351000D02*
D03*
X614000D02*
D03*
X315000Y325500D02*
D03*
X301500D02*
D03*
X600500Y366000D02*
D03*
X614000D02*
D03*
D26*
X315500Y379750D02*
D03*
Y393250D02*
D03*
X302500Y379750D02*
D03*
Y393250D02*
D03*
X282000Y77250D02*
D03*
Y90750D02*
D03*
X420000Y56750D02*
D03*
Y43250D02*
D03*
X513250Y367250D02*
D03*
Y353750D02*
D03*
Y321250D02*
D03*
Y334750D02*
D03*
Y302250D02*
D03*
Y288750D02*
D03*
Y256250D02*
D03*
Y269750D02*
D03*
X416500Y265750D02*
D03*
Y279250D02*
D03*
X431500D02*
D03*
Y265750D02*
D03*
X328250Y339750D02*
D03*
Y326250D02*
D03*
D27*
X613500Y110400D02*
D03*
X588100D02*
D03*
X562700D02*
D03*
X537300D02*
D03*
X511900D02*
D03*
X486500D02*
D03*
D28*
X613500Y141700D02*
D03*
X588100D02*
D03*
X562700D02*
D03*
X537300D02*
D03*
X511900D02*
D03*
X486500D02*
D03*
D29*
X570600Y583500D02*
D03*
Y558100D02*
D03*
Y532700D02*
D03*
Y507300D02*
D03*
Y481900D02*
D03*
Y456500D02*
D03*
D30*
X539300Y583500D02*
D03*
Y558100D02*
D03*
Y532700D02*
D03*
Y507300D02*
D03*
Y481900D02*
D03*
Y456500D02*
D03*
D31*
X259600Y438000D02*
D03*
D32*
X272300D02*
D03*
X285000D02*
D03*
X297700D02*
D03*
X310400D02*
D03*
X259600Y477000D02*
D03*
X272300D02*
D03*
X285000D02*
D03*
X297700D02*
D03*
X310400D02*
D03*
D33*
X650000Y730000D02*
D03*
X70000Y660000D02*
D03*
X650000Y70000D02*
D03*
D34*
X174750Y641750D02*
D03*
Y628250D02*
D03*
X189500Y641750D02*
D03*
Y628250D02*
D03*
X217500Y669250D02*
D03*
Y655750D02*
D03*
X281000Y150250D02*
D03*
Y163750D02*
D03*
X275000Y648250D02*
D03*
Y634750D02*
D03*
X295000Y163750D02*
D03*
Y150250D02*
D03*
Y189750D02*
D03*
Y176250D02*
D03*
X241000Y203750D02*
D03*
Y190250D02*
D03*
X281000Y203750D02*
D03*
Y190250D02*
D03*
X296000Y115250D02*
D03*
Y128750D02*
D03*
Y77250D02*
D03*
Y90750D02*
D03*
X498250Y367250D02*
D03*
Y353750D02*
D03*
Y321250D02*
D03*
Y334750D02*
D03*
Y302250D02*
D03*
Y288750D02*
D03*
Y256250D02*
D03*
Y269750D02*
D03*
X406750Y320750D02*
D03*
Y334250D02*
D03*
X217500Y709250D02*
D03*
Y695750D02*
D03*
D35*
X282750Y177000D02*
D03*
X269250D02*
D03*
X254250Y191000D02*
D03*
X267750D02*
D03*
X189000Y655250D02*
D03*
X175500D02*
D03*
X217500Y642250D02*
D03*
X204000D02*
D03*
Y682500D02*
D03*
X217500D02*
D03*
X204000Y627750D02*
D03*
X217500D02*
D03*
X341000Y483500D02*
D03*
X327500D02*
D03*
X261750Y656500D02*
D03*
X248250D02*
D03*
X349750Y555500D02*
D03*
X336250D02*
D03*
X349750Y568000D02*
D03*
X336250D02*
D03*
X349750Y580500D02*
D03*
X336250D02*
D03*
X349750Y593000D02*
D03*
X336250D02*
D03*
X349750Y605500D02*
D03*
X336250D02*
D03*
X349750Y618000D02*
D03*
X336250D02*
D03*
X402500Y350000D02*
D03*
X416000D02*
D03*
X402500Y365000D02*
D03*
X416000D02*
D03*
X402500Y380000D02*
D03*
X416000D02*
D03*
X402500Y395000D02*
D03*
X416000D02*
D03*
D36*
X41660Y469860D02*
D03*
Y463360D02*
D03*
Y456860D02*
D03*
Y450360D02*
D03*
Y443860D02*
D03*
D37*
X14660Y466860D02*
D03*
Y446860D02*
D03*
D38*
X140000Y640250D02*
D03*
Y669750D02*
D03*
X256000Y122250D02*
D03*
Y151750D02*
D03*
X576000Y703750D02*
D03*
Y674250D02*
D03*
D39*
X155000Y655000D02*
D03*
X271000Y137000D02*
D03*
X561000Y689000D02*
D03*
D40*
X126000Y786000D02*
D03*
X216000D02*
D03*
D41*
X223010Y189000D02*
D03*
X62990D02*
D03*
D42*
X632250Y261000D02*
D03*
X647250D02*
D03*
X632250Y276000D02*
D03*
X647250D02*
D03*
X632250Y291000D02*
D03*
X647250D02*
D03*
X632250Y306000D02*
D03*
X647250D02*
D03*
X632250Y321000D02*
D03*
X647250D02*
D03*
X632250Y336000D02*
D03*
X647250D02*
D03*
X632250Y351000D02*
D03*
X647250D02*
D03*
X632250Y366000D02*
D03*
X647250D02*
D03*
D43*
X100000Y428500D02*
D03*
Y471500D02*
D03*
X105000Y506000D02*
D03*
Y549000D02*
D03*
D44*
X335000Y435750D02*
D03*
Y469750D02*
D03*
X258000Y54500D02*
D03*
Y88500D02*
D03*
D45*
X560250Y360500D02*
D03*
X526250D02*
D03*
X560250Y328000D02*
D03*
X526250D02*
D03*
X560250Y295500D02*
D03*
X526250D02*
D03*
X560250Y263000D02*
D03*
X526250D02*
D03*
D46*
X275500Y577500D02*
X284375Y568625D01*
X288270D01*
X279000Y594250D02*
X300000Y573250D01*
Y560500D02*
Y573250D01*
Y560500D02*
X312750Y547750D01*
X191000Y603999D02*
X201749D01*
X202500Y604750D01*
X178500Y597500D02*
X195250D01*
X171278Y592528D02*
X195222D01*
X190556Y589029D02*
X192085Y587500D01*
X172728Y589029D02*
X190556D01*
X192085Y587500D02*
X195250D01*
X175000Y601000D02*
X178500Y597500D01*
X187564Y562500D02*
X195250D01*
X187037Y563027D02*
X187564Y562500D01*
X182481Y563027D02*
X187037D01*
X181954Y562500D02*
X182481Y563027D01*
X181279Y562500D02*
X181954D01*
X181278Y562499D02*
X181279Y562500D01*
X176721Y562499D02*
X181278D01*
X176193Y563027D02*
X176721Y562499D01*
X175992Y563027D02*
X176193D01*
X175992D02*
X176015Y563050D01*
X169950D02*
X176015D01*
X163500Y437450D02*
Y579800D01*
X160000Y436000D02*
Y581250D01*
X178750Y552500D02*
X179250Y552000D01*
X191750D01*
X492500Y370000D02*
X495000D01*
X498000Y367000D01*
X491250Y321250D02*
X492500Y322500D01*
X491250Y321250D02*
X498250D01*
X452250Y553750D02*
X456500Y558000D01*
X427250Y553750D02*
X452250D01*
X380000Y302500D02*
Y385000D01*
X352500Y412500D02*
X380000Y385000D01*
X252500Y412500D02*
X352500D01*
X590000Y207500D02*
Y209000D01*
X590000Y209000D01*
Y190000D02*
Y209000D01*
X424000Y727950D02*
Y768420D01*
X413000Y734000D02*
Y768420D01*
X515000Y175000D02*
Y190000D01*
X376000Y86750D02*
Y102000D01*
X377750Y85000D02*
X390250D01*
X368000Y93286D02*
Y102000D01*
Y93286D02*
X370750Y90535D01*
Y58250D02*
Y90535D01*
Y58250D02*
X394600Y34400D01*
Y20000D02*
Y34400D01*
X360000Y92786D02*
Y102000D01*
X282000Y90750D02*
X296000D01*
X258000Y91000D02*
X281750D01*
X313465Y142000D02*
X315500D01*
X300215Y128750D02*
X313465Y142000D01*
X296000Y128750D02*
X300215D01*
X313464Y118000D02*
X315500D01*
X313000Y126000D02*
X315500D01*
X296000Y90750D02*
X304250D01*
X318400Y20000D02*
Y76600D01*
X420000Y20000D02*
Y43250D01*
X498000Y367000D02*
X498250Y367250D01*
X513250D01*
X519500D01*
X526250Y360500D01*
X498250Y321250D02*
X513250D01*
X519500D01*
X526250Y328000D01*
X519500Y302250D02*
X526250Y295500D01*
X498250Y302250D02*
X513250D01*
X519500D01*
X513250Y256250D02*
X519500D01*
X526250Y263000D01*
X248500Y642000D02*
Y656250D01*
X265250Y625000D02*
X275000Y634750D01*
X261500Y625000D02*
X265250D01*
X239000Y632500D02*
X248500Y642000D01*
X254536Y616500D02*
X260000Y621964D01*
Y623500D01*
X261500Y625000D01*
X261750Y642250D02*
Y656500D01*
X273250Y646500D02*
X275000Y648250D01*
X266000Y646500D02*
X273250D01*
X261500Y642000D02*
X266000Y646500D01*
X261500Y639536D02*
Y642000D01*
X248500Y625000D02*
Y626535D01*
X261500Y639536D01*
X444250Y277250D02*
Y290250D01*
X439750Y272750D02*
X444250Y277250D01*
X407500Y335000D02*
X421500D01*
X429000D02*
X429250Y334750D01*
X421500Y335000D02*
X429000D01*
X311714Y357500D02*
X330500D01*
X307250Y361964D02*
X311714Y357500D01*
X307250Y361964D02*
Y362500D01*
X327500Y325500D02*
X328250Y326250D01*
X315000Y325500D02*
X327500D01*
X315250Y362500D02*
X358500D01*
X344000Y99965D02*
Y102000D01*
X348000Y92000D02*
X352000Y96000D01*
Y102000D01*
X615000Y190000D02*
Y210000D01*
X540000Y190000D02*
Y209000D01*
X392000Y206000D02*
Y215000D01*
X407000Y207000D02*
X408000Y206000D01*
X407000Y207000D02*
X409000Y209000D01*
Y215000D01*
X411000Y217000D01*
X400000Y214000D02*
X400000Y214000D01*
X400000Y206000D02*
Y214000D01*
X272300Y438000D02*
X285000D01*
X384000Y206000D02*
Y216000D01*
X498250Y256250D02*
X513250D01*
X586000Y306000D02*
X605500D01*
X586000Y291000D02*
X605500D01*
X376000Y206000D02*
Y219000D01*
X368000Y206000D02*
Y222500D01*
X352000Y206000D02*
Y224500D01*
X344000Y206000D02*
Y224000D01*
X336000Y206000D02*
Y223500D01*
X296000Y90750D02*
Y101000D01*
X306750Y101750D02*
Y111286D01*
X296000Y101000D02*
X303250Y108250D01*
Y116250D01*
X306750Y111286D02*
X313464Y118000D01*
X303250Y116250D02*
X313000Y126000D01*
X304250Y90750D02*
X318400Y76600D01*
X312500Y92500D02*
Y110000D01*
X312500Y110000D01*
X315500D01*
X339999Y95964D02*
X344000Y99965D01*
X339999Y92000D02*
Y95964D01*
X381200Y422500D02*
X527950D01*
X585536Y351000D02*
X605500D01*
X382649Y426000D02*
X529399D01*
X379750Y419000D02*
X526500D01*
X584000Y366000D02*
X605500D01*
X584000Y321000D02*
X605500D01*
X584000Y336000D02*
X605500D01*
X567500Y337500D02*
X584000Y321000D01*
X567500Y337500D02*
Y378000D01*
X571000Y349000D02*
X584000Y336000D01*
X571000Y349000D02*
Y379450D01*
X574500Y362036D02*
X585536Y351000D01*
X574500Y362036D02*
Y380900D01*
X578000Y372000D02*
X584000Y366000D01*
X578000Y372000D02*
Y382349D01*
X557500Y242500D02*
X567500Y252500D01*
Y287500D01*
X586000Y306000D01*
X558950Y239000D02*
X571000Y251050D01*
Y276000D01*
X586000Y291000D01*
X560399Y235500D02*
X574500Y249601D01*
X561849Y232000D02*
X578000Y248151D01*
Y255500D01*
X583500Y261000D01*
X605500D01*
X597500Y227500D02*
X615000Y210000D01*
X354000Y444750D02*
Y497750D01*
X357500Y446200D02*
Y499200D01*
X361000Y447649D02*
Y500649D01*
X364500Y449099D02*
Y502099D01*
X384099Y429500D02*
X530849D01*
X578000Y382349D01*
X529399Y426000D02*
X574500Y380900D01*
X527950Y422500D02*
X571000Y379450D01*
X526500Y419000D02*
X567500Y378000D01*
X257500Y327750D02*
Y390750D01*
X241750Y406500D02*
X257500Y390750D01*
X189500Y406500D02*
X241750D01*
X360000Y206000D02*
Y225000D01*
X336000Y223500D02*
X355000Y242500D01*
X344000Y224000D02*
X359000Y239000D01*
X352000Y224500D02*
X363000Y235500D01*
X360000Y225000D02*
X367000Y232000D01*
X384000Y216000D02*
X395500Y227500D01*
X597500D01*
X367000Y232000D02*
X561849D01*
X363000Y235500D02*
X560399D01*
X359000Y239000D02*
X558950D01*
X355000Y242500D02*
X557500D01*
X375500Y258250D02*
X377750Y256000D01*
X372000Y250250D02*
X377750Y256000D01*
X367250Y250250D02*
X372000D01*
X315250Y325750D02*
Y338500D01*
X261000Y329200D02*
Y392200D01*
X243200Y410000D02*
X261000Y392200D01*
X190950Y410000D02*
X243200D01*
X257500Y327750D02*
X328250Y257000D01*
X333250D01*
Y263000D01*
X261000Y329200D02*
X305700Y284500D01*
X334750Y258000D02*
X358500D01*
X357500Y257000D02*
X358500Y258000D01*
X305700Y284500D02*
X343500D01*
X364000Y264000D01*
X378500D01*
X614000Y366000D02*
X632250D01*
X614000Y351000D02*
X632250D01*
X614000Y336000D02*
X632250D01*
X614000Y321000D02*
X632250D01*
X614000Y306000D02*
X632250D01*
X614000Y291000D02*
X632250D01*
X614000Y276000D02*
X632250D01*
X614000Y261000D02*
X632250D01*
X408250Y259250D02*
X441750D01*
X452000Y269500D01*
Y290000D01*
X352000Y318214D02*
X354286D01*
X404750Y272750D02*
X439750D01*
X405000Y262500D02*
X408250Y259250D01*
X405000Y262500D02*
Y267500D01*
X354286Y318214D02*
X405000Y267500D01*
X330500Y357500D02*
X355000Y333000D01*
X358500Y362500D02*
X360000Y364000D01*
X372500Y305000D02*
X404750Y272750D01*
X372500Y305000D02*
Y340000D01*
X387500Y295000D02*
X421500D01*
X380000Y302500D02*
X387500Y295000D01*
X352349Y514250D02*
X364500Y502099D01*
X350900Y510750D02*
X361000Y500649D01*
X349450Y507250D02*
X357500Y499200D01*
X348000Y503750D02*
X354000Y497750D01*
X232500Y518688D02*
Y535250D01*
Y518688D02*
X236938Y514250D01*
X227500Y518738D02*
X235488Y510750D01*
X227500Y518738D02*
Y535250D01*
X222500Y518788D02*
Y535250D01*
Y518788D02*
X234039Y507250D01*
X217500Y518839D02*
X232589Y503750D01*
X217500Y518839D02*
Y535250D01*
X360000Y352500D02*
Y364000D01*
Y352500D02*
X372500Y340000D01*
X400000Y637500D02*
Y649580D01*
X402000Y651580D01*
X247500Y604750D02*
Y607915D01*
X331250Y613000D02*
X336250Y618000D01*
X493750Y256250D02*
X498250D01*
X467500Y282500D02*
X493750Y256250D01*
X467500Y282500D02*
Y382500D01*
X442500Y407500D02*
X467500Y382500D01*
X434250Y334750D02*
Y345750D01*
X430000Y350000D02*
X434250Y345750D01*
X477750Y302250D02*
X498250D01*
X471000Y309000D02*
X477750Y302250D01*
X471000Y309000D02*
Y383950D01*
X443950Y411000D02*
X471000Y383950D01*
X367500Y407500D02*
X442500D01*
X371500Y411000D02*
X443950D01*
X360500Y422000D02*
X371500Y411000D01*
X360500Y422000D02*
Y422278D01*
X355278Y427500D02*
X360500Y422278D01*
X364500Y449099D02*
X384099Y429500D01*
X361000Y447649D02*
X382649Y426000D01*
X357500Y446200D02*
X381200Y422500D01*
X354000Y444750D02*
X379750Y419000D01*
X355000Y420000D02*
X367500Y407500D01*
X355000Y427500D02*
X355278D01*
X195250Y469750D02*
X252500Y412500D01*
X307250Y362500D02*
Y369750D01*
X302500Y379750D02*
X307500Y374750D01*
Y372500D02*
Y374750D01*
X315000Y362750D02*
X315250Y362500D01*
X315000Y362750D02*
Y370000D01*
Y379250D02*
X315250Y379500D01*
X315000Y370000D02*
Y379250D01*
X195249Y577499D02*
X195250Y577500D01*
X195222Y592528D02*
X195250Y592500D01*
X186000Y572500D02*
X195250D01*
X192000Y567500D02*
X195250D01*
X192250Y577500D02*
X195250D01*
X187288Y582500D02*
X195250D01*
X186259Y583529D02*
X187288Y582500D01*
X191500Y567000D02*
X192000Y567500D01*
X195250Y469750D02*
Y542500D01*
X195223Y557527D02*
X195250Y557500D01*
X186482Y547500D02*
X195250D01*
X192250Y552500D02*
X195250D01*
X264750Y587500D02*
X274750D01*
X279542Y582500D02*
X280514Y581528D01*
X441000Y594250D02*
X452250Y583000D01*
X232589Y503750D02*
X348000D01*
X234039Y507250D02*
X349450D01*
X235488Y510750D02*
X350900D01*
X236938Y514250D02*
X352349D01*
X299515Y521525D02*
Y532485D01*
X311150Y530750D02*
X312500D01*
X310599Y536250D02*
X314778D01*
X319000Y532028D01*
Y525250D02*
Y532028D01*
X433000Y489250D02*
X439250Y483000D01*
X456500D01*
X307000Y524500D02*
Y529950D01*
Y524500D02*
X307250Y524250D01*
X418250Y548000D02*
X429000Y537250D01*
X418250Y548000D02*
Y574250D01*
X434000Y514000D02*
X440000Y508000D01*
X456500D01*
X432500Y442500D02*
X434000Y444000D01*
X437500D01*
X264750Y592500D02*
X268000D01*
X269750Y594250D01*
X540000Y165000D02*
X562700Y142300D01*
Y141700D02*
Y142300D01*
X540000Y165000D02*
Y190000D01*
X565000D02*
X572500Y182500D01*
Y120200D02*
Y182500D01*
X562700Y110400D02*
X572500Y120200D01*
X588100Y141700D02*
Y188100D01*
X590000Y190000D01*
X613500Y141700D02*
Y188500D01*
X615000Y190000D01*
X490000Y165000D02*
X500000Y155000D01*
Y132500D02*
Y155000D01*
Y132500D02*
X505000Y127500D01*
X520200D01*
X537300Y110400D01*
X490000Y165000D02*
Y190000D01*
X500000Y122500D02*
X505000Y127500D01*
X515000Y175000D02*
X537300Y152700D01*
Y141700D02*
Y152700D01*
X451500Y51000D02*
X500000Y99500D01*
Y122500D01*
X450000Y42500D02*
X457500D01*
X502500Y87500D01*
X550000D01*
X562700Y100200D01*
Y110400D01*
X587500Y517500D02*
X595000Y525000D01*
X549500Y517500D02*
X587500D01*
X539300Y507300D02*
X549500Y517500D01*
X490550Y607500D02*
X575000D01*
X591500Y591000D01*
Y526500D02*
Y591000D01*
X586000Y521000D02*
X591500Y526500D01*
X548050Y521000D02*
X586000D01*
X539300Y529750D02*
X548050Y521000D01*
X539300Y529750D02*
Y532700D01*
X551200Y570000D02*
X580500D01*
X539300Y558100D02*
X551200Y570000D01*
X580500D02*
X588000Y577500D01*
Y589550D01*
X595000Y525000D02*
Y592450D01*
X489100Y604000D02*
X573550D01*
X588000Y589550D01*
X492000Y611000D02*
X576450D01*
X595000Y592450D01*
X457500Y635601D02*
X489100Y604000D01*
X457500Y635601D02*
Y689500D01*
X413000Y734000D02*
X457500Y689500D01*
X461000Y637050D02*
X490550Y607500D01*
X461000Y637050D02*
Y690950D01*
X424000Y727950D02*
X461000Y690950D01*
X464500Y638500D02*
X492000Y611000D01*
X464500Y638500D02*
Y692400D01*
X435000Y721899D02*
Y768420D01*
Y721899D02*
X464500Y692400D01*
X574500Y249601D02*
Y264500D01*
X586000Y276000D01*
X605500D01*
X191750Y578000D02*
X192250Y577500D01*
X180250Y578000D02*
X191750D01*
X191750Y552000D02*
X192250Y552500D01*
X185382Y546400D02*
X186482Y547500D01*
X184759Y557527D02*
X195223D01*
X179000Y567999D02*
X179998Y567000D01*
X191500D01*
X269750Y594250D02*
X279000D01*
X274750Y587500D02*
X276000Y588750D01*
X264750Y582500D02*
X279542D01*
X264750Y572500D02*
X274349D01*
X264750Y577500D02*
X275500D01*
X264750Y557500D02*
X274500D01*
X299515Y532485D01*
X264750Y562500D02*
X274450D01*
X307000Y529950D01*
X264750Y567500D02*
X274400D01*
X311150Y530750D01*
X274349Y572500D02*
X310599Y536250D01*
X439250Y334750D02*
Y345750D01*
X443500Y350000D01*
X452000Y330000D02*
X461000D01*
X539300Y456500D02*
X570600D01*
X301500Y325500D02*
X307250Y331250D01*
Y338500D01*
X291000Y338250D02*
X291250Y338500D01*
X291000Y326000D02*
Y338250D01*
Y326000D02*
X291500Y325500D01*
X301500D01*
X299250Y362500D02*
Y367750D01*
X296001Y370999D02*
X299250Y367750D01*
X295999Y370999D02*
X296001D01*
X394000Y308500D02*
X395000Y307500D01*
X394000Y308500D02*
Y314000D01*
X160000Y581250D02*
X171278Y592528D01*
X160000Y436000D02*
X189500Y406500D01*
X163500Y579800D02*
X172728Y589029D01*
X163500Y437450D02*
X190950Y410000D01*
X421500Y290000D02*
X429000D01*
X357500Y90286D02*
X360000Y92786D01*
X343800Y20000D02*
X357500Y33700D01*
Y90286D01*
X189500Y628250D02*
X203500D01*
X204000Y627750D01*
X247500Y607915D02*
X252585Y613000D01*
X331250D01*
X232500Y604750D02*
Y609500D01*
X239500Y616500D01*
X254536D01*
X239000Y620950D02*
Y632000D01*
X227500Y604750D02*
Y609450D01*
X239000Y620950D01*
X222500Y604750D02*
X222650Y604900D01*
Y613650D01*
X229000Y620000D01*
X202500Y604750D02*
X207500D01*
X41660Y450360D02*
X59640D01*
X60000Y450000D01*
X555000Y775000D02*
X558332D01*
X556666D01*
Y784997D01*
X555000Y783331D01*
D47*
X297500Y398250D02*
Y400000D01*
Y398250D02*
X302500Y393250D01*
X456500Y558000D02*
X539200D01*
X513250Y269750D02*
Y288750D01*
Y334750D02*
Y353750D01*
X336250Y555500D02*
Y568000D01*
Y580500D01*
Y593000D01*
Y605500D01*
X349750Y555500D02*
Y568000D01*
Y580500D01*
Y593000D01*
Y605500D01*
Y618000D01*
X215000Y585000D02*
X225000D01*
X235000D01*
X245000D01*
X215000Y575000D02*
X225000D01*
X235000D01*
X245000D01*
X215000Y565000D02*
X225000D01*
X235000D01*
X245000D01*
X215000Y555000D02*
X225000D01*
X235000D01*
X245000D01*
Y575000D02*
Y585000D01*
X215000Y565000D02*
Y575000D01*
X245000Y555000D02*
Y565000D01*
X100000Y428500D02*
X117000Y411500D01*
X444000Y134000D02*
X444250Y134250D01*
X428500Y134000D02*
X444000D01*
X647250Y261000D02*
Y276000D01*
Y291000D01*
Y306000D01*
Y321000D01*
Y336000D01*
Y351000D01*
Y366000D01*
X302500Y393250D02*
X315500D01*
X156988Y411500D02*
X158758Y413270D01*
X117000Y411500D02*
X156988D01*
X456500Y508000D02*
X508000D01*
X532700Y532700D01*
X539300D01*
X456500Y583000D02*
X538800D01*
X41660Y469860D02*
X75140D01*
X80000Y465000D01*
Y450000D02*
Y465000D01*
Y450000D02*
X90000Y440000D01*
X100000Y428500D02*
Y440000D01*
X115000Y455000D01*
X90000Y440000D02*
X100000D01*
X333250Y571000D02*
X336250Y568000D01*
X330000Y571000D02*
X333250D01*
X330500Y605500D02*
X336250D01*
X391000Y768420D02*
X402000D01*
X476000Y651580D02*
X487000D01*
X416000Y350000D02*
Y365000D01*
Y380000D01*
Y395000D01*
X428500Y142000D02*
Y150000D01*
Y142000D02*
X439000D01*
X486500Y110400D02*
Y141700D01*
X363000Y74000D02*
X364250Y75250D01*
Y85000D01*
X420000Y56750D02*
Y65000D01*
X405000Y463000D02*
X412000Y456000D01*
X407500Y442500D02*
X412000D01*
Y456000D01*
D48*
X595000Y770000D02*
Y790000D01*
X580000Y770000D02*
Y790000D01*
X565000Y770000D02*
Y790000D01*
X550000D02*
X610000D01*
Y770000D02*
Y790000D01*
X550000Y770000D02*
X610000D01*
X550000D02*
Y790000D01*
D49*
X137500Y460000D02*
X154000Y476500D01*
X105000Y549000D02*
X110000Y544000D01*
X125000Y546093D02*
X125000Y546093D01*
X125000Y545999D02*
Y546093D01*
X110000Y544000D02*
X111999Y545999D01*
X125000D01*
X100000Y471500D02*
X137500D01*
Y460000D02*
Y471500D01*
X347000Y179000D02*
X372000D01*
X397000D01*
X347000Y154000D02*
X372000D01*
X397000D01*
X347000Y129000D02*
X372000D01*
X397000D01*
X372000D02*
Y154000D01*
Y179000D01*
X26249Y584600D02*
X110650D01*
Y590650D02*
X122500Y602500D01*
X145000Y542499D02*
Y544750D01*
X125000Y546093D02*
X126768D01*
X140713Y532149D01*
X110650Y579099D02*
Y590650D01*
Y579099D02*
X145000Y544750D01*
X140713Y532149D02*
X147601D01*
X154000Y525750D01*
Y476500D02*
Y525750D01*
X26500Y527600D02*
X29650D01*
X49750Y507500D01*
X137500D01*
X0Y800000D02*
X680000D01*
Y0D02*
Y800000D01*
X0Y0D02*
X680000D01*
X0D02*
Y800000D01*
D50*
X446000Y768420D02*
Y777000D01*
X350000Y680000D02*
Y764000D01*
X41660Y463360D02*
X61360D01*
X350000Y680000D02*
X352500Y677500D01*
X365000D01*
X432500Y442500D02*
X448000Y458000D01*
X456500D01*
X426750Y442500D02*
X432500D01*
X428750Y533000D02*
X456500D01*
Y458000D02*
X493000D01*
X527500Y492500D01*
X555800D01*
X570600Y507300D01*
X456500Y483000D02*
X503000D01*
X527300Y507300D01*
X539300D01*
X456500Y533000D02*
X500500D01*
X510000Y542500D01*
X560800D01*
X570600Y532700D01*
X350000Y764000D02*
X376000Y790000D01*
X433000D01*
X446000Y777000D01*
X41660Y456860D02*
X67860D01*
D51*
X272300Y477000D02*
Y490200D01*
X246257Y477000D02*
X259600D01*
X302000Y500500D02*
X310000Y492500D01*
Y483650D02*
Y492500D01*
X411000Y310000D02*
X421500D01*
X407500Y320000D02*
X421500D01*
X434250Y281000D02*
Y290250D01*
X431500Y279250D02*
X433250Y281000D01*
X416500Y279250D02*
X431500D01*
X202500Y520757D02*
Y535250D01*
X327500Y477250D02*
X335000Y469750D01*
X327500Y477250D02*
Y496500D01*
X212500Y519243D02*
Y535250D01*
X207500Y520000D02*
Y535250D01*
X212500Y519243D02*
X231243Y500500D01*
X302000D01*
X202500Y520757D02*
X246257Y477000D01*
X207500Y520000D02*
X230000Y497500D01*
X265000D01*
X272300Y490200D01*
X302000Y500500D02*
X323500D01*
X327500Y496500D01*
D52*
X428500Y118000D02*
X437000D01*
X428500Y110000D02*
X437500D01*
D53*
X247500Y526500D02*
Y535250D01*
X245250Y524250D02*
X247500Y526500D01*
X242500Y527000D02*
Y535250D01*
Y527000D02*
X245250Y524250D01*
X250761Y431756D02*
X253356D01*
X259600Y438000D01*
X242500Y604750D02*
Y611000D01*
D54*
X268750Y190000D02*
X315500D01*
X267750Y191000D02*
X268750Y190000D01*
X282750Y177000D02*
X294250D01*
X295000Y176250D01*
Y163750D02*
Y176250D01*
X281000Y150250D02*
X295000D01*
X281000Y147000D02*
Y150250D01*
X271000Y137000D02*
X281000Y147000D01*
D55*
X26249Y584600D02*
D03*
X26500Y527600D02*
D03*
X394600Y20000D02*
D03*
X369200D02*
D03*
X343800D02*
D03*
X318400D02*
D03*
X293000D02*
D03*
D56*
X26249Y610000D02*
D03*
X26500Y553000D02*
D03*
D57*
X420000Y20000D02*
D03*
D58*
X14660Y425660D02*
D03*
Y488060D02*
D03*
D59*
X41660Y481860D02*
D03*
Y431860D02*
D03*
D60*
X650000Y30000D02*
D03*
Y770000D02*
D03*
X30000Y660000D02*
D03*
X270000Y240000D02*
D03*
D61*
X288270Y568625D02*
D03*
X191000Y603999D02*
D03*
X175000Y601000D02*
D03*
X169950Y563050D02*
D03*
X169000Y577000D02*
D03*
X178750Y552500D02*
D03*
X287500Y365000D02*
D03*
X297500Y400000D02*
D03*
X492500Y370000D02*
D03*
Y322500D02*
D03*
X590000Y207500D02*
D03*
X588250Y689000D02*
D03*
X564000Y704000D02*
D03*
X588250Y674000D02*
D03*
Y704000D02*
D03*
X564000Y674000D02*
D03*
X282000Y72000D02*
D03*
X296000D02*
D03*
X203000Y658000D02*
D03*
X189000Y670000D02*
D03*
X171000D02*
D03*
X181000Y690000D02*
D03*
X161000D02*
D03*
X141000D02*
D03*
X121000Y434000D02*
D03*
X500750Y667250D02*
D03*
X515750Y694250D02*
D03*
X548250Y698250D02*
D03*
X509000Y634000D02*
D03*
X527250Y676750D02*
D03*
X542500Y679750D02*
D03*
X376000Y166000D02*
D03*
Y141000D02*
D03*
Y120000D02*
D03*
Y187000D02*
D03*
X411000Y267000D02*
D03*
X438000D02*
D03*
X348000Y92000D02*
D03*
X540000Y209000D02*
D03*
X392000Y215000D02*
D03*
X519000Y209000D02*
D03*
X411000Y217000D02*
D03*
X400000Y214000D02*
D03*
X61360Y463360D02*
D03*
X444250Y134250D02*
D03*
X376000Y219000D02*
D03*
X368000Y222500D02*
D03*
X437000Y118000D02*
D03*
X306750Y101750D02*
D03*
X312500Y92500D02*
D03*
X302500Y127500D02*
D03*
X437500Y110000D02*
D03*
X115000Y455000D02*
D03*
X339999Y92000D02*
D03*
X531750Y699250D02*
D03*
X520000Y662000D02*
D03*
X504750Y682250D02*
D03*
X345500Y483750D02*
D03*
X345750Y496250D02*
D03*
X367250Y250250D02*
D03*
X357500Y257000D02*
D03*
X647250Y358500D02*
D03*
Y343500D02*
D03*
Y328500D02*
D03*
Y313500D02*
D03*
Y298500D02*
D03*
Y283500D02*
D03*
Y268500D02*
D03*
X122500Y602500D02*
D03*
X400000Y637500D02*
D03*
X365000Y677500D02*
D03*
X407500Y442500D02*
D03*
Y535000D02*
D03*
X355000Y420000D02*
D03*
Y427500D02*
D03*
X307500Y372500D02*
D03*
X269750Y550250D02*
D03*
X315000Y370000D02*
D03*
X180250Y578000D02*
D03*
X186259Y583529D02*
D03*
X280514Y581528D02*
D03*
X441000Y594250D02*
D03*
X312500Y530750D02*
D03*
X299515Y521525D02*
D03*
X319000Y525250D02*
D03*
X245250Y524250D02*
D03*
X418250Y574250D02*
D03*
X433000Y489250D02*
D03*
X307250Y524250D02*
D03*
X434000Y514000D02*
D03*
X427250Y553750D02*
D03*
X437500Y444000D02*
D03*
X312750Y547750D02*
D03*
X158758Y413270D02*
D03*
X450000Y42500D02*
D03*
X451500Y51000D02*
D03*
X87500Y455000D02*
D03*
X250761Y431756D02*
D03*
X186000Y572500D02*
D03*
X185382Y546400D02*
D03*
X184759Y557527D02*
D03*
X179000Y567999D02*
D03*
X276000Y588750D02*
D03*
X330000Y571000D02*
D03*
X330500Y605500D02*
D03*
X476000Y641000D02*
D03*
X488000D02*
D03*
X402000Y779000D02*
D03*
X391000D02*
D03*
X446000Y641000D02*
D03*
X391000D02*
D03*
X520000Y779000D02*
D03*
X380000D02*
D03*
X397000Y503000D02*
D03*
X356000Y585000D02*
D03*
X449000Y352000D02*
D03*
X462000Y331000D02*
D03*
X513250Y344000D02*
D03*
Y279000D02*
D03*
X540000Y451000D02*
D03*
X572000D02*
D03*
X291000Y326000D02*
D03*
X295999Y370999D02*
D03*
X394000Y314000D02*
D03*
X416000Y387500D02*
D03*
Y357500D02*
D03*
X152000Y450000D02*
D03*
X79000Y526000D02*
D03*
X439000Y142000D02*
D03*
X486500Y127000D02*
D03*
X487000Y153000D02*
D03*
X363000Y74000D02*
D03*
X420000Y65000D02*
D03*
X242500Y611000D02*
D03*
X229000Y620000D02*
D03*
X60000Y450000D02*
D03*
X67860Y456860D02*
D03*
X267000Y158000D02*
D03*
D62*
X240000Y585000D02*
D03*
X220000Y575000D02*
D03*
X205000Y693000D02*
D03*
X51000Y706000D02*
D03*
X290000Y140000D02*
D03*
X261000Y790000D02*
D03*
Y776000D02*
D03*
Y756000D02*
D03*
Y736000D02*
D03*
Y716000D02*
D03*
X251000Y706000D02*
D03*
X111000Y686000D02*
D03*
Y666000D02*
D03*
Y646000D02*
D03*
X141000Y615000D02*
D03*
X161000D02*
D03*
X181000D02*
D03*
X231000Y646000D02*
D03*
Y666000D02*
D03*
X191000Y706000D02*
D03*
X171000D02*
D03*
X151000D02*
D03*
X131000D02*
D03*
X111000D02*
D03*
X91000D02*
D03*
X71000D02*
D03*
X260000Y210000D02*
D03*
X240000Y20000D02*
D03*
Y40000D02*
D03*
Y60000D02*
D03*
Y80000D02*
D03*
X258000Y110000D02*
D03*
X292500D02*
D03*
X300000Y200000D02*
D03*
X280000Y210000D02*
D03*
X240000Y100000D02*
D03*
Y120000D02*
D03*
Y140000D02*
D03*
Y160000D02*
D03*
Y250000D02*
D03*
Y270000D02*
D03*
Y290000D02*
D03*
X180000Y390000D02*
D03*
X160000D02*
D03*
X140000D02*
D03*
X120000D02*
D03*
X100000D02*
D03*
X80000D02*
D03*
X60000D02*
D03*
X40000D02*
D03*
X20000D02*
D03*
X240000Y180000D02*
D03*
X260000D02*
D03*
X240000Y210000D02*
D03*
Y230000D02*
D03*
X31000Y706000D02*
D03*
X11000D02*
D03*
X118000Y622000D02*
D03*
X231000Y686000D02*
D03*
Y706000D02*
D03*
X240000Y310000D02*
D03*
Y370000D02*
D03*
Y350000D02*
D03*
X200000Y390000D02*
D03*
X220000D02*
D03*
X240000D02*
D03*
Y330000D02*
D03*
X231000Y632000D02*
D03*
X201000Y615000D02*
D03*
X240000Y565000D02*
D03*
X220000Y555000D02*
D03*
D63*
X141250Y417000D02*
D03*
Y428000D02*
D03*
D64*
X125000Y545999D02*
D03*
D65*
X145000Y542499D02*
D03*
M02*
