M48
;Layer_Color=9474304
;FILE_FORMAT=4:4
METRIC,LZ
;TYPE=PLATED
T1F00S00C0.2000
T2F00S00C0.2500
T3F00S00C0.3500
T4F00S00C0.5000
T7F00S00C0.7112
T8F00S00C0.9000
%
T01
X0014125Y00417
Y00428
T02
X00363Y00074
X00376Y0012
Y00141
X00439Y00142
X0044425Y0013425
X00437Y00118
X004375Y0011
X0042Y00065
X004515Y00051
X0045Y000425
X004865Y00127
X00348Y00092
X00339999Y00092
X003125Y000925
X0030675Y0010175
X003025Y001275
X00296Y00072
X00282
X00267Y00158
X00291Y00326
X002875Y00365
X00295999Y00370999
X003075Y003725
X00315Y0037
X002975Y004
X00250761Y00431756
X0024525Y0052425
X00299515Y00521525
X0030725Y0052425
X003125Y0053075
X00319Y0052525
X0031275Y0054775
X0034575Y0049625
X003455Y0048375
X00185382Y005464
X00079Y00526
X000875Y00455
X0006786Y0045686
X0006136Y0046336
X0006Y0045
X00115Y00455
X00121Y00434
X00152Y0045
X00158758Y0041327
X00355Y0042
Y004275
X004075Y004425
X004375Y00444
X00433Y0048925
X00434Y00514
X004075Y00535
X00397Y00503
X00416Y003875
Y003575
X00449Y00352
X00462Y00331
X004925Y003225
X0051325Y00344
X004925Y0037
X0051325Y00279
X00519Y00209
X0054
X0059Y002075
X0064725Y002685
Y002835
Y002985
Y003135
Y003285
Y003435
Y003585
X00572Y00451
X0054
X00394Y00314
X00411Y00267
X00438
X00411Y00217
X004Y00214
X00392Y00215
X00376Y00219
X00368Y002225
X0036725Y0025025
X003575Y00257
X00376Y00187
Y00166
X00487Y00153
X0042725Y0055375
X0041825Y0057425
X00441Y0059425
X00446Y00641
X00476
X00488
X00509Y00634
X0052Y00662
X0052725Y0067675
X005425Y0067975
X0054825Y0069825
X0053175Y0069925
X0051575Y0069425
X0050475Y0068225
X0050075Y0066725
X00564Y00674
X0058825
Y00689
Y00704
X00564
X0052Y00779
X00402
X00391
X0038
X00365Y006775
X00391Y00641
X004Y006375
X00356Y00585
X0033Y00571
X003305Y006055
X00276Y0058875
X00280514Y00581528
X0028827Y00568625
X0026975Y0055025
X0024Y00565
Y00585
X002425Y00611
X00229Y0062
X0022Y00575
Y00555
X00184759Y00557527
X0017875Y005525
X00179Y00567999
X0018025Y00578
X00186Y005725
X00186259Y00583529
X00169Y00577
X0016995Y0056305
X00175Y00601
X00191Y00603999
X00203Y00658
X00189Y0067
X00171
X00181Y0069
X00161
X00141
X001225Y006025
T03
X0024Y0002
Y0004
Y0006
Y0008
Y001
Y0012
Y0014
X00258Y0011
X002925
X0029Y0014
X003Y002
X0028Y0021
X0026
X0024
Y0023
Y0025
Y0027
Y0029
Y0031
Y0033
Y0035
Y0037
Y0039
X0022
X002
X0018
X0016
X0014
X0012
X001
X0008
X0006
X0004
X0002
X0024Y0018
Y0016
X0026Y0018
X00231Y00632
X00231Y00646
Y00666
Y00686
Y00706
X00251
X00261Y00716
Y00736
Y00756
Y00776
Y0079
X00205Y00693
X00191Y00706
X00171
X00151
X00131
X00111
Y00686
Y00666
Y00646
X00118Y00622
X00141Y00615
X00161
X00181
X00201
X00091Y00706
X00071
X00051
X00031
X00011
T04
X00125Y00545999
T07
X00145Y00542499
T08
X003692Y0002
X003946
X0042
X003438
X003184
X00293
X000265Y005276
Y00553
X00026249Y005846
Y0061
M30
